<?xml version="1.0"?>
<svg xmlns="http://www.w3.org/2000/svg" xmlns:xlink="http://www.w3.org/1999/xlink" width="244" height="371">
	<defs>
		<marker id="CustomMarker-01" markerUnits="strokeWidth" markerWidth="15.000001" markerHeight="9" viewBox="-15 -4.5 15 9" orient="auto-start-reverse">
			<path d="M 0 -0 L -10 -3, -8 -0.5, -8 0.5, -10 3 Z" fill="#FF2A00" stroke="#FF2A00" stroke-linejoin="round" />
		</marker>
		<marker id="CustomMarker-02" markerUnits="strokeWidth" markerWidth="15.000001" markerHeight="9" viewBox="-15 -4.5 15 9" orient="auto-start-reverse">
			<path d="M 0 -0 L -10 -3, -8 -0.5, -8 0.5, -10 3 Z" fill="#FF2A00" stroke="#FF2A00" stroke-linejoin="round" />
		</marker>
		<marker id="CustomMarker-03" markerUnits="strokeWidth" markerWidth="15.000001" markerHeight="9" viewBox="-15 -4.5 15 9" orient="auto-start-reverse">
			<path d="M 0 -0 L -10 -3, -8 -0.5, -8 0.5, -10 3 Z" fill="#FF2A00" stroke="#FF2A00" stroke-linejoin="round" />
		</marker>
		<marker id="CustomMarker-04" markerUnits="strokeWidth" markerWidth="15.000001" markerHeight="9" viewBox="-15 -4.5 15 9" orient="auto-start-reverse">
			<path d="M 0 -0 L -10 -3, -8 -0.5, -8 0.5, -10 3 Z" fill="#FF2A00" stroke="#FF2A00" stroke-linejoin="round" />
		</marker>
		<marker id="CustomMarker-05" markerUnits="strokeWidth" markerWidth="15.000001" markerHeight="9" viewBox="-15 -4.5 15 9" orient="auto-start-reverse">
			<path d="M 0 -0 L -10 -3, -8 -0.5, -8 0.5, -10 3 Z" fill="#FF2A00" stroke="#FF2A00" stroke-linejoin="round" />
		</marker>
		<marker id="CustomMarker-06" markerUnits="strokeWidth" markerWidth="15.000001" markerHeight="9" viewBox="-15 -4.5 15 9" orient="auto-start-reverse">
			<path d="M 0 -0 L -10 -3, -8 -0.5, -8 0.5, -10 3 Z" fill="#000000" stroke="#000000" stroke-linejoin="round" />
		</marker>
		<marker id="CustomMarker-07" markerUnits="strokeWidth" markerWidth="15.000001" markerHeight="9" viewBox="-15 -4.5 15 9" orient="auto-start-reverse">
			<path d="M 0 -0 L -10 -3, -8 -0.5, -8 0.5, -10 3 Z" fill="#44E500" stroke="#44E500" stroke-linejoin="round" />
		</marker>
		<marker id="CustomMarker-08" markerUnits="strokeWidth" markerWidth="15.000001" markerHeight="9" viewBox="-15 -4.5 15 9" orient="auto-start-reverse">
			<path d="M 0 -0 L -10 -3, -8 -0.5, -8 0.5, -10 3 Z" fill="#0006BF" stroke="#0006BF" stroke-linejoin="round" />
		</marker>
		<marker id="CustomMarker-09" markerUnits="strokeWidth" markerWidth="15.000001" markerHeight="9" viewBox="-15 -4.5 15 9" orient="auto-start-reverse">
			<path d="M 0 -0 L -10 -3, -8 -0.5, -8 0.5, -10 3 Z" fill="#44E500" stroke="#44E500" stroke-linejoin="round" />
		</marker>
		<marker id="CustomMarker-10" markerUnits="strokeWidth" markerWidth="15.000001" markerHeight="9" viewBox="-15 -4.5 15 9" orient="auto-start-reverse">
			<path d="M 0 -0 L -10 -3, -8 -0.5, -8 0.5, -10 3 Z" fill="#0006BF" stroke="#0006BF" stroke-linejoin="round" />
		</marker>
	</defs>
	<rect x="0" y="0" width="244" height="371" stroke="none" fill="#FFFFFF" />
	<path d="M 39.8541 -0 C 39.8541 57.3983, 22.0108 103.929, -0 103.929, -22.0108 103.929, -39.8541 57.3983, -39.8541 -0, -39.8541 -57.3983, -22.0108 -103.929, -0 -103.929, 22.0108 -103.929, 39.8541 -57.3983, 39.8541 -0 Z" stroke="none" fill="#7ED7FD" fill-opacity="0.490196049" transform="matrix(1 0 0 1 -889.945 287.797)" />
	<path d="M 39.8541 -0 C 39.8541 57.3983, 22.0108 103.929, -0 103.929, -22.0108 103.929, -39.8541 57.3983, -39.8541 -0, -39.8541 -57.3983, -22.0108 -103.929, -0 -103.929, 22.0108 -103.929, 39.8541 -57.3983, 39.8541 -0 Z" fill="none" stroke="#000000" stroke-width="1" stroke-linecap="round" stroke-linejoin="round" transform="matrix(1 0 0 1 -889.945 287.797)" />
	<path d="M 0 -148.214 L 0 148.214" fill="none" stroke="#44E500" stroke-width="1.33333337" stroke-linecap="round" stroke-linejoin="round" stroke-dasharray="4.67333, 3.32667" transform="matrix(1 0 0 1 -889.945 289.225)" />
	<path d="M -67.6787 57.1349 L -46.6072 49.294, 94.1073 106.429, 73.0358 114.27 Z" stroke="none" fill="#7ED7FD" fill-opacity="0.490196049" transform="matrix(1 0 -0 1 -731.74 205.815)" />
	<path d="M -46.6072 49.294 L 94.1073 106.429, 94.1073 -7.8409, -46.6072 -64.9758 Z" stroke="none" fill="#7ED7FD" fill-opacity="0.490196049" transform="matrix(1 0 -0 1 -731.74 205.815)" />
	<path d="M -67.6787 57.1349 L -46.6072 49.294, -46.6072 -64.9758, -67.6787 -57.1349 Z" stroke="none" fill="#7ED7FD" fill-opacity="0.490196049" transform="matrix(1 0 -0 1 -731.74 205.815)" />
	<path d="M 94.1073 106.429 L 73.0358 114.27, 73.0358 2.28882e-005, 94.1073 -7.8409 Z" stroke="none" fill="#7ED7FD" fill-opacity="0.490196049" transform="matrix(1 0 -0 1 -731.74 205.815)" />
	<path d="M -67.6787 -57.1349 L -46.6072 -64.9758, 94.1073 -7.8409, 73.0358 2.28882e-005 Z" stroke="none" fill="#7ED7FD" fill-opacity="0.490196049" transform="matrix(1 0 -0 1 -731.74 205.815)" />
	<path d="M -67.6787 -57.1349 L 73.0358 2.28882e-005, 73.0358 114.27, -67.6787 57.1349 Z" stroke="none" fill="#7ED7FD" fill-opacity="0.490196049" transform="matrix(1 0 -0 1 -731.74 205.815)" />
	<path d="M -67.6787 57.1349 L 73.0358 114.27, 94.1073 106.429, 94.1073 -7.8409, -46.6072 -64.9758, -67.6787 -57.1349 Z" fill="none" stroke="#000000" stroke-width="1" stroke-linecap="round" stroke-linejoin="round" transform="matrix(1 0 -0 1 -731.74 205.815)" />
	<path d="M 73.0358 2.28882e-005 L 73.0358 114.27" fill="none" stroke="#000000" stroke-width="1" stroke-linecap="round" stroke-linejoin="round" transform="matrix(1 0 -0 1 -731.74 205.815)" />
	<path d="M 73.0358 2.28882e-005 L -67.6787 -57.1349" fill="none" stroke="#000000" stroke-width="1" stroke-linecap="round" stroke-linejoin="round" transform="matrix(1 0 -0 1 -731.74 205.815)" />
	<path d="M 73.0358 2.28882e-005 L 94.1073 -7.8409" fill="none" stroke="#000000" stroke-width="1" stroke-linecap="round" stroke-linejoin="round" transform="matrix(1 0 -0 1 -731.74 205.815)" />
	<path d="M -46.6072 49.294 L -67.6787 57.1349" fill="none" stroke="#000000" stroke-width="0.5" stroke-linecap="round" stroke-linejoin="round" stroke-dasharray="0.7525, 1.2475" transform="matrix(1 0 -0 1 -731.74 205.815)" />
	<path d="M -46.6072 49.294 L 94.1073 106.429" fill="none" stroke="#000000" stroke-width="0.5" stroke-linecap="round" stroke-linejoin="round" stroke-dasharray="0.7525, 1.2475" transform="matrix(1 0 -0 1 -731.74 205.815)" />
	<path d="M -46.6072 49.294 L -46.6072 -64.9758" fill="none" stroke="#000000" stroke-width="0.5" stroke-linecap="round" stroke-linejoin="round" stroke-dasharray="0.7525, 1.2475" transform="matrix(1 0 -0 1 -731.74 205.815)" />
	<path d="M 39.8539 -0 C 39.8539 57.398, 22.0107 103.928, -0 103.928, -22.0107 103.928, -39.8539 57.398, -39.8539 -0, -39.8539 -57.398, -22.0107 -103.928, -0 -103.928, 22.0107 -103.928, 39.8539 -57.398, 39.8539 -0 Z" stroke="none" fill="#7ED7FD" fill-opacity="0.490196049" transform="matrix(1 0 0 1 -568.661 171.603)" />
	<path d="M 39.8539 -0 C 39.8539 57.398, 22.0107 103.928, -0 103.928, -22.0107 103.928, -39.8539 57.398, -39.8539 -0, -39.8539 -57.398, -22.0107 -103.928, -0 -103.928, 22.0107 -103.928, 39.8539 -57.398, 39.8539 -0 Z" fill="none" stroke="#000000" stroke-width="1" stroke-linecap="round" stroke-linejoin="round" transform="matrix(1 0 0 1 -568.661 171.603)" />
	<path d="M 0 -148.214 L 0 148.214" fill="none" stroke="#44E500" stroke-width="1.33333337" stroke-linecap="round" stroke-linejoin="round" stroke-dasharray="4.67333, 3.32667" transform="matrix(1 0 0 1 -568.661 173.032)" />
	<path d="M -31.3135 11.4612 L 31.3134 -11.4612" fill="none" stroke="#FF2A00" stroke-width="1.33333337" stroke-linecap="round" stroke-linejoin="round" marker-end="url(#CustomMarker-01)" transform="matrix(1 0 0 1 -537.347 160.142)" />
	<path d="M -23.858 8.73285 L 23.858 -8.73212" fill="none" stroke="#FF2A00" stroke-width="1" stroke-linecap="round" stroke-linejoin="round" marker-end="url(#CustomMarker-02)" transform="matrix(1 0 0 1 -913.803 297.93)" />
	<path d="M -79.1026 28.9528 L 79.1024 -28.9524" fill="none" stroke="#FF2A00" stroke-width="1" stroke-linecap="round" stroke-linejoin="round" marker-end="url(#CustomMarker-03)" transform="matrix(1 0 0 1 -810.843 260.245)" />
	<path d="M -7.53204 2.75696 L 7.53223 -2.75671" fill="none" stroke="#FF2A00" stroke-width="1" stroke-linecap="round" stroke-linejoin="round" marker-end="url(#CustomMarker-04)" transform="matrix(1 0 0 1 -724.208 228.535)" />
	<path d="M -74.0076 27.0878 L 74.0076 -27.0877" fill="none" stroke="#FF2A00" stroke-width="1" stroke-linecap="round" stroke-linejoin="round" marker-end="url(#CustomMarker-05)" transform="matrix(1 0 0 1 -642.668 198.69)" />
	<g transform="matrix(1 0 -0 1 -918.729 441.832)">
		<svg width="176.981506" height="50.9380569">
			<defs />
			<path d="M 6.54296 3.28397 L 6.54296 5.18404, 12.6747 5.18404, 12.6747 3.28397 Z M 7.65134 7.84415 L 7.65134 10.4409, 8.95764 10.4409, 8.95764 7.84415 Z M 9.80476 7.84415 L 9.80476 10.4409, 11.2377 10.4409, 11.2377 7.84415 Z M 12.0888 7.84415 L 12.0888 10.4409, 13.3912 10.4409, 13.3912 7.84415 Z M 8.30449 0.687195 L 8.43512 0.497187 C 9.30599 0.964289, 9.83643 1.30472, 10.0344 1.51452, 10.2323 1.72828, 10.3273 1.89454, 10.3273 2.01725, 10.3273 2.19142, 10.2402 2.38143, 10.066 2.59123, 9.89185 2.80499, 9.78497 2.90791, 9.73747 2.90395, 9.6108 2.90791, 9.49996 2.73769, 9.41287 2.39726, 9.2387 1.89454, 8.87056 1.32451, 8.30449 0.687195 Z M 3.47513 14.3678 C 3.95806 13.6552, 4.36975 12.8121, 4.7181 11.8383, 5.06644 10.8684, 5.32374 9.77986, 5.49792 8.57648, 5.67209 7.37309, 5.71564 5.29488, 5.62855 2.33393 L 6.54296 2.90395, 12.544 2.90395, 12.9993 2.33393, 13.981 3.1573, 13.5218 3.47398, 13.5218 4.86737 C 13.5218 5.2078, 13.5455 5.56802, 13.5891 5.94408 L 12.6747 6.26076, 12.6747 5.56406, 6.54296 5.56406 C 6.54296 7.84811, 6.26191 9.68485, 5.69584 11.0782, 5.12978 12.4716, 4.45683 13.6117, 3.67305 14.4944 Z M 6.73693 14.9378 C 6.78443 13.9244, 6.80422 13.2515, 6.80422 12.911 L 6.80422 8.92087 C 6.80422 8.46168, 6.78443 7.78478, 6.73693 6.89412 L 7.65134 7.46414, 13.2605 7.46414, 13.783 6.89412, 14.8281 7.71748, 14.2383 8.0975, 14.2383 13.7977 C 14.2858 14.3915, 13.8701 14.8349, 12.9993 15.1278, 12.9597 14.7082, 12.4134 14.3282, 11.3684 13.9877 L 11.3684 13.7344 C 12.1126 13.8215, 12.647 13.8611, 12.9716 13.8611, 13.2962 13.8611, 13.4387 13.675, 13.3912 13.291 L 13.3912 10.8209, 12.0888 10.8209, 12.0888 13.101, 11.2377 13.4177, 11.2377 10.8209, 9.80476 10.8209, 9.80476 13.6711, 8.95764 13.9244, 8.95764 10.8209, 7.65134 10.8209, 7.65134 14.5578 Z M 2.17278 15.4445 C 2.21633 13.5483, 2.23612 12.2816, 2.23612 11.6443 L 2.23612 6.00741 C 1.41275 7.23455, 0.62897 8.20834, -0.111269 8.92087 L -0.309193 8.79419 C 0.735849 7.36122, 1.5988 5.84511, 2.27175 4.23796, 2.94469 2.63477, 3.392 1.43139, 3.60576 0.623858 L 4.91206 1.44723 C 4.56371 1.57786, 4.25891 1.90641, 3.99765 2.43289, 3.73639 2.96333, 3.3445 3.75107, 2.82198 4.80403 L 3.60576 5.24738, 3.08324 5.75407, 3.08324 11.2643 C 3.08324 11.9016, 3.10699 13.1485, 3.15053 15.0011 Z" stroke="none" fill="#000000" />
			<path d="M 15.1587 13.5444 C 16.1166 13.675, 16.75 13.7384, 17.0548 13.7384, 17.3596 13.7384, 17.51 13.485, 17.51 12.9744 L 17.51 8.73086 C 17.031 8.94462, 16.465 9.2415, 15.8118 9.61756 L 15.4872 10.0609, 14.7034 8.92087 C 15.4872 8.71502, 16.4254 8.41814, 17.51 8.03416 L 17.51 4.80403, 15.9424 4.80403, 15.3566 4.9307, 14.8341 4.42401, 17.51 4.42401 C 17.51 2.73769, 17.4902 1.47098, 17.4427 0.623858 L 19.0103 1.32055, 18.4205 1.76391, 18.4205 4.42401, 19.1409 4.42401, 19.8574 3.72732, 20.9658 4.80403, 18.4205 4.80403, 18.4205 7.71748, 20.5739 6.89412, 20.6412 7.08412, 18.4205 8.28751, 18.4205 13.4177 C 18.468 14.2213, 18.0088 14.8111, 17.0508 15.1911, 17.0508 14.6448, 16.4214 14.1777, 15.1587 13.7977 Z M 23.903 13.4177 L 25.9258 12.4043, 26.0524 12.5943 C 24.663 13.6117, 23.8357 14.4113, 23.5744 15.0011 L 22.7906 13.9877 C 23.0123 13.6948, 23.0994 13.3385, 23.0519 12.911 L 23.0519 7.59081, 22.1414 7.59081 C 21.9673 11.1416, 20.9262 13.7384, 19.0103 15.3811 L 18.8124 15.2545 C 19.5961 14.2846, 20.1978 13.0971, 20.6095 11.6799, 21.0212 10.2668, 21.227 8.49335, 21.227 6.35972, 21.227 4.23005, 21.2072 2.57144, 21.1597 1.38389 L 22.1414 2.01725, 27.1648 2.01725, 28.0752 1.13055, 29.3815 2.39726, 22.1414 2.39726, 22.1414 7.21079, 27.5567 7.21079, 28.4671 6.32409, 29.7734 7.59081, 25.2726 7.59081 C 25.5339 8.60814, 25.8822 9.51464, 26.3137 10.3143, 27.4023 9.55818, 28.1623 8.90503, 28.5978 8.35084 L 29.5122 9.42755 C 28.9026 9.43151, 27.905 9.83132, 26.5116 10.6309, 27.0341 11.6047, 27.6319 12.345, 28.3048 12.8517, 28.9778 13.3583, 29.5755 13.6552, 30.098 13.7344 L 30.098 13.9877 C 29.4053 14.0313, 28.9065 14.2846, 28.5978 14.7478, 26.5987 12.9348, 25.3795 10.5518, 24.9441 7.59081 L 23.903 7.59081 Z M 22.7273 4.61402 L 26.9669 4.61402, 27.7506 3.85399, 28.9263 4.99404, 24.6828 4.99404 C 24.1207 4.998, 23.6615 5.06133, 23.3132 5.18404 Z" stroke="none" fill="#000000" />
			<path d="M 34.3461 5.8174 C 34.3461 6.83474, 34.3025 7.74123, 34.2154 8.54085 L 39.694 8.54085, 40.1492 7.84415, 41.2576 8.66752, 40.739 9.11087 C 40.739 11.9452, 40.7628 13.8848, 40.8024 14.9378 L 39.7573 15.3811 C 39.8048 14.1144, 39.8246 11.9649, 39.8246 8.92087 L 34.2154 8.92087 C 33.9106 11.5018, 32.6281 13.5483, 30.3638 15.0644 L 30.2332 14.8744 C 31.4089 13.7384, 32.2243 12.535, 32.6795 11.2683, 33.1387 10.0015, 33.3762 8.32313, 33.4 6.23305, 33.4237 4.14296, 33.4119 2.52789, 33.3644 1.38389 L 34.9319 2.08058, 34.3461 2.58727, 34.3461 5.43739, 38.7796 5.43739 C 38.7796 3.28793, 38.7598 1.66098, 38.7162 0.560522 L 40.2165 1.25722, 39.694 1.76391, 39.694 5.43739, 42.4333 5.43739, 43.411 4.48735, 44.5867 5.8174 Z" stroke="none" fill="#000000" />
			<path d="M 56.7621 13.0175 C 56.7081 13.1615, 56.6141 13.2335, 56.4805 13.2335, 55.9866 13.2047, 55.4945 13.1903, 55.0051 13.1903 L 54.7604 13.1903 C 54.1823 13.2002, 53.6016 13.2146, 53.0186 13.2335, 52.8855 13.2335, 52.8135 13.1714, 52.8036 13.0463 L 52.8036 12.9888, 52.8333 12.8664 C 52.8729 12.7085, 52.9691 12.6316, 53.1221 12.6361, 53.3052 12.6365, 53.4685 12.6307, 53.6115 12.6185, 53.755 12.6069, 53.8935 12.5646, 54.0267 12.4921, 54.0762 12.4688, 54.1185 12.435, 54.1526 12.3914, 54.1724 12.3536, 54.185 12.3149, 54.1895 12.2762 L 54.1895 12.233, 54.0118 9.84355, 50.6611 9.84355, 49.4825 11.8588 C 49.4182 11.9744, 49.3858 12.0801, 49.3858 12.1755, 49.3858 12.2573, 49.4105 12.332, 49.46 12.3986, 49.5689 12.5574, 49.7718 12.6365, 50.0677 12.6361, 50.2013 12.6365, 50.2729 12.6941, 50.2828 12.8088, 50.2828 12.8381, 50.2778 12.8691, 50.2679 12.9024 L 50.2387 13.0175 C 50.1842 13.1615, 50.088 13.2335, 49.9494 13.2335, 49.4951 13.2146, 49.0453 13.2002, 48.5999 13.1903 L 48.4002 13.1903 C 48.0147 13.1903, 47.6243 13.2047, 47.2289 13.2335, 47.1546 13.2335, 47.1002 13.2096, 47.0656 13.1615, 47.0359 13.1332, 47.021 13.0994, 47.021 13.0607, 47.021 13.0324, 47.026 13.0036, 47.0359 12.9744 L 47.0656 12.8664 C 47.1052 12.7085, 47.2019 12.6316, 47.3548 12.6361, 47.5132 12.6365, 47.6688 12.6199, 47.8217 12.5862, 47.9751 12.5529, 48.1186 12.4926, 48.2518 12.4062, 48.3854 12.3199, 48.5091 12.2155, 48.6224 12.0931, 48.7362 11.9708, 48.8375 11.8327, 48.9265 11.6789 L 54.1598 2.71826 C 54.2489 2.58421, 54.3627 2.51944, 54.5013 2.52393 L 54.6421 2.52393 C 54.8004 2.52438, 54.889 2.59861, 54.9088 2.74705 L 55.5611 12.1251 C 55.571 12.2501, 55.5858 12.3451, 55.6056 12.4098, 55.6254 12.4746, 55.66 12.5214, 55.7095 12.5497, 55.7788 12.5934, 55.8935 12.6185, 56.0541 12.6257, 56.2151 12.6329, 56.3964 12.6365, 56.5988 12.6361, 56.7374 12.6365, 56.8066 12.6941, 56.8066 12.8088, 56.8066 12.8381, 56.8017 12.8691, 56.7918 12.9024 Z M 53.656 4.74069 L 51.0169 9.26058, 53.9673 9.26058 Z" stroke="none" fill="#000000" />
			<rect />
		</svg>
	</g>
	<g transform="matrix(1 0 -0 1 -597.146 333.498)">
		<svg width="176.981506" height="50.9380569">
			<defs />
			<path d="M 6.54296 3.28397 L 6.54296 5.18404, 12.6747 5.18404, 12.6747 3.28397 Z M 7.65134 7.84415 L 7.65134 10.4409, 8.95764 10.4409, 8.95764 7.84415 Z M 9.80476 7.84415 L 9.80476 10.4409, 11.2377 10.4409, 11.2377 7.84415 Z M 12.0888 7.84415 L 12.0888 10.4409, 13.3912 10.4409, 13.3912 7.84415 Z M 8.30449 0.687195 L 8.43512 0.497187 C 9.30599 0.964289, 9.83643 1.30472, 10.0344 1.51452, 10.2323 1.72828, 10.3273 1.89454, 10.3273 2.01725, 10.3273 2.19142, 10.2402 2.38143, 10.066 2.59123, 9.89185 2.80499, 9.78497 2.90791, 9.73747 2.90395, 9.6108 2.90791, 9.49996 2.73769, 9.41287 2.39726, 9.2387 1.89454, 8.87056 1.32451, 8.30449 0.687195 Z M 3.47513 14.3678 C 3.95806 13.6552, 4.36975 12.8121, 4.7181 11.8383, 5.06644 10.8684, 5.32374 9.77986, 5.49792 8.57648, 5.67209 7.37309, 5.71564 5.29488, 5.62855 2.33393 L 6.54296 2.90395, 12.544 2.90395, 12.9993 2.33393, 13.981 3.1573, 13.5218 3.47398, 13.5218 4.86737 C 13.5218 5.2078, 13.5455 5.56802, 13.5891 5.94408 L 12.6747 6.26076, 12.6747 5.56406, 6.54296 5.56406 C 6.54296 7.84811, 6.26191 9.68485, 5.69584 11.0782, 5.12978 12.4716, 4.45683 13.6117, 3.67305 14.4944 Z M 6.73693 14.9378 C 6.78443 13.9244, 6.80422 13.2515, 6.80422 12.911 L 6.80422 8.92087 C 6.80422 8.46168, 6.78443 7.78478, 6.73693 6.89412 L 7.65134 7.46414, 13.2605 7.46414, 13.783 6.89412, 14.8281 7.71748, 14.2383 8.0975, 14.2383 13.7977 C 14.2858 14.3915, 13.8701 14.8349, 12.9993 15.1278, 12.9597 14.7082, 12.4134 14.3282, 11.3684 13.9877 L 11.3684 13.7344 C 12.1126 13.8215, 12.647 13.8611, 12.9716 13.8611, 13.2962 13.8611, 13.4387 13.675, 13.3912 13.291 L 13.3912 10.8209, 12.0888 10.8209, 12.0888 13.101, 11.2377 13.4177, 11.2377 10.8209, 9.80476 10.8209, 9.80476 13.6711, 8.95764 13.9244, 8.95764 10.8209, 7.65134 10.8209, 7.65134 14.5578 Z M 2.17278 15.4445 C 2.21633 13.5483, 2.23612 12.2816, 2.23612 11.6443 L 2.23612 6.00741 C 1.41275 7.23455, 0.62897 8.20834, -0.111269 8.92087 L -0.309193 8.79419 C 0.735849 7.36122, 1.5988 5.84511, 2.27175 4.23796, 2.94469 2.63477, 3.392 1.43139, 3.60576 0.623858 L 4.91206 1.44723 C 4.56371 1.57786, 4.25891 1.90641, 3.99765 2.43289, 3.73639 2.96333, 3.3445 3.75107, 2.82198 4.80403 L 3.60576 5.24738, 3.08324 5.75407, 3.08324 11.2643 C 3.08324 11.9016, 3.10699 13.1485, 3.15053 15.0011 Z" stroke="none" fill="#000000" />
			<path d="M 15.1587 13.5444 C 16.1166 13.675, 16.75 13.7384, 17.0548 13.7384, 17.3596 13.7384, 17.51 13.485, 17.51 12.9744 L 17.51 8.73086 C 17.031 8.94462, 16.465 9.2415, 15.8118 9.61756 L 15.4872 10.0609, 14.7034 8.92087 C 15.4872 8.71502, 16.4254 8.41814, 17.51 8.03416 L 17.51 4.80403, 15.9424 4.80403, 15.3566 4.9307, 14.8341 4.42401, 17.51 4.42401 C 17.51 2.73769, 17.4902 1.47098, 17.4427 0.623858 L 19.0103 1.32055, 18.4205 1.76391, 18.4205 4.42401, 19.1409 4.42401, 19.8574 3.72732, 20.9658 4.80403, 18.4205 4.80403, 18.4205 7.71748, 20.5739 6.89412, 20.6412 7.08412, 18.4205 8.28751, 18.4205 13.4177 C 18.468 14.2213, 18.0088 14.8111, 17.0508 15.1911, 17.0508 14.6448, 16.4214 14.1777, 15.1587 13.7977 Z M 23.903 13.4177 L 25.9258 12.4043, 26.0524 12.5943 C 24.663 13.6117, 23.8357 14.4113, 23.5744 15.0011 L 22.7906 13.9877 C 23.0123 13.6948, 23.0994 13.3385, 23.0519 12.911 L 23.0519 7.59081, 22.1414 7.59081 C 21.9673 11.1416, 20.9262 13.7384, 19.0103 15.3811 L 18.8124 15.2545 C 19.5961 14.2846, 20.1978 13.0971, 20.6095 11.6799, 21.0212 10.2668, 21.227 8.49335, 21.227 6.35972, 21.227 4.23005, 21.2072 2.57144, 21.1597 1.38389 L 22.1414 2.01725, 27.1648 2.01725, 28.0752 1.13055, 29.3815 2.39726, 22.1414 2.39726, 22.1414 7.21079, 27.5567 7.21079, 28.4671 6.32409, 29.7734 7.59081, 25.2726 7.59081 C 25.5339 8.60814, 25.8822 9.51464, 26.3137 10.3143, 27.4023 9.55818, 28.1623 8.90503, 28.5978 8.35084 L 29.5122 9.42755 C 28.9026 9.43151, 27.905 9.83132, 26.5116 10.6309, 27.0341 11.6047, 27.6319 12.345, 28.3048 12.8517, 28.9778 13.3583, 29.5755 13.6552, 30.098 13.7344 L 30.098 13.9877 C 29.4053 14.0313, 28.9065 14.2846, 28.5978 14.7478, 26.5987 12.9348, 25.3795 10.5518, 24.9441 7.59081 L 23.903 7.59081 Z M 22.7273 4.61402 L 26.9669 4.61402, 27.7506 3.85399, 28.9263 4.99404, 24.6828 4.99404 C 24.1207 4.998, 23.6615 5.06133, 23.3132 5.18404 Z" stroke="none" fill="#000000" />
			<path d="M 34.3461 5.8174 C 34.3461 6.83474, 34.3025 7.74123, 34.2154 8.54085 L 39.694 8.54085, 40.1492 7.84415, 41.2576 8.66752, 40.739 9.11087 C 40.739 11.9452, 40.7628 13.8848, 40.8024 14.9378 L 39.7573 15.3811 C 39.8048 14.1144, 39.8246 11.9649, 39.8246 8.92087 L 34.2154 8.92087 C 33.9106 11.5018, 32.6281 13.5483, 30.3638 15.0644 L 30.2332 14.8744 C 31.4089 13.7384, 32.2243 12.535, 32.6795 11.2683, 33.1387 10.0015, 33.3762 8.32313, 33.4 6.23305, 33.4237 4.14296, 33.4119 2.52789, 33.3644 1.38389 L 34.9319 2.08058, 34.3461 2.58727, 34.3461 5.43739, 38.7796 5.43739 C 38.7796 3.28793, 38.7598 1.66098, 38.7162 0.560522 L 40.2165 1.25722, 39.694 1.76391, 39.694 5.43739, 42.4333 5.43739, 43.411 4.48735, 44.5867 5.8174 Z" stroke="none" fill="#000000" />
			<path d="M 56.7472 5.59717 C 56.6636 5.94309, 56.4967 6.26696, 56.247 6.56925, 55.9974 6.87153, 55.7095 7.12839, 55.3834 7.33891, 55.1265 7.51209, 54.8634 7.64884, 54.5939 7.7496, 54.3245 7.85036, 54.2291 7.89354, 54.3083 7.8787, 54.2939 7.8742, 54.4234 7.93583, 54.6978 8.06268, 54.9722 8.18998, 55.2129 8.36362, 55.4203 8.58403, 55.6528 8.81974, 55.8112 9.10268, 55.8948 9.43331, 55.9344 9.59705, 55.9569 9.75764, 55.9614 9.91553, 55.9614 10.0982, 55.9344 10.288, 55.88 10.4841, 55.7864 10.8539, 55.6132 11.207, 55.3613 11.5426, 55.1094 11.8786, 54.8076 12.171, 54.4567 12.4202, 54.0861 12.6892, 53.692 12.892, 53.2746 13.0288, 52.8571 13.1655, 52.4406 13.2335, 52.0249 13.2335 L 46.7174 13.2335 C 46.6432 13.2335, 46.5888 13.2119, 46.5541 13.1687, 46.5199 13.1354, 46.5024 13.0994, 46.5024 13.0607, 46.5024 13.0324, 46.5073 13.0036, 46.5172 12.9744 L 46.5469 12.8664 C 46.5766 12.7085, 46.6729 12.6316, 46.8357 12.6361, 47.0683 12.6365, 47.286 12.6329, 47.4884 12.6257, 47.6908 12.6185, 47.8442 12.5934, 47.9477 12.5497, 48.0368 12.502, 48.106 12.3725, 48.1555 12.1611 L 50.2387 4.04976 C 50.2684 3.94449, 50.2828 3.86308, 50.2828 3.80505, 50.2828 3.74792, 50.2706 3.71418, 50.2459 3.70429, 50.1766 3.66155, 50.0421 3.63546, 49.8419 3.62557, 49.6418 3.61612, 49.4231 3.61117, 49.1856 3.61072, 49.1119 3.61117, 49.0574 3.58733, 49.0228 3.53875, 48.9931 3.51041, 48.9783 3.47442, 48.9783 3.43079, 48.9783 3.40245, 48.9859 3.37591, 49.0003 3.35162 L 49.0228 3.24366 C 49.0376 3.17709, 49.0736 3.12311, 49.1303 3.08217, 49.187 3.04169, 49.2477 3.021, 49.312 3.02055 L 54.2269 3.02055 C 54.6322 3.021, 55.015 3.08127, 55.3757 3.20093, 55.7365 3.32103, 56.0356 3.51041, 56.2727 3.76906, 56.5052 4.00477, 56.6685 4.27827, 56.7621 4.58955, 56.8017 4.74834, 56.8215 4.90893, 56.8215 5.07177, 56.8215 5.24495, 56.7967 5.41993, 56.7472 5.59717 Z M 55.2498 5.56838 C 55.2993 5.37675, 55.324 5.18512, 55.324 4.9926 L 55.324 4.81986 C 55.3042 4.59, 55.2349 4.37633, 55.1162 4.17931, 55.0127 4.00207, 54.8755 3.86308, 54.705 3.76231, 54.5345 3.66155, 54.3357 3.61117, 54.1081 3.61072 L 52.1509 3.61072 C 51.8891 3.61117, 51.7384 3.62782, 51.6988 3.6611, 51.6394 3.70968, 51.5828 3.84868, 51.5283 4.07854 L 50.6093 7.69157, 52.6331 7.69157 C 52.9147 7.69202, 53.194 7.63714, 53.4707 7.52648, 53.7478 7.41628, 54.0118 7.26019, 54.2637 7.05821, 54.7878 6.63627, 55.1166 6.13966, 55.2498 5.56838 Z M 54.338 10.4409 C 54.4072 10.1967, 54.4419 9.95421, 54.4419 9.714 L 54.4419 9.56286 C 54.4221 9.29476, 54.3506 9.04736, 54.2269 8.82154, 54.118 8.62542, 53.9709 8.46573, 53.7856 8.34337, 53.6002 8.22102, 53.3843 8.15984, 53.1369 8.15939 L 50.4757 8.15939, 49.4452 12.1899 C 49.4056 12.3536, 49.3858 12.471, 49.3858 12.5425, 49.3858 12.5812, 49.3885 12.6028, 49.3934 12.6073, 49.4033 12.6221, 49.532 12.6316, 49.7789 12.6361 L 51.7582 12.6361 C 52.0299 12.6365, 52.3043 12.5781, 52.5809 12.4602, 52.858 12.3428, 53.1126 12.1881, 53.3447 11.9955, 53.602 11.7801, 53.813 11.5381, 53.9786 11.2691, 54.1441 11.0005, 54.2642 10.7243, 54.338 10.4409 Z" stroke="none" fill="#000000" />
			<rect />
		</svg>
	</g>
	<g transform="matrix(1 0 -0 1 -988.46 300.721)">
		<svg width="134.889191" height="50.9380569">
			<defs />
			<path d="M 12.2986 13.7344 C 12.2986 14.158, 12.3224 14.5815, 12.3659 15.0011 L 11.3209 15.3811, 11.3209 14.0511, 3.48304 14.0511, 3.48304 15.0644, 2.438 15.3811 C 2.48155 14.6646, 2.50134 12.5983, 2.50134 9.17817, 2.50134 5.75803, 2.48155 3.71148, 2.438 3.03062 L 3.48304 3.60065, 5.4425 3.60065 C 5.92148 2.54769, 6.24607 1.53431, 6.42025 0.560522 L 7.98781 1.25722 C 7.59988 1.47098, 7.19611 1.84307, 6.78047 2.36955, 6.36879 2.89999, 6.0719 3.30772, 5.89773 3.60065 L 11.1902 3.60065, 11.7128 2.84062, 12.9518 3.72732, 12.2986 4.23401 Z M 3.48304 3.98066 L 3.48304 6.76744, 11.3209 6.76744, 11.3209 3.98066 Z M 3.48304 7.14746 L 3.48304 10.3143, 11.3209 10.3143, 11.3209 7.14746 Z M 3.48304 10.6943 L 3.48304 13.6711, 11.3209 13.6711, 11.3209 10.6943 Z" stroke="none" fill="#000000" />
			<path d="M 26.0683 1.5739 L 26.1989 1.38389 C 27.2044 1.93808, 27.814 2.32997, 28.0317 2.55956, 28.2494 2.79311, 28.3563 3.01479, 28.3563 3.22063, 28.3563 3.43439, 28.2811 3.66794, 28.1267 3.92128, 27.9763 4.17463, 27.8536 4.3013, 27.7665 4.29734, 27.5923 4.3013, 27.4419 4.06775, 27.3112 3.60065, 27.0935 2.9277, 26.6779 2.25476, 26.0683 1.5739 Z M 18.2978 0.560522 L 19.7347 1.32055, 19.2755 1.63723 C 19.0142 2.10434, 18.7332 2.69811, 18.4284 3.41064 L 20.9737 3.41064, 21.4329 2.71394, 22.5413 3.53731, 22.0187 3.98066 C 21.4091 6.26471, 20.5937 7.99854, 19.5724 9.17817, 18.5511 10.3618, 17.0587 11.3316, 15.0953 12.0877 L 15.032 11.8977 C 16.6866 11.0149, 17.985 9.96987, 18.9192 8.76648, 19.8534 7.5631, 20.562 5.90449, 21.041 3.79066 L 18.2305 3.79066 C 18.1038 3.96483, 17.9494 4.21817, 17.7752 4.55069, 18.6461 4.85153, 19.2042 5.093, 19.4418 5.28301, 19.6793 5.47301, 19.798 5.6749, 19.798 5.88074, 19.798 5.96783, 19.7545 6.13013, 19.6674 6.35972, 19.5803 6.59327, 19.4932 6.70807, 19.4061 6.70411, 19.319 6.70807, 19.2122 6.58139, 19.0815 6.32409, 18.8203 5.90449, 18.3413 5.3978, 17.6446 4.80403, 17.3833 5.23155, 17.1458 5.61156, 16.9242 5.94408, 17.7079 6.41118, 18.1869 6.73973, 18.3611 6.92974, 18.5353 7.11975, 18.6223 7.29788, 18.6223 7.46414, 18.6223 7.6779, 18.5471 7.89166, 18.3967 8.10146, 18.2463 8.31522, 18.1236 8.41814, 18.0365 8.41418, 17.9059 8.41814, 17.795 8.24792, 17.7079 7.90749, 17.5338 7.36122, 17.2092 6.79119, 16.7302 6.19742, 16.2077 6.87828, 15.6416 7.4483, 15.032 7.90749 L 14.8341 7.78082 C 15.7049 6.81495, 16.4452 5.63136, 17.0548 4.23796, 17.6644 2.84457, 18.08 1.6214, 18.2978 0.560522 Z M 24.2395 5.12071 C 24.287 3.18105, 24.287 1.68474, 24.2395 0.623858 L 25.6764 1.25722, 25.2212 1.70057 C 25.1776 2.84457, 25.1539 3.98462, 25.1539 5.12071 L 27.5052 5.12071, 28.3563 4.29734, 29.532 5.50072, 25.6764 5.50072 C 26.5473 8.16479, 27.9842 9.74819, 29.9872 10.2509 L 29.9872 10.5043 C 29.2034 10.5913, 28.7046 10.8249, 28.4869 11.201, 26.8323 9.7284, 25.7872 7.82832, 25.3518 5.50072 L 25.0905 5.50072 C 24.9164 7.15142, 24.4809 8.39834, 23.7842 9.2415, 23.0875 10.0886, 21.9356 10.8447, 20.3205 11.5176 L 20.1899 11.3276 C 21.4091 10.6547, 22.3354 9.91841, 22.9688 9.11483, 23.6021 8.31522, 24.0019 7.10787, 24.1761 5.50072 L 24.0455 5.50072 C 23.4794 5.50468, 22.9569 5.56802, 22.4779 5.69073 L 21.8881 5.12071 Z M 17.514 11.771 L 17.7752 11.8343 C 17.8188 12.8081, 17.7317 13.5681, 17.514 14.1144, 17.2963 14.6646, 16.9796 14.9694, 16.5679 15.0328, 16.1562 15.0961, 15.8831 15.0447, 15.7524 14.8744, 15.6218 14.7082, 15.7089 14.4944, 16.0097 14.2411, 16.3185 13.9482, 16.5916 13.6236, 16.8291 13.2633, 17.0667 12.9071, 17.2963 12.4083, 17.514 11.771 Z M 23.2617 11.8977 L 23.4557 11.771 C 24.2395 12.3648, 24.7422 12.8319, 24.9599 13.1683, 25.1776 13.5088, 25.2845 13.7581, 25.2845 13.9244, 25.2845 14.1777, 25.1776 14.4232, 24.9599 14.6528, 24.7422 14.8863, 24.5878 15.0011, 24.5007 15.0011, 24.3265 15.0011, 24.2197 14.7913, 24.1761 14.3678, 24.089 13.6948, 23.7842 12.8714, 23.2617 11.8977 Z M 26.6581 11.8343 L 26.7887 11.6443 C 27.9644 12.3648, 28.6492 12.8754, 28.8471 13.1683, 29.0451 13.4652, 29.1401 13.7186, 29.1401 13.9244, 29.1401 14.2213, 29.053 14.4746, 28.8788 14.6844, 28.7046 14.8982, 28.574 15.0011, 28.4869 15.0011, 28.3127 15.0011, 28.1623 14.7478, 28.0277 14.2411, 27.814 13.485, 27.3548 12.6814, 26.6581 11.8343 Z M 19.798 11.8343 L 19.9959 11.7076 C 20.8668 12.5152, 21.3458 13.0654, 21.4329 13.3583, 21.52 13.6552, 21.5635 13.8848, 21.5635 14.0511, 21.5635 14.3915, 21.4566 14.6448, 21.2389 14.8111, 21.0212 14.9813, 20.8668 15.0644, 20.7797 15.0644, 20.6056 15.0644, 20.4987 14.7913, 20.4512 14.2411, 20.4116 13.485, 20.1939 12.6814, 19.798 11.8343 Z" stroke="none" fill="#000000" />
			<path d="M 32.5859 2.4606 L 32.7165 2.27059 C 34.1535 3.24438, 34.9689 3.92128, 35.1668 4.3013, 35.3648 4.68132, 35.4598 4.9782, 35.4598 5.18404, 35.4598 5.44135, 35.3846 5.6749, 35.2302 5.8847, 35.0798 6.09846, 34.957 6.20138, 34.87 6.19742, 34.6958 6.20138, 34.5454 5.92824, 34.4147 5.37405, 34.1535 4.61798, 33.5439 3.64815, 32.5859 2.4606 Z M 37.0907 6.95745 L 37.0907 3.28397 C 37.0907 2.61102, 37.0709 1.76786, 37.0273 0.75053 L 38.5949 1.38389, 38.0051 1.95391, 38.0051 6.95745, 39.1174 6.95745 C 39.9883 5.56802, 40.7087 4.04796, 41.2708 2.39726 L 42.6444 3.3473, 42.0546 3.66398 C 41.0967 4.9782, 40.2496 6.07471, 39.5093 6.95745 L 42.6444 6.95745, 43.5589 6.07075, 44.7979 7.33747, 39.442 7.33747, 39.442 12.9744 C 39.442 13.6948, 39.7706 14.0511, 40.4237 14.0511 L 43.0363 14.0511 C 43.3411 14.0511, 43.5351 13.8531, 43.6222 13.4533, 43.7093 13.0535, 43.7964 12.0916, 43.8834 10.5676 L 44.212 10.5676 C 44.212 11.6681, 44.2556 12.4202, 44.3426 12.82, 44.4297 13.2237, 44.691 13.5483, 45.1264 13.7977, 44.8216 14.4311, 44.2753 14.7715, 43.4916 14.8111 L 40.2258 14.8111 C 39.1412 14.8111, 38.5949 14.3044, 38.5949 13.291 L 38.5949 7.33747, 36.0456 7.33747 C 35.919 9.70465, 35.4598 11.4503, 34.676 12.5666, 33.8922 13.6869, 32.3484 14.6448, 30.0366 15.4445 L 29.9733 15.1911 C 32.0634 14.2648, 33.4251 13.2119, 34.0545 12.0283, 34.6879 10.8487, 35.0243 9.28505, 35.0679 7.33747 L 32.3246 7.33747 C 31.7586 7.34143, 31.2361 7.40476, 30.7571 7.52747 L 30.1673 6.95745 Z" stroke="none" fill="#000000" />
			<rect />
		</svg>
	</g>
	<path d="M -89.9095 -110.833 L 89.9097 110.833" fill="none" stroke="#44E500" stroke-width="1.33333337" stroke-linecap="round" stroke-linejoin="round" stroke-dasharray="4.67333, 3.32667" transform="matrix(1 0 0 1 -727.543 237.374)" />
	<g transform="matrix(1 0 -0 1 -751.861 333.498)">
		<svg width="270.027618" height="50.9380569">
			<defs />
			<path d="M 0.343958 2.71394 L 5.88981 2.71394, 6.34504 2.08058, 7.45737 2.90395, 6.86756 3.3473 C 6.26191 5.50468, 5.6523 7.21475, 5.04269 8.47751, 5.78293 9.32463, 6.2817 9.99362, 6.54296 10.4766, 6.80422 10.9634, 6.93485 11.3751, 6.93485 11.7076, 6.93485 11.9649, 6.88339 12.2104, 6.77255 12.44, 6.66172 12.6735, 6.5865 12.7883, 6.54296 12.7844, 6.41233 12.7883, 6.25795 12.535, 6.08378 12.0243, 5.78293 11.2683, 5.26041 10.338, 4.52017 9.23754, 3.26137 11.1851, 1.6938 12.7448, -0.178563 13.9244 L -0.309193 13.7344 C 1.56317 12.0916, 2.97636 10.3815, 3.93431 8.60419, 3.36825 7.6779, 2.45384 6.45472, 1.19108 4.9307 L 1.389 4.80403 C 2.43404 5.77782, 3.43158 6.79119, 4.38954 7.84415, 5.08624 6.20138, 5.60876 4.61798, 5.9571 3.09396 L 2.49738 3.09396 C 1.93527 3.09792, 1.41275 3.16125, 0.933774 3.28397 Z M 7.39008 2.65061 L 12.4134 2.65061, 12.9359 1.95391, 13.981 2.77728, 13.3912 3.22063 C 12.8686 6.43493, 12.1521 8.88128, 11.2377 10.5676, 12.2828 12.1747, 13.4585 13.1881, 14.7608 13.6077 L 14.7608 13.8611 C 14.0245 13.9482, 13.5653 14.1777, 13.3912 14.5578, 12.3065 13.5919, 11.3921 12.4914, 10.6519 11.2643, 9.26245 12.8714, 7.50092 14.1144, 5.36729 15.0011 L 5.23666 14.8111 C 7.588 13.3781, 9.2387 11.9214, 10.1967 10.4409, 9.2387 8.20834, 8.67263 5.73823, 8.49846 3.03062 L 7.97594 3.22063 Z M 8.82701 3.03062 C 9.13182 5.65115, 9.76122 7.86791, 10.7192 9.6809, 11.4159 8.16479, 12.0017 5.94803, 12.4807 3.03062 Z" stroke="none" fill="#000000" />
			<path d="M 26.1831 15.3811 C 26.2306 14.1144, 26.2504 13.1683, 26.2504 12.531 L 26.2504 6.64077, 23.1192 6.64077 C 23.0321 10.528, 21.7733 13.4217, 19.3349 15.3178 L 19.2042 15.1278 C 20.1187 14.158, 20.8351 12.9387, 21.3577 11.4583, 21.8802 9.98174, 22.1533 8.27167, 22.1731 6.32805, 22.1969 4.38839, 22.185 2.86437, 22.1414 1.76391 L 23.1192 2.39726 C 25.9456 1.89454, 27.6636 1.36806, 28.2732 0.813867 L 29.3815 2.01725 C 28.6453 2.06475, 27.7744 2.14788, 26.7729 2.27059, 25.7753 2.40122, 24.5561 2.54769, 23.1192 2.71394 L 23.1192 6.26076, 27.9446 6.26076, 28.7957 5.43739, 30.0347 6.64077, 27.1648 6.64077, 27.1648 13.0377 C 27.1648 13.675, 27.1885 14.3282, 27.2281 15.0011 Z M 14.8974 8.79419 C 15.2458 8.79815, 16.3343 8.46168, 18.1592 7.78082 L 18.1592 4.61402, 16.267 4.61402, 15.4872 4.74069, 14.9647 4.23401, 18.1592 4.23401 C 18.1592 2.84457, 18.1394 1.6214, 18.0959 0.560522 L 19.6595 1.25722, 19.0736 1.70057, 19.0736 4.23401, 19.9207 4.23401, 20.6412 3.53731, 21.7496 4.61402, 19.0736 4.61402, 19.0736 7.46414, 21.4883 6.57744, 21.5516 6.83078, 19.0736 8.0975, 19.0736 13.2277 C 19.1211 14.2411, 18.6421 14.918, 17.6406 15.2545, 17.6406 14.7082, 16.9875 14.2015, 15.6812 13.7344 L 15.6812 13.4811 C 16.6391 13.6552, 17.2923 13.7384, 17.6406 13.7384, 17.989 13.7384, 18.1592 13.5048, 18.1592 13.0377 L 18.1592 8.54085 C 16.6391 9.2613, 15.8158 9.74819, 15.6812 9.99758 Z" stroke="none" fill="#000000" />
			<path d="M 32.586 3.1573 L 32.586 5.05737, 35.7805 5.05737, 35.7805 3.1573 Z M 32.586 5.43739 L 32.586 7.14746, 35.7805 7.14746, 35.7805 5.43739 Z M 32.586 7.52747 L 32.586 9.42755, 35.7805 9.42755, 35.7805 7.52747 Z M 33.9556 0.43385 L 35.1946 1.13055 C 34.7592 1.26118, 34.2802 1.81141, 33.7577 2.77728 L 35.7171 2.77728, 36.1724 2.14392, 37.1501 2.90395, 36.6949 3.28397, 36.6949 13.6711 C 36.6949 14.3915, 36.2397 14.9378, 35.3253 15.3178, 35.3253 14.7715, 34.7592 14.3282, 33.6271 13.9877 L 33.6271 13.7344 C 34.5415 13.8215, 35.1273 13.8611, 35.3886 13.8611, 35.6499 13.8611, 35.7805 13.7186, 35.7805 13.4177 L 35.7805 9.80757, 35.1946 9.80757 C 34.5454 11.0347, 33.7617 12.0718, 32.8472 12.915, 31.9328 13.7621, 30.9749 14.4548, 29.9734 15.0011 L 29.8427 14.8111 C 30.8007 14.0946, 31.6399 13.3188, 32.3564 12.4716, 33.0768 11.6285, 33.6746 10.7418, 34.1496 9.80757 L 31.9962 9.80757 C 31.4341 9.81153, 30.9115 9.87486, 30.4326 9.99758 L 29.8427 9.42755, 31.6716 9.42755 C 31.6716 5.58781, 31.6518 3.2048, 31.6043 2.27059 L 32.586 2.77728, 33.3658 2.77728 C 33.6271 1.85099, 33.825 1.07117, 33.9556 0.43385 Z M 41.5203 5.05737 C 41.5203 3.11771, 41.5005 1.6214, 41.457 0.560522 L 43.0206 1.19388, 42.4347 1.70057, 42.4347 5.05737, 43.1512 5.05737, 44.0023 4.23401, 45.2413 5.43739, 42.4347 5.43739, 42.4347 13.5444 C 42.4822 14.3915, 41.9795 15.0011, 40.9344 15.3811, 40.8474 14.7913, 40.1309 14.3282, 38.781 13.9877 L 38.781 13.6711 C 39.9567 13.7977, 40.7088 13.8611, 41.0334 13.8611, 41.358 13.8611, 41.5203 13.675, 41.5203 13.291 L 41.5203 5.43739, 39.1096 5.43739 C 38.5435 5.44135, 38.021 5.50468, 37.542 5.6274 L 36.9562 5.05737 Z M 37.8666 7.14746 L 38.0645 7.02079 C 38.8048 7.61456, 39.3154 8.08166, 39.5965 8.41814, 39.8815 8.75857, 40.0002 9.09504, 39.9567 9.43151, 39.9132 9.77194, 39.8063 10.0134, 39.6321 10.1599, 39.4579 10.3103, 39.3273 10.3815, 39.2402 10.3776, 39.0225 10.3815, 38.8919 10.1084, 38.8483 9.55422, 38.7177 8.84169, 38.3891 8.03812, 37.8666 7.14746 Z" stroke="none" fill="#000000" />
			<path d="M 46.3556 15.1911 C 46.3992 13.9244, 46.419 12.6616, 46.419 11.3949, 46.419 10.1282, 46.3992 8.88128, 46.3556 7.65415 L 47.3334 8.22417, 50.5319 8.22417, 51.1177 7.65415, 52.0955 8.47751, 51.5096 8.85753 C 51.5096 12.0283, 51.5334 13.9046, 51.5729 14.4944 L 50.6625 15.0011, 50.6625 13.9877, 47.2701 13.9877, 47.2701 14.7478 Z M 47.2701 8.60419 L 47.2701 10.8843, 50.6625 10.8843, 50.6625 8.60419 Z M 47.2701 11.2643 L 47.2701 13.6077, 50.6625 13.6077, 50.6625 11.2643 Z M 50.0727 3.98066 L 50.0727 5.8174, 55.9471 5.8174, 55.9471 3.98066 Z M 56.7942 2.08058 C 56.7942 4.66152, 56.8179 6.15784, 56.8575 6.57744 L 55.9471 7.02079, 55.9471 6.19742, 50.0727 6.19742, 50.0727 6.83078, 49.1622 7.21079 C 49.2058 6.20138, 49.2256 5.14842, 49.2256 4.04796, 49.2256 2.95145, 49.2058 1.91433, 49.1622 0.940538 L 50.14 1.44723, 55.8164 1.44723, 56.4023 0.813867, 57.4473 1.63723 Z M 50.0727 1.82724 L 50.0727 3.60065, 55.9471 3.60065, 55.9471 1.82724 Z M 59.011 8.85753 C 59.011 11.9452, 59.0347 13.8611, 59.0782 14.6211 L 58.1638 15.0644, 58.1638 13.9877, 54.5101 13.9877, 54.5101 14.7478, 53.5957 15.1911 C 53.6432 13.8413, 53.663 12.5904, 53.663 11.4266, 53.663 10.2668, 53.6432 9.00795, 53.5957 7.65415 L 54.5735 8.22417, 58.0332 8.22417, 58.6191 7.65415, 59.5968 8.47751 Z M 54.5101 8.60419 L 54.5101 10.8843, 58.1638 10.8843, 58.1638 8.60419 Z M 54.5101 11.2643 L 54.5101 13.6077, 58.1638 13.6077, 58.1638 11.2643 Z" stroke="none" fill="#000000" />
			<path d="M 62.6692 15.3178 C 62.7167 13.9679, 62.7365 12.915, 62.7365 12.151 L 62.7365 5.6274 C 62.0398 6.72786, 61.1927 7.76498, 60.1912 8.73086 L 59.9932 8.54085 C 60.9947 7.32163, 61.8537 5.85303, 62.5702 4.14296, 63.2907 2.43289, 63.7142 1.24138, 63.8449 0.560522 L 65.2145 1.44723, 64.692 1.70057 C 63.9953 3.09792, 63.453 4.19442, 63.0611 4.99404 L 64.1061 5.56406, 63.5836 6.00741, 63.5836 14.8111 Z M 70.0399 12.341 C 70.0399 13.1485, 70.0636 13.9679, 70.1072 14.8111 L 69.0621 15.2545 C 69.1096 13.9046, 69.1294 12.9981, 69.1294 12.531 L 69.1294 11.7076, 68.0844 11.7076 C 67.5223 11.7116, 66.9998 11.7749, 66.5168 11.8977 L 65.931 11.3276, 69.1294 11.3276, 69.1294 5.24738 C 68.4763 6.81495, 67.7163 8.16479, 66.8454 9.30484, 65.9745 10.4449, 65.0403 11.3949, 64.0388 12.151 L 63.8449 11.961 C 64.6722 11.2049, 65.5114 10.1282, 66.3585 8.73482, 67.2056 7.34143, 67.8469 6.01137, 68.2784 4.74069 L 66.8454 4.74069 C 66.2833 4.74465, 65.7608 4.80799, 65.2778 4.9307 L 64.692 4.36068, 69.1294 4.36068, 69.1294 2.4606 C 69.1294 2.041, 69.1096 1.43139, 69.0621 0.623858 L 70.6297 1.32055, 70.0399 1.76391, 70.0399 4.36068, 72.9771 4.36068, 73.8242 3.53731, 75.0632 4.74069, 70.6297 4.74069 C 71.2393 6.51806, 71.9875 7.94312, 72.8781 9.01983, 73.7728 10.0965, 74.5882 10.7616, 75.3245 11.011 L 75.3245 11.2643 C 74.6318 11.2683, 74.1765 11.4583, 73.9548 11.8343, 73.3452 11.3751, 72.6842 10.4686, 71.9677 9.11483, 71.2512 7.76498, 70.697 6.30826, 70.3012 4.74069 L 70.0399 4.74069, 70.0399 11.3276, 71.3462 11.3276, 72.13 10.5676, 73.3017 11.7076, 70.0399 11.7076 Z" stroke="none" fill="#000000" />
			<path d="M 86.8101 6.84949 C 86.7804 6.98444, 86.6941 7.05371, 86.5506 7.05821 L 86.3877 7.05821 C 86.2744 7.05866, 86.2123 7.00108, 86.2024 6.88548 L 86.2024 6.8279 C 86.2519 6.52606, 86.2793 6.23592, 86.2838 5.95703, 86.2838 5.79914, 86.2789 5.63855, 86.269 5.47481, 86.2195 5.05287, 86.1084 4.67997, 85.9356 4.35609, 85.7629 4.03221, 85.5303 3.77311, 85.2389 3.57878, 84.9474 3.38446, 84.5911 3.28729, 84.171 3.28684, 83.6573 3.28729, 83.1409 3.41235, 82.6218 3.66155, 82.1031 3.91121, 81.6335 4.24453, 81.2133 4.66152, 80.7239 5.15633, 80.3411 5.70333, 80.0645 6.30295, 79.7878 6.90302, 79.5701 7.51434, 79.4118 8.1378, 79.239 8.77161, 79.1401 9.38563, 79.1153 9.9803 L 79.1153 10.1818 C 79.1153 10.7054, 79.2192 11.1827, 79.4266 11.6141, 79.6245 12.0225, 79.9133 12.3514, 80.2939 12.6006, 80.6744 12.8502, 81.127 12.9748, 81.6506 12.9744, 82.0757 12.9748, 82.4931 12.8839, 82.9034 12.7013, 83.3136 12.5191, 83.6906 12.2731, 84.0342 11.9636, 84.3779 11.6541, 84.6779 11.2956, 84.9348 10.8876, 85.1921 10.4801, 85.3774 10.0478, 85.4908 9.59165, 85.5205 9.4576, 85.6073 9.39058, 85.7503 9.39013 L 85.9132 9.39013 C 86.0369 9.39058, 86.1034 9.44321, 86.1133 9.54847, 86.1133 9.5777, 86.1061 9.60424, 86.0913 9.62764, 85.9581 10.1557, 85.7382 10.6573, 85.4314 11.1323, 85.1251 11.6073, 84.7607 12.0239, 84.3379 12.381, 83.9155 12.7387, 83.4521 13.0238, 82.9479 13.2371, 82.4441 13.4507, 81.925 13.5573, 81.391 13.5573, 80.7091 13.5573, 80.1027 13.4147, 79.5715 13.1296, 79.0402 12.8444, 78.6088 12.4494, 78.2778 11.9452, 77.9318 11.4036, 77.729 10.8035, 77.6696 10.1458, 77.6498 9.96861, 77.6399 9.78418, 77.6399 9.59165, 77.6399 9.10763, 77.702 8.61327, 77.8252 8.10901, 78.0133 7.40413, 78.3115 6.72399, 78.719 6.06904, 79.1266 5.41409, 79.6367 4.81806, 80.2494 4.28007, 80.8278 3.7911, 81.4545 3.40245, 82.1292 3.11456, 82.8039 2.82667, 83.4796 2.68272, 84.1561 2.68227, 84.695 2.68272, 85.1561 2.80148, 85.5389 3.03899, 85.9221 3.2765, 86.2051 3.56304, 86.3877 3.89861 L 87.3886 2.78304 C 87.4282 2.71646, 87.4948 2.68272, 87.5888 2.68227 L 87.6477 2.68227 C 87.7664 2.68272, 87.8258 2.7403, 87.8258 2.85501 L 87.8258 2.91259 Z" stroke="none" fill="#000000" />
			<rect />
		</svg>
	</g>
	<path d="M 0 -160.179 L 0 160.179" fill="none" stroke="#000000" stroke-width="0.5" stroke-linecap="round" stroke-linejoin="round" stroke-dasharray="1.7525, 1.2475" transform="matrix(1 0 0 1 133.649 195.398)" />
	<path d="M -80.7141 -137.315 L 80.7144 137.315" fill="none" stroke="#000000" stroke-width="0.5" stroke-linecap="round" stroke-linejoin="round" stroke-dasharray="1.7525, 1.2475" transform="matrix(1 0 0 1 100.378 204.989)" />
	<g transform="matrix(1 0 -0 1 120.16 8.5567)">
		<svg width="83.9353714" height="48.0116043">
			<defs />
			<path d="M 9.74187 13.0175 C 9.68789 13.1615, 9.59387 13.2335, 9.46028 13.2335, 8.96636 13.2047, 8.47425 13.1903, 7.98484 13.1903 L 7.74013 13.1903 C 7.1621 13.2002, 6.58137 13.2146, 5.99839 13.2335, 5.86524 13.2335, 5.79327 13.1714, 5.78337 13.0463 L 5.78337 12.9888, 5.81306 12.8664 C 5.85265 12.7085, 5.94891 12.6316, 6.10185 12.6361, 6.28493 12.6365, 6.44822 12.6307, 6.59127 12.6185, 6.73476 12.6069, 6.87331 12.5646, 7.00646 12.4921, 7.05594 12.4688, 7.09822 12.435, 7.13241 12.3914, 7.1522 12.3536, 7.1648 12.3149, 7.1693 12.2762 L 7.1693 12.233, 6.99161 9.84355, 3.64084 9.84355, 2.46228 11.8588 C 2.39796 11.9744, 2.36557 12.0801, 2.36557 12.1755, 2.36557 12.2573, 2.39031 12.332, 2.43979 12.3986, 2.54865 12.5574, 2.75152 12.6365, 3.04751 12.6361, 3.18111 12.6365, 3.25263 12.6941, 3.26253 12.8088, 3.26253 12.8381, 3.25758 12.8691, 3.24769 12.9024 L 3.21845 13.0175 C 3.16402 13.1615, 3.06775 13.2335, 2.92921 13.2335, 2.47488 13.2146, 2.02505 13.2002, 1.57972 13.1903 L 1.38 13.1903 C 0.994493 13.1903, 0.604041 13.2047, 0.208641 13.2335, 0.13442 13.2335, 0.0799902 13.2096, 0.0453534 13.1615, 0.0156646 13.1332, 0.000820279 13.0994, 0.000820279 13.0607, 0.000820279 13.0324, 0.00576842 13.0036, 0.0156646 12.9744 L 0.0453534 12.8664 C 0.0849383 12.7085, 0.181652 12.6316, 0.334593 12.6361, 0.492933 12.6365, 0.648574 12.6199, 0.801516 12.5862, 0.954908 12.5529, 1.0984 12.4926, 1.23155 12.4062, 1.36515 12.3199, 1.48885 12.2155, 1.60221 12.0931, 1.71602 11.9708, 1.81723 11.8327, 1.9063 11.6789 L 7.13961 2.71826 C 7.22867 2.58421, 7.34248 2.51944, 7.48103 2.52393 L 7.62182 2.52393 C 7.78016 2.52438, 7.86878 2.59861, 7.88857 2.74705 L 8.54082 12.1251 C 8.55072 12.2501, 8.56557 12.3451, 8.58536 12.4098, 8.60515 12.4746, 8.63979 12.5214, 8.68927 12.5497, 8.75854 12.5934, 8.87325 12.6185, 9.03384 12.6257, 9.19488 12.6329, 9.37616 12.6365, 9.57858 12.6361, 9.71713 12.6365, 9.7864 12.6941, 9.7864 12.8088, 9.7864 12.8381, 9.78145 12.8691, 9.77156 12.9024 Z M 6.6358 4.74069 L 3.99665 9.26058, 6.94708 9.26058 Z" stroke="none" fill="#000000" />
			<path d="M 14.0425 13.1183 C 14.0425 13.6797, 13.9277 14.21, 13.6979 14.7089, 13.4685 15.2082, 13.1459 15.6495, 12.7308 16.0332, 12.6867 16.062, 12.6372 16.0764, 12.5823 16.0764, 12.5432 16.0764, 12.4914 16.062, 12.4267 16.0332 L 12.3898 15.9756 C 12.3502 15.9374, 12.3304 15.8942, 12.3304 15.8461, 12.3304 15.8029, 12.3502 15.7525, 12.3898 15.6949, 12.7654 15.3495, 13.0533 14.9563, 13.2535 14.5146, 13.4536 14.0733, 13.5535 13.6077, 13.5535 13.1183, 13.5535 13.085, 13.5512 13.0481, 13.5463 13.0072, 13.5413 12.9667, 13.5386 12.9915, 13.5386 13.0823, 13.4595 13.1736, 13.2768 13.2191, 12.9903 13.2191, 12.7038 13.2191, 12.4865 13.1309, 12.3381 12.9532, 12.1896 12.776, 12.1154 12.579, 12.1154 12.3626, 12.1154 12.1471, 12.1896 11.9519, 12.3381 11.7765, 12.4865 11.6015, 12.7038 11.5138, 12.9903 11.5133, 13.2026 11.5138, 13.3758 11.5677, 13.509 11.6757, 13.6426 11.7837, 13.7487 11.9146, 13.8279 12.068, 13.9071 12.2218, 13.9624 12.3918, 13.9943 12.579, 14.0267 12.7661, 14.0425 12.946, 14.0425 13.1183 Z" stroke="none" fill="#000000" />
			<path d="M 26.753 5.59717 C 26.6693 5.94309, 26.5024 6.26696, 26.2528 6.56925, 26.0036 6.87153, 25.7157 7.12839, 25.3895 7.33891, 25.1327 7.51209, 24.8695 7.64884, 24.6001 7.7496, 24.3311 7.85036, 24.2357 7.89354, 24.3144 7.8787, 24.3001 7.8742, 24.4296 7.93583, 24.704 8.06268, 24.9784 8.18998, 25.2191 8.36362, 25.4264 8.58403, 25.6585 8.81974, 25.8169 9.10268, 25.9005 9.43331, 25.9401 9.59705, 25.9626 9.75764, 25.9676 9.91553, 25.9676 10.0982, 25.9406 10.288, 25.8857 10.4841, 25.7921 10.8539, 25.619 11.207, 25.367 11.5426, 25.1151 11.8786, 24.8138 12.171, 24.4629 12.4202, 24.0922 12.6892, 23.6982 12.892, 23.2807 13.0288, 22.8633 13.1655, 22.4472 13.2335, 22.032 13.2335 L 16.7249 13.2335 C 16.6512 13.2335, 16.5967 13.2119, 16.5621 13.1687, 16.5279 13.1354, 16.5104 13.0994, 16.5104 13.0607, 16.5104 13.0324, 16.5153 13.0036, 16.5252 12.9744 L 16.5544 12.8664 C 16.5841 12.7085, 16.6808 12.6316, 16.8437 12.6361, 17.0758 12.6365, 17.2935 12.6329, 17.4959 12.6257, 17.6988 12.6185, 17.8522 12.5934, 17.9557 12.5497, 18.0447 12.502, 18.1136 12.3725, 18.163 12.1611 L 20.2457 4.04976 C 20.2754 3.94449, 20.2903 3.86308, 20.2903 3.80505, 20.2903 3.74792, 20.2781 3.71418, 20.2529 3.70429, 20.1841 3.66155, 20.0496 3.63546, 19.8494 3.62557, 19.6493 3.61612, 19.4307 3.61117, 19.1931 3.61072, 19.1194 3.61117, 19.0649 3.58733, 19.0303 3.53875, 19.0006 3.51041, 18.9858 3.47442, 18.9858 3.43079, 18.9858 3.40245, 18.9934 3.37591, 19.0078 3.35162 L 19.0303 3.24366 C 19.0452 3.17709, 19.0811 3.12311, 19.1378 3.08217, 19.1945 3.04169, 19.2552 3.021, 19.3191 3.02055 L 24.233 3.02055 C 24.6383 3.021, 25.0211 3.08127, 25.3819 3.20093, 25.7427 3.32103, 26.0418 3.51041, 26.2789 3.76906, 26.511 4.00477, 26.6743 4.27827, 26.7678 4.58955, 26.8074 4.74834, 26.8272 4.90893, 26.8272 5.07177, 26.8272 5.24495, 26.8025 5.41993, 26.753 5.59717 Z M 25.2559 5.56838 C 25.3054 5.37675, 25.3302 5.18512, 25.3302 4.9926 L 25.3302 4.81986 C 25.3104 4.59, 25.2411 4.37633, 25.1223 4.17931, 25.0189 4.00207, 24.8817 3.86308, 24.7112 3.76231, 24.5412 3.66155, 24.3423 3.61117, 24.1147 3.61072 L 22.158 3.61072 C 21.8962 3.61117, 21.7455 3.62782, 21.7059 3.6611, 21.6465 3.70968, 21.5898 3.84868, 21.5354 4.07854 L 20.6164 7.69157, 22.6397 7.69157 C 22.9213 7.69202, 23.2007 7.63714, 23.4773 7.52648, 23.754 7.41628, 24.0185 7.26019, 24.2704 7.05821, 24.794 6.63627, 25.1228 6.13966, 25.2559 5.56838 Z M 24.3441 10.4409 C 24.4134 10.1967, 24.448 9.95421, 24.448 9.714 L 24.448 9.56286 C 24.4283 9.29476, 24.3567 9.04736, 24.233 8.82154, 24.1246 8.62542, 23.9775 8.46573, 23.7922 8.34337, 23.6069 8.22102, 23.3909 8.15984, 23.1435 8.15939 L 20.4828 8.15939, 19.4527 12.1899 C 19.4131 12.3536, 19.3933 12.471, 19.3933 12.5425, 19.3933 12.5812, 19.396 12.6028, 19.4005 12.6073, 19.4104 12.6221, 19.5391 12.6316, 19.786 12.6361 L 21.7653 12.6361 C 22.037 12.6365, 22.3114 12.5781, 22.588 12.4602, 22.8646 12.3428, 23.1188 12.1881, 23.3509 11.9955, 23.6082 11.7801, 23.8192 11.5381, 23.9847 11.2691, 24.1503 11.0005, 24.2704 10.7243, 24.3441 10.4409 Z" stroke="none" fill="#000000" />
			<rect />
		</svg>
	</g>
	<g transform="matrix(1 0 -0 1 5.64202 49.271)">
		<svg width="35.935379" height="38.9535408">
			<defs />
			<path d="M 9.17112 6.84949 C 9.14143 6.98444, 9.05506 7.05371, 8.91157 7.05821 L 8.74873 7.05821 C 8.63537 7.05866, 8.5733 7.00108, 8.5634 6.88548 L 8.5634 6.8279 C 8.61288 6.52606, 8.64032 6.23592, 8.64482 5.95703, 8.64482 5.79914, 8.63987 5.63855, 8.62997 5.47481, 8.58049 5.05287, 8.46939 4.67997, 8.29665 4.35609, 8.12392 4.03221, 7.89135 3.77311, 7.59986 3.57878, 7.30838 3.38446, 6.95211 3.28729, 6.53197 3.28684, 6.01827 3.28729, 5.50186 3.41235, 4.98276 3.66155, 4.46411 3.91121, 3.99449 4.24453, 3.57435 4.66152, 3.08493 5.15633, 2.70213 5.70333, 2.42548 6.30295, 2.14884 6.90302, 1.93112 7.51434, 1.77278 8.1378, 1.60005 8.77161, 1.50108 9.38563, 1.47634 9.9803 L 1.47634 10.1818 C 1.47634 10.7054, 1.58025 11.1827, 1.78762 11.6141, 1.98555 12.0225, 2.27434 12.3514, 2.65489 12.6006, 3.03545 12.8502, 3.48798 12.9748, 4.01158 12.9744, 4.43667 12.9748, 4.85411 12.8839, 5.26435 12.7013, 5.6746 12.5191, 6.05155 12.2731, 6.39522 11.9636, 6.73889 11.6541, 7.03893 11.2956, 7.29578 10.8876, 7.55308 10.4801, 7.73841 10.0478, 7.85177 9.59165, 7.88146 9.4576, 7.96828 9.39058, 8.11132 9.39013 L 8.27416 9.39013 C 8.39786 9.39058, 8.46444 9.44321, 8.47433 9.54847, 8.47433 9.5777, 8.46714 9.60424, 8.45229 9.62764, 8.31914 10.1557, 8.09918 10.6573, 7.79239 11.1323, 7.48606 11.6073, 7.1217 12.0239, 6.69886 12.381, 6.27647 12.7387, 5.81314 13.0238, 5.30889 13.2371, 4.80508 13.4507, 4.28597 13.5573, 3.75203 13.5573, 3.07009 13.5573, 2.46372 13.4147, 1.93247 13.1296, 1.40122 12.8444, 0.969835 12.4494, 0.638761 11.9452, 0.292842 11.4036, 0.0899694 10.8035, 0.0305918 10.1458, 0.0107995 9.96861, 0.000903189 9.78418, 0.000903189 9.59165, 0.000903189 9.10763, 0.0629796 8.61327, 0.186233 8.10901, 0.374261 7.40413, 0.672498 6.72399, 1.08004 6.06904, 1.48759 5.41409, 1.99769 4.81806, 2.61036 4.28007, 3.18884 3.7911, 3.81545 3.40245, 4.4902 3.11456, 5.16494 2.82667, 5.84058 2.68272, 6.51713 2.68227, 7.05602 2.68272, 7.5171 2.80148, 7.8999 3.03899, 8.28316 3.2765, 8.5661 3.56304, 8.74873 3.89861 L 9.7496 2.78304 C 9.78918 2.71646, 9.85576 2.68272, 9.94977 2.68227 L 10.0087 2.68227 C 10.1275 2.68272, 10.1868 2.7403, 10.1868 2.85501 L 10.1868 2.91259 Z" stroke="none" fill="#000000" />
			<rect />
		</svg>
	</g>
	<path d="M 0 96.9592 L 0 -96.9593" fill="none" stroke="#000000" stroke-width="1" stroke-linecap="round" stroke-linejoin="round" marker-end="url(#CustomMarker-06)" transform="matrix(1 0 0 1 133.649 164.634)" />
	<g transform="matrix(1 0 -0 1 140.128 67.128)">
		<svg width="32.9815331" height="38.9535408">
			<defs />
			<path d="M 9.7415 13.0175 C 9.68752 13.1615, 9.5935 13.2335, 9.45991 13.2335, 8.96599 13.2047, 8.47388 13.1903, 7.98447 13.1903 L 7.73976 13.1903 C 7.16173 13.2002, 6.581 13.2146, 5.99802 13.2335, 5.86487 13.2335, 5.7929 13.1714, 5.783 13.0463 L 5.783 12.9888, 5.81269 12.8664 C 5.85228 12.7085, 5.94854 12.6316, 6.10148 12.6361, 6.28456 12.6365, 6.44785 12.6307, 6.5909 12.6185, 6.73439 12.6069, 6.87294 12.5646, 7.00609 12.4921, 7.05557 12.4688, 7.09785 12.435, 7.13204 12.3914, 7.15183 12.3536, 7.16443 12.3149, 7.16893 12.2762 L 7.16893 12.233, 6.99124 9.84355, 3.64047 9.84355, 2.46192 11.8588 C 2.39759 11.9744, 2.3652 12.0801, 2.3652 12.1755, 2.3652 12.2573, 2.38994 12.332, 2.43942 12.3986, 2.54828 12.5574, 2.75116 12.6365, 3.04714 12.6361, 3.18074 12.6365, 3.25226 12.6941, 3.26216 12.8088, 3.26216 12.8381, 3.25721 12.8691, 3.24732 12.9024 L 3.21808 13.0175 C 3.16365 13.1615, 3.06738 13.2335, 2.92884 13.2335, 2.47451 13.2146, 2.02468 13.2002, 1.57935 13.1903 L 1.37963 13.1903 C 0.994123 13.1903, 0.603671 13.2047, 0.208272 13.2335, 0.13405 13.2335, 0.0796205 13.2096, 0.0449836 13.1615, 0.0152949 13.1332, 0.000450552 13.0994, 0.000450552 13.0607, 0.000450552 13.0324, 0.00539869 13.0036, 0.0152949 12.9744 L 0.0449836 12.8664 C 0.0845686 12.7085, 0.181282 12.6316, 0.334224 12.6361, 0.492564 12.6365, 0.648204 12.6199, 0.801146 12.5862, 0.954538 12.5529, 1.09803 12.4926, 1.23118 12.4062, 1.36478 12.3199, 1.48848 12.2155, 1.60184 12.0931, 1.71565 11.9708, 1.81686 11.8327, 1.90593 11.6789 L 7.13924 2.71826 C 7.2283 2.58421, 7.34211 2.51944, 7.48066 2.52393 L 7.62145 2.52393 C 7.77979 2.52438, 7.86841 2.59861, 7.8882 2.74705 L 8.54045 12.1251 C 8.55035 12.2501, 8.5652 12.3451, 8.58499 12.4098, 8.60478 12.4746, 8.63942 12.5214, 8.6889 12.5497, 8.75817 12.5934, 8.87288 12.6185, 9.03347 12.6257, 9.19451 12.6329, 9.37579 12.6365, 9.57821 12.6361, 9.71676 12.6365, 9.78603 12.6941, 9.78603 12.8088, 9.78603 12.8381, 9.78108 12.8691, 9.77119 12.9024 Z M 6.63543 4.74069 L 3.99628 9.26058, 6.94671 9.26058 Z" stroke="none" fill="#000000" />
			<rect />
		</svg>
	</g>
	<path d="M 42.5848 72.4481 L -42.5851 -72.4478" fill="none" stroke="#44E500" stroke-width="1" stroke-linecap="round" stroke-linejoin="round" marker-end="url(#CustomMarker-07)" transform="matrix(1 0 0 1 91.0646 189.145)" />
	<path d="M 44.1187 75.0552 L -44.1184 -75.0553" fill="none" stroke="#000000" stroke-width="0.5" stroke-linecap="round" stroke-linejoin="round" stroke-dasharray="1.7525, 1.2475" transform="matrix(1 0 0 1 177.768 142.73)" />
	<path d="M -44.1184 21.9038 L 44.1187 -21.9038" fill="none" stroke="#0006BF" stroke-width="1" stroke-linecap="round" stroke-linejoin="round" marker-end="url(#CustomMarker-08)" transform="matrix(1 0 0 1 177.768 239.689)" />
	<path d="M -42.5851 25.0319 L 42.5848 -25.0319" fill="none" stroke="#000000" stroke-width="0.5" stroke-linecap="round" stroke-linejoin="round" stroke-dasharray="1.7525, 1.2475" transform="matrix(1 0 0 1 91.0646 92.7065)" />
	<g transform="matrix(1 0 -0 1 33.0463 117.689)">
		<svg width="44.9446106" height="44.9458008">
			<defs />
			<path d="M 9.7415 13.0175 C 9.68752 13.1615, 9.5935 13.2335, 9.45991 13.2335, 8.96599 13.2047, 8.47388 13.1903, 7.98447 13.1903 L 7.73976 13.1903 C 7.16173 13.2002, 6.581 13.2146, 5.99802 13.2335, 5.86487 13.2335, 5.7929 13.1714, 5.783 13.0463 L 5.783 12.9888, 5.81269 12.8664 C 5.85228 12.7085, 5.94854 12.6316, 6.10148 12.6361, 6.28456 12.6365, 6.44785 12.6307, 6.5909 12.6185, 6.73439 12.6069, 6.87294 12.5646, 7.00609 12.4921, 7.05557 12.4688, 7.09785 12.435, 7.13204 12.3914, 7.15183 12.3536, 7.16443 12.3149, 7.16893 12.2762 L 7.16893 12.233, 6.99124 9.84355, 3.64047 9.84355, 2.46192 11.8588 C 2.39759 11.9744, 2.3652 12.0801, 2.3652 12.1755, 2.3652 12.2573, 2.38994 12.332, 2.43942 12.3986, 2.54828 12.5574, 2.75116 12.6365, 3.04714 12.6361, 3.18074 12.6365, 3.25226 12.6941, 3.26216 12.8088, 3.26216 12.8381, 3.25721 12.8691, 3.24732 12.9024 L 3.21808 13.0175 C 3.16365 13.1615, 3.06738 13.2335, 2.92884 13.2335, 2.47451 13.2146, 2.02468 13.2002, 1.57935 13.1903 L 1.37963 13.1903 C 0.994123 13.1903, 0.603671 13.2047, 0.208272 13.2335, 0.13405 13.2335, 0.0796205 13.2096, 0.0449836 13.1615, 0.0152949 13.1332, 0.000450552 13.0994, 0.000450552 13.0607, 0.000450552 13.0324, 0.00539869 13.0036, 0.0152949 12.9744 L 0.0449836 12.8664 C 0.0845686 12.7085, 0.181282 12.6316, 0.334224 12.6361, 0.492564 12.6365, 0.648204 12.6199, 0.801146 12.5862, 0.954538 12.5529, 1.09803 12.4926, 1.23118 12.4062, 1.36478 12.3199, 1.48848 12.2155, 1.60184 12.0931, 1.71565 11.9708, 1.81686 11.8327, 1.90593 11.6789 L 7.13924 2.71826 C 7.2283 2.58421, 7.34211 2.51944, 7.48066 2.52393 L 7.62145 2.52393 C 7.77979 2.52438, 7.86841 2.59861, 7.8882 2.74705 L 8.54045 12.1251 C 8.55035 12.2501, 8.5652 12.3451, 8.58499 12.4098, 8.60478 12.4746, 8.63942 12.5214, 8.6889 12.5497, 8.75817 12.5934, 8.87288 12.6185, 9.03347 12.6257, 9.19451 12.6329, 9.37579 12.6365, 9.57821 12.6361, 9.71676 12.6365, 9.78603 12.6941, 9.78603 12.8088, 9.78603 12.8381, 9.78108 12.8691, 9.77119 12.9024 Z M 6.63543 4.74069 L 3.99628 9.26058, 6.94671 9.26058 Z" stroke="none" fill="#000000" />
			<path d="M 1.90556 1.53666 C 1.92521 1.5558, 1.93478 1.57595, 1.93478 1.59711, 1.93478 1.62155, 1.9237 1.6485, 1.90153 1.67772, 1.68288 1.98152, 1.40427 2.21352, 1.06521 2.37323, 0.726147 2.53294, 0.38658 2.61279, 0.0462569 2.61279, -0.200105 2.61279, -0.40969 2.55108, -0.582496 2.42764, -0.755303 2.30421, -0.891583 2.15231, -0.991337 1.97195, -1.10217 1.75455, -1.16011 1.51802, -1.16565 1.26259, -1.1712 1.23588, -1.17397 1.20641, -1.17397 1.17391, -1.17397 0.94569, -1.14349 0.711922, -1.08278 0.472613, -1.02459 0.252449, -0.929116 0.0403454, -0.796363 -0.163949, -0.663357 -0.367991, -0.494582 -0.550874, -0.290035 -0.712345, -0.0990919 -0.868021, 0.109989 -0.989439, 0.336703 -1.07685, 0.563668 -1.16401, 0.787863 -1.20784, 1.00904 -1.20809, 1.14481 -1.20784, 1.27228 -1.18416, 1.39117 -1.13731, 1.51007 -1.0902, 1.60832 -1.02647, 1.68565 -0.94586, 1.76324 -0.865251, 1.81714 -0.768519, 1.84762 -0.655918, 1.85871 -0.60453, 1.864 -0.549614, 1.864 -0.490669, 1.864 -0.425929, 1.85594 -0.357411, 1.83931 -0.285115, 1.78692 -0.0644467, 1.67834 0.106848, 1.5136 0.229022, 1.34885 0.351447, 1.15993 0.440621, 0.946815 0.497048, 0.733704 0.553475, 0.508249 0.58723, 0.2702 0.59781, 0.0324022 0.608642, -0.180709 0.613932, -0.368881 0.61368, -0.426819 0.823516, -0.467124 1.03436, -0.489292 1.24646, -0.500375 1.31926, -0.505917 1.38904, -0.505917 1.45605, -0.505917 1.59056, -0.489292 1.71828, -0.45604 1.83894, -0.414476 1.98706, -0.348729 2.10873, -0.258799 2.20395, -0.168869 2.29942, -0.0519857 2.34703, 0.0918516 2.34678, 0.385068 2.34703, 0.671483 2.27197, 0.951097 2.12133, 1.23071 1.97094, 1.46297 1.76665, 1.64837 1.50844, 1.67054 1.47116, 1.70228 1.44824, 1.74384 1.43993 L 1.7645 1.43993 C 1.79775 1.44018, 1.8242 1.4495, 1.84334 1.46814 L 1.90556 1.53666 Z M 1.44483 -0.301237 C 1.46146 -0.365472, 1.46977 -0.423158, 1.46977 -0.474547, 1.46977 -0.581858, 1.43803 -0.675818, 1.3743 -0.75668, 1.28034 -0.877342, 1.14204 -0.937799, 0.95941 -0.938051, 0.818344 -0.937799, 0.676522 -0.902029, 0.533944 -0.830992, 0.391366 -0.759703, 0.26491 -0.662467, 0.154072 -0.539034, 0.0296313 -0.407037, -0.0678557 -0.261184, -0.138389 -0.101477, -0.208922 0.0584826, -0.265097 0.209625, -0.306661 0.351699, -0.126801 0.351951, 0.0648979 0.34389, 0.268185 0.327768, 0.471723 0.311646, 0.653598 0.280914, 0.814061 0.235068, 0.974524 0.189473, 1.11005 0.12297, 1.22089 0.0355592, 1.33172 -0.0515995, 1.40629 -0.163949, 1.44483 -0.301237 Z" stroke="none" fill="#000000" transform="matrix(1.12 0 0 1 11.7261 12.8121)" />
			<rect />
		</svg>
	</g>
	<g transform="matrix(1 0 -0 1 222.342 216.927)">
		<svg width="48.0461464" height="44.9458008">
			<defs />
			<path d="M 9.7415 13.0175 C 9.68752 13.1615, 9.5935 13.2335, 9.45991 13.2335, 8.96599 13.2047, 8.47388 13.1903, 7.98447 13.1903 L 7.73976 13.1903 C 7.16173 13.2002, 6.581 13.2146, 5.99802 13.2335, 5.86487 13.2335, 5.7929 13.1714, 5.783 13.0463 L 5.783 12.9888, 5.81269 12.8664 C 5.85228 12.7085, 5.94854 12.6316, 6.10148 12.6361, 6.28456 12.6365, 6.44785 12.6307, 6.5909 12.6185, 6.73439 12.6069, 6.87294 12.5646, 7.00609 12.4921, 7.05557 12.4688, 7.09785 12.435, 7.13204 12.3914, 7.15183 12.3536, 7.16443 12.3149, 7.16893 12.2762 L 7.16893 12.233, 6.99124 9.84355, 3.64047 9.84355, 2.46192 11.8588 C 2.39759 11.9744, 2.3652 12.0801, 2.3652 12.1755, 2.3652 12.2573, 2.38994 12.332, 2.43942 12.3986, 2.54828 12.5574, 2.75116 12.6365, 3.04714 12.6361, 3.18074 12.6365, 3.25226 12.6941, 3.26216 12.8088, 3.26216 12.8381, 3.25721 12.8691, 3.24732 12.9024 L 3.21808 13.0175 C 3.16365 13.1615, 3.06738 13.2335, 2.92884 13.2335, 2.47451 13.2146, 2.02468 13.2002, 1.57935 13.1903 L 1.37963 13.1903 C 0.994123 13.1903, 0.603671 13.2047, 0.208272 13.2335, 0.13405 13.2335, 0.0796205 13.2096, 0.0449836 13.1615, 0.0152949 13.1332, 0.000450552 13.0994, 0.000450552 13.0607, 0.000450552 13.0324, 0.00539869 13.0036, 0.0152949 12.9744 L 0.0449836 12.8664 C 0.0845686 12.7085, 0.181282 12.6316, 0.334224 12.6361, 0.492564 12.6365, 0.648204 12.6199, 0.801146 12.5862, 0.954538 12.5529, 1.09803 12.4926, 1.23118 12.4062, 1.36478 12.3199, 1.48848 12.2155, 1.60184 12.0931, 1.71565 11.9708, 1.81686 11.8327, 1.90593 11.6789 L 7.13924 2.71826 C 7.2283 2.58421, 7.34211 2.51944, 7.48066 2.52393 L 7.62145 2.52393 C 7.77979 2.52438, 7.86841 2.59861, 7.8882 2.74705 L 8.54045 12.1251 C 8.55035 12.2501, 8.5652 12.3451, 8.58499 12.4098, 8.60478 12.4746, 8.63942 12.5214, 8.6889 12.5497, 8.75817 12.5934, 8.87288 12.6185, 9.03347 12.6257, 9.19451 12.6329, 9.37579 12.6365, 9.57821 12.6361, 9.71676 12.6365, 9.78603 12.6941, 9.78603 12.8088, 9.78603 12.8381, 9.78108 12.8691, 9.77119 12.9024 Z M 6.63543 4.74069 L 3.99628 9.26058, 6.94671 9.26058 Z" stroke="none" fill="#000000" />
			<path d="M 1.97761 0.714441 C 1.91413 0.956522, 1.81362 1.1918, 1.67658 1.42003, 1.53955 1.6485, 1.36472 1.85658, 1.15161 2.0445, 0.96067 2.21126, 0.750581 2.34779, 0.520845 2.45384, 0.291108 2.55989, 0.0601118 2.61279, -0.172396 2.61279, -0.413216 2.61279, -0.622045 2.55989, -0.799134 2.45384, -0.976223 2.34779, -1.11603 2.20874, -1.2183 2.03644, -1.33443 1.84322, -1.40093 1.63238, -1.41756 1.40365, -1.4231 1.34748, -1.42587 1.29105, -1.42587 1.23437, -1.42587 1.06257, -1.4037 0.883973, -1.35962 0.69832, -1.29312 0.451453, -1.19135 0.213656, -1.05431 -0.0148215, -0.917277 -0.243047, -0.745226 -0.452883, -0.537657 -0.643827, -0.346714 -0.810083, -0.135618 -0.94586, 0.0953784 -1.05065, 0.326375 -1.15544, 0.558127 -1.20784, 0.790382 -1.20809, 1.02566 -1.20784, 1.23273 -1.15469, 1.41107 -1.04864, 1.58942 -0.942333, 1.73276 -0.804793, 1.84057 -0.635766, 1.95695 -0.442051, 2.02597 -0.228436, 2.04814 0.00507879 L 2.04814 0.170328 C 2.04814 0.350692, 2.02471 0.532063, 1.97761 0.714441 Z M 1.31334 -0.494699 C 1.26925 -0.626193, 1.19796 -0.732749, 1.09972 -0.81487, 1.00148 -0.896739, 0.881823 -0.937799, 0.740757 -0.938051, 0.602462 -0.937799, 0.46064 -0.895479, 0.315291 -0.810839, 0.170194 -0.726199, 0.0422266 -0.616621, -0.0686114 -0.482608, -0.217991 -0.307786, -0.332103 -0.118858, -0.410949 0.083925, -0.489795 0.28696, -0.557054 0.497048, -0.612473 0.714441, -0.66764 0.929568, -0.710464 1.13789, -0.741196 1.33916, -0.75228 1.4039, -0.757822 1.46436, -0.757822 1.52054, -0.757822 1.65253, -0.735654 1.77874, -0.691319 1.8994, -0.649755 2.03392, -0.579977 2.14224, -0.481734 2.2241, -0.383492 2.30622, -0.265097 2.34703, -0.126801 2.34678, 0.017288 2.34703, 0.161881 2.30471, 0.306978 2.22007, 0.452327 2.13543, 0.578783 2.0246, 0.686598 1.88731, 0.836229 1.71299, 0.950342 1.52431, 1.02919 1.32128, 1.10803 1.1185, 1.17655 0.910927, 1.23449 0.69832, 1.28991 0.478155, 1.33147 0.26454, 1.35918 0.0574749, 1.37027 -0.0039897, 1.37556 -0.0631871, 1.37556 -0.119866, 1.37556 -0.25136, 1.3549 -0.376304, 1.31334 -0.494699 Z" stroke="none" fill="#000000" transform="matrix(1.12 0 0 1 11.9767 12.8121)" />
			<rect />
		</svg>
	</g>
	<path d="M -42.3577 0 L 42.3575 0" fill="none" stroke="#000000" stroke-width="0.5" stroke-linecap="round" stroke-linejoin="round" stroke-dasharray="1.7525, 1.2475" transform="matrix(1 0 0 1 91.2919 117.471)" />
	<path d="M -44.1184 0 L 44.1187 0" fill="none" stroke="#000000" stroke-width="0.5" stroke-linecap="round" stroke-linejoin="round" stroke-dasharray="1.7525, 1.2475" transform="matrix(1 0 0 1 177.768 217.785)" />
	<path d="M 0 71.6203 L 0 -71.6204" fill="none" stroke="#44E500" stroke-width="1" stroke-linecap="round" stroke-linejoin="round" marker-end="url(#CustomMarker-09)" transform="matrix(1 0 0 1 133.649 189.359)" />
	<path d="M 0 21.9038 L 0 -21.9038" fill="none" stroke="#0006BF" stroke-width="1" stroke-linecap="round" stroke-linejoin="round" marker-end="url(#CustomMarker-10)" transform="matrix(1 0 0 1 133.649 239.689)" />
	<g transform="matrix(1 0 -0 1 107.886 119.255)">
		<svg width="62.9630699" height="44.9458008">
			<defs />
			<path d="M 9.7415 13.0175 C 9.68752 13.1615, 9.5935 13.2335, 9.45991 13.2335, 8.96599 13.2047, 8.47388 13.1903, 7.98447 13.1903 L 7.73976 13.1903 C 7.16173 13.2002, 6.581 13.2146, 5.99802 13.2335, 5.86487 13.2335, 5.7929 13.1714, 5.783 13.0463 L 5.783 12.9888, 5.81269 12.8664 C 5.85228 12.7085, 5.94854 12.6316, 6.10148 12.6361, 6.28456 12.6365, 6.44785 12.6307, 6.5909 12.6185, 6.73439 12.6069, 6.87294 12.5646, 7.00609 12.4921, 7.05557 12.4688, 7.09785 12.435, 7.13204 12.3914, 7.15183 12.3536, 7.16443 12.3149, 7.16893 12.2762 L 7.16893 12.233, 6.99124 9.84355, 3.64047 9.84355, 2.46192 11.8588 C 2.39759 11.9744, 2.3652 12.0801, 2.3652 12.1755, 2.3652 12.2573, 2.38994 12.332, 2.43942 12.3986, 2.54828 12.5574, 2.75116 12.6365, 3.04714 12.6361, 3.18074 12.6365, 3.25226 12.6941, 3.26216 12.8088, 3.26216 12.8381, 3.25721 12.8691, 3.24732 12.9024 L 3.21808 13.0175 C 3.16365 13.1615, 3.06738 13.2335, 2.92884 13.2335, 2.47451 13.2146, 2.02468 13.2002, 1.57935 13.1903 L 1.37963 13.1903 C 0.994123 13.1903, 0.603671 13.2047, 0.208272 13.2335, 0.13405 13.2335, 0.0796205 13.2096, 0.0449836 13.1615, 0.0152949 13.1332, 0.000450552 13.0994, 0.000450552 13.0607, 0.000450552 13.0324, 0.00539869 13.0036, 0.0152949 12.9744 L 0.0449836 12.8664 C 0.0845686 12.7085, 0.181282 12.6316, 0.334224 12.6361, 0.492564 12.6365, 0.648204 12.6199, 0.801146 12.5862, 0.954538 12.5529, 1.09803 12.4926, 1.23118 12.4062, 1.36478 12.3199, 1.48848 12.2155, 1.60184 12.0931, 1.71565 11.9708, 1.81686 11.8327, 1.90593 11.6789 L 7.13924 2.71826 C 7.2283 2.58421, 7.34211 2.51944, 7.48066 2.52393 L 7.62145 2.52393 C 7.77979 2.52438, 7.86841 2.59861, 7.8882 2.74705 L 8.54045 12.1251 C 8.55035 12.2501, 8.5652 12.3451, 8.58499 12.4098, 8.60478 12.4746, 8.63942 12.5214, 8.6889 12.5497, 8.75817 12.5934, 8.87288 12.6185, 9.03347 12.6257, 9.19451 12.6329, 9.37579 12.6365, 9.57821 12.6361, 9.71676 12.6365, 9.78603 12.6941, 9.78603 12.8088, 9.78603 12.8381, 9.78108 12.8691, 9.77119 12.9024 Z M 6.63543 4.74069 L 3.99628 9.26058, 6.94671 9.26058 Z" stroke="none" fill="#000000" />
			<path d="M 1.90409 1.53666 C 1.92374 1.5558, 1.93331 1.57595, 1.93331 1.59711, 1.93331 1.62155, 1.92223 1.6485, 1.90006 1.67772, 1.6814 1.98152, 1.4028 2.21352, 1.06374 2.37323, 0.724672 2.53294, 0.385105 2.61279, 0.0447824 2.61279, -0.20158 2.61279, -0.411164 2.55108, -0.583971 2.42764, -0.756777 2.30421, -0.893057 2.15231, -0.992811 1.97195, -1.10365 1.75455, -1.16159 1.51802, -1.16713 1.26259, -1.17267 1.23588, -1.17544 1.20641, -1.17544 1.17391, -1.17544 0.94569, -1.14496 0.711922, -1.08425 0.472613, -1.02606 0.252449, -0.930591 0.0403454, -0.797837 -0.163949, -0.664832 -0.367991, -0.496056 -0.550874, -0.29151 -0.712345, -0.100566 -0.868021, 0.108514 -0.989439, 0.335228 -1.07685, 0.562194 -1.16401, 0.786389 -1.20784, 1.00756 -1.20809, 1.14334 -1.20784, 1.2708 -1.18416, 1.3897 -1.13731, 1.5086 -1.0902, 1.60684 -1.02647, 1.68418 -0.94586, 1.76176 -0.865251, 1.81567 -0.768519, 1.84615 -0.655918, 1.85723 -0.60453, 1.86252 -0.549614, 1.86252 -0.490669, 1.86252 -0.425929, 1.85446 -0.357411, 1.83784 -0.285115, 1.78544 -0.0644467, 1.67687 0.106848, 1.51212 0.229022, 1.34738 0.351447, 1.15845 0.440621, 0.94534 0.497048, 0.732229 0.553475, 0.506775 0.58723, 0.268725 0.59781, 0.0309277 0.608642, -0.182183 0.613932, -0.370356 0.61368, -0.428294 0.823516, -0.468599 1.03436, -0.490766 1.24646, -0.50185 1.31926, -0.507392 1.38904, -0.507392 1.45605, -0.507392 1.59056, -0.490766 1.71828, -0.457515 1.83894, -0.415951 1.98706, -0.350204 2.10873, -0.260274 2.20395, -0.170344 2.29942, -0.0534602 2.34703, 0.0903771 2.34678, 0.383594 2.34703, 0.670009 2.27197, 0.949623 2.12133, 1.22924 1.97094, 1.46149 1.76665, 1.64689 1.50844, 1.66906 1.47116, 1.7008 1.44824, 1.74237 1.43993 L 1.76302 1.43993 C 1.79627 1.44018, 1.82272 1.4495, 1.84187 1.46814 L 1.90409 1.53666 Z M 1.44335 -0.301237 C 1.45998 -0.365472, 1.46829 -0.423158, 1.46829 -0.474547, 1.46829 -0.581858, 1.43655 -0.675818, 1.37282 -0.75668, 1.27886 -0.877342, 1.14057 -0.937799, 0.957935 -0.938051, 0.816869 -0.937799, 0.675047 -0.902029, 0.532469 -0.830992, 0.389891 -0.759703, 0.263435 -0.662467, 0.152597 -0.539034, 0.0281568 -0.407037, -0.0693302 -0.261184, -0.139863 -0.101477, -0.210397 0.0584826, -0.266571 0.209625, -0.308136 0.351699, -0.128276 0.351951, 0.0634234 0.34389, 0.26671 0.327768, 0.470249 0.311646, 0.652124 0.280914, 0.812587 0.235068, 0.97305 0.189473, 1.10857 0.12297, 1.21941 0.0355592, 1.33025 -0.0515995, 1.40481 -0.163949, 1.44335 -0.301237 Z" stroke="none" fill="#000000" transform="matrix(1.12 0 0 1 11.7261 12.8121)" />
			<path d="M 1.87888 2.51203 L -1.49966 2.51203, -1.49966 2.29035 C -1.49966 2.27448, -1.49135 2.2503, -1.47472 2.21781 L -0.117461 0.742655 C 0.0432544 0.565566, 0.205733 0.384195, 0.370478 0.198793, 0.535223 0.0133917, 0.682336 -0.17604, 0.812318 -0.369503, 0.942301 -0.562965, 1.04609 -0.762474, 1.12367 -0.968027, 1.20126 -1.17358, 1.2398 -1.38921, 1.2398 -1.61517, 1.2398 -1.80561, 1.21511 -1.98371, 1.16524 -2.14895, 1.11536 -2.3142, 1.04357 -2.4593, 0.949354 -2.58425, 0.855142 -2.70919, 0.737503 -2.80995, 0.596436 -2.88653, 0.45537 -2.96311, 0.292136 -3.0014, 0.106734 -3.00165, -0.169857 -3.0014, -0.414204 -2.91877, -0.625803 -2.75353, -0.837403 -2.58828, -0.977966 -2.40615, -1.04724 -2.20765, -1.06084 -2.20211, -1.03867 -2.19934, -0.980737 -2.19959 L -0.910203 -2.19959 C -0.827075 -2.18044, -0.755282 -2.15147, -0.694322 -2.11268, -0.633361 -2.07364, -0.582224 -2.01998, -0.54066 -1.95146, -0.499096 -1.88294, -0.478439 -1.80032, -0.478439 -1.70384, -0.478439 -1.54237, -0.530836 -1.41868, -0.636132 -1.33278, -0.741428 -1.24663, -0.859067 -1.20381, -0.989049 -1.20406, -1.11349 -1.20381, -1.22962 -1.24663, -1.33769 -1.33278, -1.4455 -1.41868, -1.49966 -1.54237, -1.49966 -1.70384, -1.49966 -1.92929, -1.45532 -2.14291, -1.36665 -2.34443, -1.27798 -2.54596, -1.15783 -2.72053, -1.00568 -2.86839, -0.853525 -3.01601, -0.673665 -3.13289, -0.466096 -3.21904, -0.258527 -3.30494, -0.0383626 -3.34802, 0.193893 -3.34827, 0.481568 -3.34802, 0.745311 -3.3057, 0.984621 -3.22106, 1.22393 -3.13642, 1.42797 -3.01475, 1.59675 -2.8563, 1.76552 -2.6976, 1.89777 -2.51422, 1.99325 -2.30614, 2.08872 -2.09782, 2.13633 -1.86758, 2.13633 -1.61517, 2.13633 -1.33556, 2.07285 -1.07811, 1.94538 -0.843083, 1.81817 -0.607804, 1.66048 -0.392174, 1.47231 -0.196193, 1.28413 4.07696e-005, 1.08412 0.184687, 0.872523 0.357997, 0.660924 0.531307, 0.469224 0.699831, 0.297678 0.863569 L -0.65704 1.76236, 0.592406 1.76236 C 0.766723 1.76262, 0.929454 1.76136, 1.08009 1.75858, 1.23098 1.75607, 1.35895 1.75052, 1.46399 1.74246, 1.56929 1.7344, 1.6232 1.72911, 1.62572 1.72609, 1.64788 1.70745, 1.66879 1.66991, 1.68819 1.61349, 1.70759 1.55706, 1.72547 1.49056, 1.7421 1.41398, 1.75872 1.3374, 1.77535 1.25956, 1.79197 1.18021, 1.8086 1.10111, 1.82371 1.01421, 1.83757 0.919995 L 2.14464 0.919995 Z" stroke="none" fill="#000000" transform="matrix(1.12 0 0 1 17.0089 12.8121)" />
			<rect />
		</svg>
	</g>
	<g transform="matrix(1 0 -0 1 138.669 219.684)">
		<svg width="62.9630699" height="44.9458008">
			<defs />
			<path d="M 9.7415 13.0175 C 9.68752 13.1615, 9.5935 13.2335, 9.45991 13.2335, 8.96599 13.2047, 8.47388 13.1903, 7.98447 13.1903 L 7.73976 13.1903 C 7.16173 13.2002, 6.581 13.2146, 5.99802 13.2335, 5.86487 13.2335, 5.7929 13.1714, 5.783 13.0463 L 5.783 12.9888, 5.81269 12.8664 C 5.85228 12.7085, 5.94854 12.6316, 6.10148 12.6361, 6.28456 12.6365, 6.44785 12.6307, 6.5909 12.6185, 6.73439 12.6069, 6.87294 12.5646, 7.00609 12.4921, 7.05557 12.4688, 7.09785 12.435, 7.13204 12.3914, 7.15183 12.3536, 7.16443 12.3149, 7.16893 12.2762 L 7.16893 12.233, 6.99124 9.84355, 3.64047 9.84355, 2.46192 11.8588 C 2.39759 11.9744, 2.3652 12.0801, 2.3652 12.1755, 2.3652 12.2573, 2.38994 12.332, 2.43942 12.3986, 2.54828 12.5574, 2.75116 12.6365, 3.04714 12.6361, 3.18074 12.6365, 3.25226 12.6941, 3.26216 12.8088, 3.26216 12.8381, 3.25721 12.8691, 3.24732 12.9024 L 3.21808 13.0175 C 3.16365 13.1615, 3.06738 13.2335, 2.92884 13.2335, 2.47451 13.2146, 2.02468 13.2002, 1.57935 13.1903 L 1.37963 13.1903 C 0.994123 13.1903, 0.603671 13.2047, 0.208272 13.2335, 0.13405 13.2335, 0.0796205 13.2096, 0.0449836 13.1615, 0.0152949 13.1332, 0.000450552 13.0994, 0.000450552 13.0607, 0.000450552 13.0324, 0.00539869 13.0036, 0.0152949 12.9744 L 0.0449836 12.8664 C 0.0845686 12.7085, 0.181282 12.6316, 0.334224 12.6361, 0.492564 12.6365, 0.648204 12.6199, 0.801146 12.5862, 0.954538 12.5529, 1.09803 12.4926, 1.23118 12.4062, 1.36478 12.3199, 1.48848 12.2155, 1.60184 12.0931, 1.71565 11.9708, 1.81686 11.8327, 1.90593 11.6789 L 7.13924 2.71826 C 7.2283 2.58421, 7.34211 2.51944, 7.48066 2.52393 L 7.62145 2.52393 C 7.77979 2.52438, 7.86841 2.59861, 7.8882 2.74705 L 8.54045 12.1251 C 8.55035 12.2501, 8.5652 12.3451, 8.58499 12.4098, 8.60478 12.4746, 8.63942 12.5214, 8.6889 12.5497, 8.75817 12.5934, 8.87288 12.6185, 9.03347 12.6257, 9.19451 12.6329, 9.37579 12.6365, 9.57821 12.6361, 9.71676 12.6365, 9.78603 12.6941, 9.78603 12.8088, 9.78603 12.8381, 9.78108 12.8691, 9.77119 12.9024 Z M 6.63543 4.74069 L 3.99628 9.26058, 6.94671 9.26058 Z" stroke="none" fill="#000000" />
			<path d="M 1.98063 0.714441 C 1.91715 0.956522, 1.81664 1.1918, 1.6796 1.42003, 1.54257 1.6485, 1.36774 1.85658, 1.15463 2.0445, 0.96369 2.21126, 0.753602 2.34779, 0.523865 2.45384, 0.294128 2.55989, 0.0631319 2.61279, -0.169376 2.61279, -0.410196 2.61279, -0.619025 2.55989, -0.796114 2.45384, -0.973202 2.34779, -1.11301 2.20874, -1.21528 2.03644, -1.33141 1.84322, -1.39791 1.63238, -1.41454 1.40365, -1.42008 1.34748, -1.42285 1.29105, -1.42285 1.23437, -1.42285 1.06257, -1.40068 0.883973, -1.3566 0.69832, -1.2901 0.451453, -1.18833 0.213656, -1.05129 -0.0148215, -0.914257 -0.243047, -0.742206 -0.452883, -0.534637 -0.643827, -0.343693 -0.810083, -0.132598 -0.94586, 0.0983986 -1.05065, 0.329395 -1.15544, 0.561147 -1.20784, 0.793402 -1.20809, 1.02868 -1.20784, 1.23575 -1.15469, 1.41409 -1.04864, 1.59244 -0.942333, 1.73578 -0.804793, 1.84359 -0.635766, 1.95997 -0.442051, 2.02899 -0.228436, 2.05116 0.00507879 L 2.05116 0.170328 C 2.05116 0.350692, 2.02773 0.532063, 1.98063 0.714441 Z M 1.31636 -0.494699 C 1.27227 -0.626193, 1.20098 -0.732749, 1.10274 -0.81487, 1.0045 -0.896739, 0.884844 -0.937799, 0.743777 -0.938051, 0.605482 -0.937799, 0.46366 -0.895479, 0.318311 -0.810839, 0.173214 -0.726199, 0.0452467 -0.616621, -0.0655912 -0.482608, -0.21497 -0.307786, -0.329083 -0.118858, -0.407929 0.083925, -0.486775 0.28696, -0.554034 0.497048, -0.609453 0.714441, -0.66462 0.929568, -0.707443 1.13789, -0.738176 1.33916, -0.749259 1.4039, -0.754801 1.46436, -0.754801 1.52054, -0.754801 1.65253, -0.732634 1.77874, -0.688299 1.8994, -0.646734 2.03392, -0.576957 2.14224, -0.478714 2.2241, -0.380472 2.30622, -0.262076 2.34703, -0.123781 2.34678, 0.0203081 2.34703, 0.164901 2.30471, 0.309998 2.22007, 0.455347 2.13543, 0.581803 2.0246, 0.689618 1.88731, 0.839249 1.71299, 0.953362 1.52431, 1.03221 1.32128, 1.11105 1.1185, 1.17957 0.910927, 1.23751 0.69832, 1.29293 0.478155, 1.33449 0.26454, 1.3622 0.0574749, 1.37329 -0.0039897, 1.37858 -0.0631871, 1.37858 -0.119866, 1.37858 -0.25136, 1.35792 -0.376304, 1.31636 -0.494699 Z" stroke="none" fill="#000000" transform="matrix(1.12 0 0 1 11.9767 12.8121)" />
			<path d="M 1.87888 2.51203 L -1.49966 2.51203, -1.49966 2.29035 C -1.49966 2.27448, -1.49135 2.2503, -1.47472 2.21781 L -0.117461 0.742655 C 0.0432544 0.565566, 0.205733 0.384195, 0.370478 0.198793, 0.535223 0.0133917, 0.682336 -0.17604, 0.812318 -0.369503, 0.942301 -0.562965, 1.04609 -0.762474, 1.12367 -0.968027, 1.20126 -1.17358, 1.2398 -1.38921, 1.2398 -1.61517, 1.2398 -1.80561, 1.21511 -1.98371, 1.16524 -2.14895, 1.11536 -2.3142, 1.04357 -2.4593, 0.949354 -2.58425, 0.855142 -2.70919, 0.737503 -2.80995, 0.596436 -2.88653, 0.45537 -2.96311, 0.292136 -3.0014, 0.106734 -3.00165, -0.169857 -3.0014, -0.414204 -2.91877, -0.625803 -2.75353, -0.837403 -2.58828, -0.977966 -2.40615, -1.04724 -2.20765, -1.06084 -2.20211, -1.03867 -2.19934, -0.980737 -2.19959 L -0.910203 -2.19959 C -0.827075 -2.18044, -0.755282 -2.15147, -0.694322 -2.11268, -0.633361 -2.07364, -0.582224 -2.01998, -0.54066 -1.95146, -0.499096 -1.88294, -0.478439 -1.80032, -0.478439 -1.70384, -0.478439 -1.54237, -0.530836 -1.41868, -0.636132 -1.33278, -0.741428 -1.24663, -0.859067 -1.20381, -0.989049 -1.20406, -1.11349 -1.20381, -1.22962 -1.24663, -1.33769 -1.33278, -1.4455 -1.41868, -1.49966 -1.54237, -1.49966 -1.70384, -1.49966 -1.92929, -1.45532 -2.14291, -1.36665 -2.34443, -1.27798 -2.54596, -1.15783 -2.72053, -1.00568 -2.86839, -0.853525 -3.01601, -0.673665 -3.13289, -0.466096 -3.21904, -0.258527 -3.30494, -0.0383626 -3.34802, 0.193893 -3.34827, 0.481568 -3.34802, 0.745311 -3.3057, 0.984621 -3.22106, 1.22393 -3.13642, 1.42797 -3.01475, 1.59675 -2.8563, 1.76552 -2.6976, 1.89777 -2.51422, 1.99325 -2.30614, 2.08872 -2.09782, 2.13633 -1.86758, 2.13633 -1.61517, 2.13633 -1.33556, 2.07285 -1.07811, 1.94538 -0.843083, 1.81817 -0.607804, 1.66048 -0.392174, 1.47231 -0.196193, 1.28413 4.07696e-005, 1.08412 0.184687, 0.872523 0.357997, 0.660924 0.531307, 0.469224 0.699831, 0.297678 0.863569 L -0.65704 1.76236, 0.592406 1.76236 C 0.766723 1.76262, 0.929454 1.76136, 1.08009 1.75858, 1.23098 1.75607, 1.35895 1.75052, 1.46399 1.74246, 1.56929 1.7344, 1.6232 1.72911, 1.62572 1.72609, 1.64788 1.70745, 1.66879 1.66991, 1.68819 1.61349, 1.70759 1.55706, 1.72547 1.49056, 1.7421 1.41398, 1.75872 1.3374, 1.77535 1.25956, 1.79197 1.18021, 1.8086 1.10111, 1.82371 1.01421, 1.83757 0.919995 L 2.14464 0.919995 Z" stroke="none" fill="#000000" transform="matrix(1.12 0 0 1 17.501 12.8121)" />
			<rect />
		</svg>
	</g>
</svg>
