<?xml version="1.0"?>
<svg xmlns="http://www.w3.org/2000/svg" xmlns:xlink="http://www.w3.org/1999/xlink" width="656.915771" height="248.250092">
	<defs>
		<marker id="CustomMarker-01" markerUnits="strokeWidth" markerWidth="15.000001" markerHeight="9" viewBox="-15 -4.5 15 9" orient="auto-start-reverse">
			<path d="M 0 -0 L -10 -3, -8 -0.5, -8 0.5, -10 3 Z" fill="#FF2A00" stroke="#FF2A00" stroke-linejoin="round" />
		</marker>
		<marker id="CustomMarker-02" markerUnits="strokeWidth" markerWidth="15.000001" markerHeight="9" viewBox="-15 -4.5 15 9" orient="auto-start-reverse">
			<path d="M 0 -0 L -10 -3, -8 -0.5, -8 0.5, -10 3 Z" fill="#0006BF" stroke="#0006BF" stroke-linejoin="round" />
		</marker>
		<marker id="CustomMarker-03" markerUnits="strokeWidth" markerWidth="15.000001" markerHeight="9" viewBox="-15 -4.5 15 9" orient="auto-start-reverse">
			<path d="M 0 -0 L -10 -3, -8 -0.5, -8 0.5, -10 3 Z" fill="#000000" stroke="#000000" stroke-linejoin="round" />
		</marker>
		<marker id="CustomMarker-04" markerUnits="strokeWidth" markerWidth="15.000001" markerHeight="9" viewBox="-15 -4.5 15 9" orient="auto-start-reverse">
			<path d="M 0 -0 L -10 -3, -8 -0.5, -8 0.5, -10 3 Z" fill="#000000" stroke="#000000" stroke-linejoin="round" />
		</marker>
		<marker id="CustomMarker-05" markerUnits="strokeWidth" markerWidth="15.000001" markerHeight="9" viewBox="-15 -4.5 15 9" orient="auto-start-reverse">
			<path d="M 0 -0 L -10 -3, -8 -0.5, -8 0.5, -10 3 Z" fill="#FF2A00" stroke="#FF2A00" stroke-linejoin="round" />
		</marker>
		<marker id="CustomMarker-06" markerUnits="strokeWidth" markerWidth="15.000001" markerHeight="9" viewBox="-15 -4.5 15 9" orient="auto-start-reverse">
			<path d="M 0 -0 L -10 -3, -8 -0.5, -8 0.5, -10 3 Z" fill="#0006BF" stroke="#0006BF" stroke-linejoin="round" />
		</marker>
	</defs>
	<rect x="-0" y="-0" width="656.915771" height="248.250092" stroke="none" fill="#FFFFFF" />
	<path d="M 124.822 97.7433 C 93.0025 138.378, 11.3227 127.558, -57.6147 73.5763, -126.552 19.5941, -156.642 -57.1083, -124.822 -97.7433, -93.0025 -138.378, -11.3227 -127.558, 57.6147 -73.5763, 126.552 -19.5941, 156.642 57.1083, 124.822 97.7433 Z" stroke="none" fill="#0006BF" fill-opacity="0.199999988" transform="matrix(0.5 0 0 0.5 242.944 131.911)" />
	<path d="M 124.822 97.7433 C 93.0025 138.378, 11.3227 127.558, -57.6147 73.5763, -126.552 19.5941, -156.642 -57.1083, -124.822 -97.7433, -93.0025 -138.378, -11.3227 -127.558, 57.6147 -73.5763, 126.552 -19.5941, 156.642 57.1083, 124.822 97.7433 Z" fill="none" stroke="#000000" stroke-width="2" stroke-linecap="round" stroke-linejoin="round" transform="matrix(0.5 0 0 0.5 242.944 131.911)" />
	<path d="M -624.445 0 L 624.444 0" fill="none" stroke="#000000" stroke-width="4" stroke-linecap="round" stroke-linejoin="round" transform="matrix(0.5 0 0 0.5 335.194 131.911)" />
	<path d="M 84.4445 -107.839 L -84.4447 107.839" fill="none" stroke="#44E500" stroke-width="2" stroke-linecap="round" stroke-linejoin="round" stroke-dasharray="7.01, 4.99" transform="matrix(0.5 0 0 0.5 50.7224 185.83)" />
	<path d="M 93.4562 -0 C 93.4562 51.6144, 51.6144 93.4562, -0 93.4562, -51.6145 93.4562, -93.4562 51.6144, -93.4562 -0, -93.4562 -51.6145, -51.6145 -93.4562, -0 -93.4562, 51.6144 -93.4562, 93.4562 -51.6145, 93.4562 -0 Z" stroke="none" fill="#FF2A00" fill-opacity="0.188235283" transform="matrix(0.5 0 0 0.5 242.944 131.911)" />
	<path d="M 93.4562 -0 C 93.4562 51.6144, 51.6144 93.4562, -0 93.4562, -51.6145 93.4562, -93.4562 51.6144, -93.4562 -0, -93.4562 -51.6145, -51.6145 -93.4562, -0 -93.4562, 51.6144 -93.4562, 93.4562 -51.6145, 93.4562 -0 Z" fill="none" stroke="#000000" stroke-width="2" stroke-linecap="round" stroke-linejoin="round" transform="matrix(0.5 0 0 0.5 242.944 131.911)" />
	<path d="M 150.668 -192.41 L -150.668 192.41" fill="none" stroke="#44E500" stroke-width="2" stroke-linecap="round" stroke-linejoin="round" stroke-dasharray="7.01, 4.99" transform="matrix(0.5 0 0 0.5 233.14 143.545)" />
	<path d="M 0 -102.761 L 0 102.76" fill="none" stroke="#FF2A00" stroke-width="2" stroke-linecap="round" stroke-linejoin="round" marker-end="url(#CustomMarker-01)" transform="matrix(0.5 0 0 0.5 242.944 183.291)" />
	<path d="M -55.0154 -102.761 L 55.0154 102.76" fill="none" stroke="#0006BF" stroke-width="2" stroke-linecap="round" stroke-linejoin="round" marker-end="url(#CustomMarker-02)" transform="matrix(0.5 0 0 0.5 270.452 183.291)" />
	<path d="M 0 -123.411 L 0 123.411" fill="none" stroke="#000000" stroke-width="2" stroke-linecap="round" stroke-linejoin="round" marker-end="url(#CustomMarker-03)" transform="matrix(0.5 0 0 0.5 242.944 70.2054)" />
	<path d="M 124.823 97.7433 C 93.0031 138.379, 11.323 127.559, -57.6147 73.5766, -126.552 19.5944, -156.642 -57.1081, -124.823 -97.7433, -93.0031 -138.379, -11.3231 -127.559, 57.6147 -73.5766, 126.552 -19.5944, 156.642 57.1081, 124.823 97.7433 Z" stroke="none" fill="#0006BF" fill-opacity="0.199999988" transform="matrix(0.5 0 0 0.5 484.945 131.911)" />
	<path d="M 124.823 97.7433 C 93.0031 138.379, 11.323 127.559, -57.6147 73.5766, -126.552 19.5944, -156.642 -57.1081, -124.823 -97.7433, -93.0031 -138.379, -11.3231 -127.559, 57.6147 -73.5766, 126.552 -19.5944, 156.642 57.1081, 124.823 97.7433 Z" fill="none" stroke="#000000" stroke-width="2" stroke-linecap="round" stroke-linejoin="round" transform="matrix(0.5 0 0 0.5 484.945 131.911)" />
	<path d="M 93.4562 -0 C 93.4562 51.6144, 51.6144 93.4562, -0 93.4562, -51.6145 93.4562, -93.4562 51.6144, -93.4562 -0, -93.4562 -51.6145, -51.6145 -93.4562, -0 -93.4562, 51.6144 -93.4562, 93.4562 -51.6145, 93.4562 -0 Z" stroke="none" fill="#FF2A00" fill-opacity="0.188235283" transform="matrix(0.5 0 0 0.5 484.945 131.911)" />
	<path d="M 93.4562 -0 C 93.4562 51.6144, 51.6144 93.4562, -0 93.4562, -51.6145 93.4562, -93.4562 51.6144, -93.4562 -0, -93.4562 -51.6145, -51.6145 -93.4562, -0 -93.4562, 51.6144 -93.4562, 93.4562 -51.6145, 93.4562 -0 Z" fill="none" stroke="#000000" stroke-width="2" stroke-linecap="round" stroke-linejoin="round" transform="matrix(0.5 0 0 0.5 484.945 131.911)" />
	<path d="M 150.669 -192.41 L -150.668 192.41" fill="none" stroke="#44E500" stroke-width="2" stroke-linecap="round" stroke-linejoin="round" stroke-dasharray="7.01, 4.99" transform="matrix(0.5 0 0 0.5 475.14 143.545)" />
	<path d="M 0 -123.809 L 0 123.809" fill="none" stroke="#000000" stroke-width="2" stroke-linecap="round" stroke-linejoin="round" marker-end="url(#CustomMarker-04)" transform="matrix(0.5 0 0 0.5 484.945 70.4047)" />
	<path d="M -340.817 0 L 340.819 0" fill="none" stroke="#FF2A00" stroke-width="2" stroke-linecap="round" stroke-linejoin="round" transform="matrix(0.5 0 0 0.5 368.197 178.639)" />
	<path d="M -340.817 0 L 340.818 0" fill="none" stroke="#0006BF" stroke-width="2" stroke-linecap="round" stroke-linejoin="round" transform="matrix(0.5 0 0 0.5 401.828 193.125)" />
	<path d="M 0 -102.76 L 0 102.761" fill="none" stroke="#FF2A00" stroke-width="2" stroke-linecap="round" stroke-linejoin="round" marker-end="url(#CustomMarker-05)" transform="matrix(0.5 0 0 0.5 484.945 183.291)" />
	<path d="M -55.0155 -102.761 L 55.0149 102.76" fill="none" stroke="#0006BF" stroke-width="2" stroke-linecap="round" stroke-linejoin="round" marker-end="url(#CustomMarker-06)" transform="matrix(0.5 0 0 0.5 512.822 183.291)" />
</svg>
