<?xml version="1.0"?>
<svg xmlns="http://www.w3.org/2000/svg" xmlns:xlink="http://www.w3.org/1999/xlink" width="539.698181" height="219.988937">
	<defs>
		<marker id="CustomMarker-01" markerUnits="strokeWidth" markerWidth="15.000001" markerHeight="9" viewBox="-15 -4.5 15 9" orient="auto-start-reverse">
			<path d="M 0 -0 L -10 -3, -8 -0.5, -8 0.5, -10 3 Z" fill="#000000" stroke="#000000" stroke-linejoin="round" />
		</marker>
		<pattern id="Fill_HP-01" patternTransform="rotate(45)" patternUnits="userSpaceOnUse" width="15" height="15">
			<rect width="15" height="15" fill="#FFFFFF" />
			<circle cx="7.5" cy="7.5" r="2.5" stroke="none" fill="#000000" />
		</pattern>
		<marker id="CustomMarker-02" markerUnits="strokeWidth" markerWidth="15.000001" markerHeight="9" viewBox="-15 -4.5 15 9" orient="auto-start-reverse">
			<path d="M 0 -0 L -10 -3, -8 -0.5, -8 0.5, -10 3 Z" fill="#000000" stroke="#000000" stroke-linejoin="round" />
		</marker>
	</defs>
	<rect x="-0" y="-0" width="539.698181" height="219.988937" stroke="none" fill="#FFFFFF" />
	<path d="M -202.063 0 L 202.062 0" fill="none" stroke="#000000" stroke-width="1.79999995" stroke-linecap="round" stroke-linejoin="round" marker-end="url(#CustomMarker-01)" transform="matrix(0.555556 0 0 0.555556 120.757 156.211)" />
	<rect x="-50.3756104" y="-100.799927" width="100.751221" height="201.599854" stroke="none" fill="url(#Fill_HP-01)" transform="matrix(0.555556 0 0 0.555556 260.321 156.211)" />
	<path d="M -50.3756 -100.8 L 50.3756 -100.8, 50.3756 100.8, -50.3756 100.8 Z" fill="none" stroke="#000000" stroke-width="1.79999995" stroke-linecap="round" stroke-linejoin="round" transform="matrix(0.555556 0 0 0.555556 260.321 156.211)" />
	<path d="M -210.75 -0.000183105 L 210.75 0" fill="none" stroke="#000000" stroke-width="0.899999976" stroke-linecap="round" stroke-linejoin="round" stroke-dasharray="3.1545, 2.2455" transform="matrix(0.555556 0 0 0.555556 405.391 156.211)" />
	<path d="M -123.899 62.2397 L 123.899 -62.2397" fill="none" stroke="#000000" stroke-width="1.79999995" stroke-linecap="round" stroke-linejoin="round" marker-end="url(#CustomMarker-02)" transform="matrix(0.555556 0 0 0.555556 357.141 121.634)" />
	<path d="M -71.0544 54.6572 C -80.865 54.6573, -88.818 30.1864, -88.818 5.20381e-005, -88.8181 -30.1863, -80.865 -54.6572, -71.0545 -54.6573 L 71.0544 -54.6572 C 80.865 -54.6573, 88.818 -30.1865, 88.818 -7.78308e-005, 88.818 30.1863, 80.865 54.6572, 71.0545 54.6572, 71.0545 54.6572, 71.0545 54.6572, 71.0545 54.6572 Z" fill="none" stroke="#000000" stroke-width="1.79999995" stroke-linecap="round" stroke-linejoin="round" transform="matrix(-0.481125 0.277778 -0.277778 -0.481125 473.283 62.3058)" />
	<path d="M 71.0544 54.6572 C 61.2439 54.6573, 53.2908 30.1864, 53.2908 5.20381e-005, 53.2908 -30.1863, 61.2438 -54.6572, 71.0544 -54.6573" fill="none" stroke="#000000" stroke-width="1.79999995" stroke-linecap="round" stroke-linejoin="round" transform="matrix(-0.481125 0.277778 -0.277778 -0.481125 473.283 62.3058)" />
	<g transform="matrix(1 0 -0 1 230.316 73.2373)">
		<svg width="188.94458" height="50.9380569">
			<defs />
			<path d="M 5.23666 7.78082 L 5.23666 12.721, 11.5663 12.721, 11.5663 7.78082 Z M 4.25891 15.1911 C 4.30641 14.0511, 4.3262 11.5651, 4.3262 7.71748, 2.98032 9.36817, 1.49984 10.6784, -0.111269 11.6443 L -0.241899 11.4543 C 1.32566 10.148, 2.62801 8.73482, 3.67305 7.21475, 4.7181 5.69469, 5.54146 4.17463, 6.15107 2.65061 L 1.97486 2.65061 C 1.62651 2.65457, 1.21483 2.7179, 0.735849 2.84062 L 0.149992 2.27059, 12.544 2.27059, 13.5891 1.32055, 14.8914 2.65061, 7.32674 2.65061 C 6.49942 4.34484, 5.6523 5.84116, 4.78143 7.14746 L 5.30395 7.4008, 11.4357 7.4008, 11.9582 6.70411, 13.0666 7.59081, 12.4807 8.03416 C 12.4807 11.288, 12.5045 13.4217, 12.544 14.4311 L 11.5663 14.8111, 11.5663 13.101, 5.23666 13.101, 5.23666 14.6844 Z" stroke="none" fill="#000000" />
			<path d="M 27.814 3.66398 C 27.814 4.13109, 27.8377 4.68132, 27.8813 5.31072 L 26.9669 5.69073, 26.9669 5.12071, 22.9886 5.12071, 22.9886 6.45076, 26.5116 6.45076, 27.3587 5.6274, 28.5978 6.83078, 22.9886 6.83078, 22.9886 8.22417, 27.62 8.22417, 28.5978 7.27413, 29.9674 8.60419, 17.3794 8.60419 C 16.8133 8.60814, 16.2908 8.67148, 15.8118 8.79419 L 15.226 8.22417, 22.1414 8.22417, 22.1414 6.83078, 18.8797 6.83078 C 18.3136 6.83474, 17.7911 6.89807, 17.3121 7.02079 L 16.7262 6.45076, 22.1414 6.45076, 22.1414 5.12071, 18.2265 5.12071, 18.2265 5.50072, 17.2487 5.8174 C 17.2923 5.23155, 17.3121 4.42006, 17.3121 3.38293, 17.3121 2.34976, 17.2923 1.47098, 17.2487 0.75053 L 18.2265 1.19388, 26.8362 1.19388, 27.2954 0.623858, 28.3365 1.38389, 27.814 1.76391 Z M 18.2265 1.5739 L 18.2265 4.74069, 22.1414 4.74069, 22.1414 1.5739 Z M 22.9886 1.5739 L 22.9886 4.74069, 26.9669 4.74069, 26.9669 1.5739 Z M 19.2042 2.08058 C 20.2057 2.59123, 20.7718 2.98312, 20.9024 3.25626, 21.0331 3.53335, 21.0014 3.79461, 20.8035 4.04796, 20.6095 4.3013, 20.467 4.42797, 20.3799 4.42401, 20.2493 4.42797, 20.1385 4.25776, 20.0514 3.91733, 19.8772 3.37105, 19.5526 2.82478, 19.0736 2.27059 Z M 25.0747 2.08058 L 26.1197 2.90395 C 25.7714 2.90791, 25.0787 3.43439, 24.0336 4.48735 L 23.8357 4.36068 C 24.4018 3.56106, 24.8134 2.80103, 25.0747 2.08058 Z M 17.8979 8.9842 C 17.7713 9.91841, 17.5852 10.5518, 17.3477 10.8882, 17.1102 11.2287, 16.8133 11.3949, 16.465 11.391, 16.2908 11.3949, 16.1087 11.3633, 15.9108 11.2999, 15.7168 11.2366, 15.6178 11.1851, 15.6178 11.1376, 15.6178 11.0149, 15.8158 10.8249, 16.2037 10.5676, 16.7262 10.2351, 17.2052 9.66506, 17.6406 8.85753 Z M 23.6417 8.79419 C 24.3384 9.22171, 24.7818 9.57006, 24.9797 9.84319, 25.1776 10.1203, 25.2726 10.3618, 25.2726 10.5676, 25.2726 10.8249, 25.1974 11.0387, 25.043 11.2049, 24.8926 11.3751, 24.7699 11.4583, 24.6828 11.4543, 24.5086 11.4583, 24.4018 11.2485, 24.3582 10.8209, 24.2315 10.2351, 23.9267 9.60173, 23.4438 8.92087 Z M 26.9035 8.79419 C 27.7308 9.17817, 28.3088 9.49485, 28.6334 9.74819, 28.958 10.0015, 29.1203 10.2549, 29.1203 10.5043, 29.1203 10.718, 29.0569 10.9437, 28.9263 11.1732, 28.7957 11.4068, 28.7086 11.5216, 28.6651 11.5176, 28.5344 11.5216, 28.4038 11.3514, 28.2732 11.011, 28.0554 10.4647, 27.5567 9.76798, 26.7729 8.92087 Z M 17.2487 12.0243 L 22.1414 12.0243 C 22.1414 11.4385, 22.1217 10.8447, 22.0742 10.2509 L 23.5744 10.8843, 22.9886 11.2643, 22.9886 12.0243, 25.6645 12.0243, 26.5116 11.201, 27.7506 12.4043, 22.9886 12.4043, 22.9886 14.1777, 27.3587 14.1777, 28.3365 13.2277, 29.7061 14.5578, 17.6406 14.5578 C 17.0746 14.5578, 16.5521 14.6211, 16.0731 14.7478 L 15.4872 14.1777, 22.1414 14.1777, 22.1414 12.4043, 19.4022 12.4043 C 18.8361 12.4083, 18.3136 12.4716, 17.8346 12.5943 Z M 19.9207 8.85753 C 20.6649 9.49485, 21.0885 9.93028, 21.1954 10.1599, 21.3062 10.3934, 21.3577 10.5518, 21.3577 10.6309, 21.3577 10.8447, 21.2627 11.0466, 21.0647 11.2366, 20.8708 11.4266, 20.7283 11.5216, 20.6412 11.5176, 20.5105 11.5216, 20.4235 11.3514, 20.3799 11.011, 20.3364 10.4647, 20.1187 9.79173, 19.7268 8.9842 Z" stroke="none" fill="#000000" />
			<path d="M 31.2797 15.1911 C 31.3232 13.9244, 31.343 12.6616, 31.343 11.3949, 31.343 10.1282, 31.3232 8.88128, 31.2797 7.65415 L 32.2574 8.22417, 35.4559 8.22417, 36.0417 7.65415, 37.0195 8.47751, 36.4336 8.85753 C 36.4336 12.0283, 36.4574 13.9046, 36.497 14.4944 L 35.5865 15.0011, 35.5865 13.9877, 32.1941 13.9877, 32.1941 14.7478 Z M 32.1941 8.60419 L 32.1941 10.8843, 35.5865 10.8843, 35.5865 8.60419 Z M 32.1941 11.2643 L 32.1941 13.6077, 35.5865 13.6077, 35.5865 11.2643 Z M 34.9967 3.98066 L 34.9967 5.8174, 40.8711 5.8174, 40.8711 3.98066 Z M 41.7182 2.08058 C 41.7182 4.66152, 41.742 6.15784, 41.7816 6.57744 L 40.8711 7.02079, 40.8711 6.19742, 34.9967 6.19742, 34.9967 6.83078, 34.0862 7.21079 C 34.1298 6.20138, 34.1496 5.14842, 34.1496 4.04796, 34.1496 2.95145, 34.1298 1.91433, 34.0862 0.940538 L 35.064 1.44723, 40.7405 1.44723, 41.3263 0.813867, 42.3714 1.63723 Z M 34.9967 1.82724 L 34.9967 3.60065, 40.8711 3.60065, 40.8711 1.82724 Z M 43.935 8.85753 C 43.935 11.9452, 43.9587 13.8611, 44.0023 14.6211 L 43.0879 15.0644, 43.0879 13.9877, 39.4342 13.9877, 39.4342 14.7478, 38.5198 15.1911 C 38.5673 13.8413, 38.5871 12.5904, 38.5871 11.4266, 38.5871 10.2668, 38.5673 9.00795, 38.5198 7.65415 L 39.4975 8.22417, 42.9572 8.22417, 43.5431 7.65415, 44.5208 8.47751 Z M 39.4342 8.60419 L 39.4342 10.8843, 43.0879 10.8843, 43.0879 8.60419 Z M 39.4342 11.2643 L 39.4342 13.6077, 43.0879 13.6077, 43.0879 11.2643 Z" stroke="none" fill="#000000" />
			<path d="M 47.5906 15.3178 C 47.6381 13.9679, 47.6579 12.915, 47.6579 12.151 L 47.6579 5.6274 C 46.9612 6.72786, 46.1141 7.76498, 45.1126 8.73086 L 44.9147 8.54085 C 45.9162 7.32163, 46.7752 5.85303, 47.4917 4.14296, 48.2121 2.43289, 48.6357 1.24138, 48.7663 0.560522 L 50.1359 1.44723, 49.6134 1.70057 C 48.9167 3.09792, 48.3744 4.19442, 47.9825 4.99404 L 49.0276 5.56406, 48.505 6.00741, 48.505 14.8111 Z M 54.9613 12.341 C 54.9613 13.1485, 54.9851 13.9679, 55.0286 14.8111 L 53.9836 15.2545 C 54.0311 13.9046, 54.0509 12.9981, 54.0509 12.531 L 54.0509 11.7076, 53.0058 11.7076 C 52.4437 11.7116, 51.9212 11.7749, 51.4383 11.8977 L 50.8524 11.3276, 54.0509 11.3276, 54.0509 5.24738 C 53.3977 6.81495, 52.6377 8.16479, 51.7668 9.30484, 50.896 10.4449, 49.9618 11.3949, 48.9603 12.151 L 48.7663 11.961 C 49.5936 11.2049, 50.4328 10.1282, 51.2799 8.73482, 52.1271 7.34143, 52.7683 6.01137, 53.1998 4.74069 L 51.7668 4.74069 C 51.2047 4.74465, 50.6822 4.80799, 50.1993 4.9307 L 49.6134 4.36068, 54.0509 4.36068, 54.0509 2.4606 C 54.0509 2.041, 54.0311 1.43139, 53.9836 0.623858 L 55.5512 1.32055, 54.9613 1.76391, 54.9613 4.36068, 57.8985 4.36068, 58.7457 3.53731, 59.9847 4.74069, 55.5512 4.74069 C 56.1608 6.51806, 56.9089 7.94312, 57.7996 9.01983, 58.6942 10.0965, 59.5097 10.7616, 60.2459 11.011 L 60.2459 11.2643 C 59.5532 11.2683, 59.098 11.4583, 58.8763 11.8343, 58.2667 11.3751, 57.6056 10.4686, 56.8891 9.11483, 56.1726 7.76498, 55.6185 6.30826, 55.2226 4.74069 L 54.9613 4.74069, 54.9613 11.3276, 56.2676 11.3276, 57.0514 10.5676, 58.2231 11.7076, 54.9613 11.7076 Z" stroke="none" fill="#000000" />
			<rect />
		</svg>
	</g>
	<g transform="matrix(1 0 -0 1 424.757 8.25)">
		<svg width="143.898438" height="50.9380569">
			<defs />
			<path d="M 8.77159 0.43385 L 10.2085 1.19388, 9.68601 1.51056 C 10.9052 3.87774, 12.6905 5.23155, 15.0418 5.56406 L 15.0418 5.8174 C 14.3452 5.86491, 13.9097 6.11825, 13.7355 6.57744, 11.693 5.69469, 10.2758 4.06775, 9.49204 1.70057, 8.62117 3.98462, 7.1209 5.75803, 4.98331 7.02079 L 4.78935 6.83078 C 6.87943 5.188, 8.20949 3.05437, 8.77159 0.43385 Z M 6.15899 6.70411 L 10.9923 6.70411, 11.6455 6.07075, 12.6905 7.08412, 8.24907 7.08412 C 7.59988 7.08808, 7.09715 7.15142, 6.7488 7.27413 Z M 5.96502 8.9842 L 6.15899 8.92087 C 6.99027 10.148, 7.45737 10.9437, 7.56425 11.2999, 7.67509 11.6601, 7.72655 11.9452, 7.72655 12.151, 7.72655 12.4914, 7.63155 12.7487, 7.43362 12.915, 7.23966 13.0852, 7.1209 13.1683, 7.0734 13.1644, 6.89923 13.1683, 6.79235 12.8952, 6.7488 12.341, 6.70526 11.6285, 6.444 10.5082, 5.96502 8.9842 Z M 8.24907 7.84415 L 8.447 7.78082 C 9.4485 9.13462, 10.0146 10.1084, 10.1452 10.6982, 10.2758 11.292, 10.2204 11.6799, 9.98289 11.8699, 9.74538 12.06, 9.57913 12.155, 9.49204 12.151, 9.31787 12.155, 9.21099 11.8818, 9.16348 11.3276, 9.1239 10.5716, 8.8191 9.41172, 8.24907 7.84415 Z M 13.411 8.41418 L 12.8211 8.73086 C 12.2115 11.0585, 11.5386 12.8517, 10.7983 14.1144 L 12.8211 14.1144, 13.6722 13.291, 14.9112 14.4944, 6.55088 14.4944 C 5.98877 14.4944, 5.46625 14.5578, 4.98331 14.6844 L 4.39746 14.1144, 10.4065 14.1144 C 11.1902 11.8818, 11.7128 9.7284, 11.974 7.65415 Z M 3.35241 11.8977 C 3.35241 12.4914, 3.37617 13.5483, 3.41575 15.0644 L 2.37071 15.4445 C 2.41821 12.9585, 2.438 10.4013, 2.438 7.78082, 1.74131 9.30484, 0.870438 10.5913, -0.174605 11.6443 L -0.305235 11.4543 C 0.957525 9.7284, 1.84819 7.51164, 2.37071 4.80403 L 0.803144 4.80403, 0.217286 4.9307, -0.305235 4.42401, 2.438 4.42401 C 2.438 3.28793, 2.41821 1.97766, 2.37071 0.497187 L 3.93827 1.13055, 3.35241 1.5739, 3.35241 4.42401, 4.33016 4.42401, 5.05061 3.72732, 6.15899 4.80403, 3.35241 4.80403, 3.35241 6.26076 C 4.04911 6.5616, 4.57163 6.85849, 4.91998 7.15142, 5.26833 7.4483, 5.4425 7.74123, 5.4425 8.03416, 5.4425 8.16479, 5.37916 8.3548, 5.24853 8.60814, 5.1179 8.86149, 5.03082 8.98816, 4.98331 8.9842, 4.85664 8.98816, 4.70226 8.77836, 4.52809 8.35084, 4.22328 7.72144, 3.83139 7.15142, 3.35241 6.64077 Z" stroke="none" fill="#000000" />
			<path d="M 19.2755 11.2643 C 19.323 10.4647, 19.3428 8.84169, 19.3428 6.39139, 19.3428 3.94504, 19.323 2.19142, 19.2755 1.13055 L 20.2572 1.70057, 23.4557 1.70057, 23.9782 1.19388, 24.8293 2.01725, 24.3067 2.39726, 24.3067 7.84415 C 24.3067 8.69127, 24.3305 9.53839, 24.3701 10.3776 L 23.523 10.7576, 23.523 2.08058, 20.1899 2.08058, 20.1899 10.8843 Z M 21.3656 3.72732 L 22.7392 4.42401, 22.28 4.86737 C 22.3275 7.74123, 22.1098 9.93028, 21.6308 11.4266, 21.1518 12.9269, 19.8455 14.2213, 17.7079 15.3178 L 17.5773 15.0644 C 19.1053 14.0511, 20.1068 13.0219, 20.5858 11.9649, 21.0647 10.912, 21.326 9.67694, 21.3695 8.2598, 21.4131 6.84661, 21.4131 5.33447, 21.3656 3.72732 Z M 22.2167 11.391 C 23.4794 12.2381, 24.2078 12.82, 24.4057 13.1367, 24.6036 13.4533, 24.6986 13.6948, 24.6986 13.8611, 24.6986 14.0748, 24.6353 14.2727, 24.5047 14.4628, 24.374 14.6528, 24.2632 14.7478, 24.1761 14.7478, 24.0019 14.7478, 23.8278 14.4944, 23.6536 13.9877, 23.3923 13.2317, 22.8698 12.4281, 22.086 11.581 Z M 25.807 11.7076 C 25.8545 11.0782, 25.8743 10.338, 25.8743 9.49089 L 25.8743 5.18404 C 25.8743 4.25776, 25.8545 3.49773, 25.807 2.90395 L 27.2439 3.60065, 26.7214 4.10733, 26.7214 9.49089 C 26.7214 10.1282, 26.7452 10.7616, 26.7887 11.391 Z M 28.1584 13.4177 L 28.1584 3.53731 C 28.1584 2.35768, 28.1386 1.45118, 28.095 0.813867 L 29.4647 1.44723, 29.0094 1.89058, 29.0094 13.6077 C 29.0094 14.0748, 28.9224 14.4311, 28.7482 14.6844, 28.574 14.9378, 28.2257 15.1515, 27.7031 15.3178, 27.3983 14.6844, 26.7452 14.2213, 25.7437 13.9244 L 25.7437 13.6711 C 26.9194 13.8413, 27.616 13.9165, 27.8338 13.8927, 28.0515 13.8729, 28.1584 13.7186, 28.1584 13.4177 Z M 18.9509 4.9307 C 18.1236 8.27167, 17.6446 10.1915, 17.514 10.6943, 17.3398 11.2485, 17.2646 11.9016, 17.2844 12.6616, 17.3081 13.4217, 17.3398 13.9482, 17.3833 14.2411, 17.3833 14.4113, 17.2765 14.4944, 17.0548 14.4944, 16.8806 14.4944, 16.6629 14.4548, 16.4016 14.3678, 16.1404 14.2846, 16.0097 14.0946, 16.0097 13.7977, 16.0097 13.5919, 16.077 13.2752, 16.2077 12.8477, 16.3383 12.4281, 16.4016 12.0916, 16.4016 11.8343, 16.4016 11.5414, 16.3066 11.3118, 16.1087 11.1416, 15.9147 10.9753, 15.4912 10.8051, 14.8341 10.6309 L 14.8341 10.3776 C 15.6178 10.4647, 16.1087 10.5003, 16.3066 10.4766, 16.5046 10.4568, 16.7223 10.2668, 16.9598 9.90653, 17.1973 9.55027, 17.7752 7.86791, 18.6896 4.86737 Z M 15.0953 4.23401 C 16.3145 4.95445, 16.9598 5.52843, 17.0231 5.94803, 17.0904 6.37159, 17.035 6.64473, 16.8608 6.7714, 16.6866 6.89807, 16.556 6.96141, 16.4689 6.95745, 16.2948 6.96141, 16.1443 6.72786, 16.0097 6.26076, 15.796 5.63136, 15.4476 5.01779, 14.9647 4.42401 Z M 16.2077 0.877202 C 17.3833 1.51452, 18.0365 2.01329, 18.1671 2.36955, 18.2978 2.72978, 18.274 3.00291, 18.0998 3.19292, 17.9257 3.38293, 17.7752 3.47793, 17.6446 3.47398, 17.514 3.47793, 17.3833 3.28793, 17.2527 2.90395, 17.035 2.31809, 16.6431 1.70453, 16.077 1.06721 Z" stroke="none" fill="#000000" />
			<path d="M 33.0411 2.08058 L 33.0411 4.55069, 35.6537 4.55069, 35.6537 2.08058 Z M 32.1267 6.00741 C 32.1742 5.16821, 32.194 4.33297, 32.194 3.5096, 32.194 2.68623, 32.1742 1.89454, 32.1267 1.13055 L 33.0411 1.70057, 35.5904 1.70057, 36.0456 1.13055, 37.0907 1.95391, 36.5048 2.33393 C 36.5048 3.85795, 36.5286 4.85153, 36.5681 5.31072 L 35.6537 5.69073, 35.6537 4.9307, 33.0411 4.9307, 33.0411 5.56406 Z M 42.9057 10.7576 C 42.9057 12.535, 42.9295 13.7384, 42.969 14.3678 L 41.9913 14.7478, 41.9913 13.7344, 39.0501 13.7344, 39.0501 14.6844, 38.1357 15.0011 C 38.1832 14.1144, 38.203 13.2435, 38.203 12.3766, 38.203 11.5137, 38.1832 10.6784, 38.1357 9.8709 L 39.0501 10.3143, 41.7934 10.3143, 41.924 10.1876 C 40.4435 9.38797, 39.3351 8.46168, 38.5949 7.4008 L 36.6354 7.4008 C 35.5033 8.71502, 34.2643 9.68485, 32.9105 10.3143 L 35.6537 10.3143, 36.1129 9.74423, 37.0907 10.5043, 36.6354 10.8843 C 36.6354 12.6616, 36.6592 13.8215, 36.6988 14.3678 L 35.7844 14.6844, 35.7844 13.7344, 33.2391 13.7344, 33.2391 14.5578, 32.3246 14.8744 C 32.3682 14.158, 32.388 13.4019, 32.388 12.5983, 32.388 11.7987, 32.388 11.1218, 32.388 10.5676, 31.5171 10.8684, 30.6898 11.098, 29.906 11.2643 L 29.8427 11.0743 C 31.0619 10.6547, 32.1307 10.1599, 33.0451 9.58985, 33.9595 9.01983, 34.8066 8.29146, 35.5904 7.4008 L 32.4553 7.4008 C 31.8892 7.40476, 31.3667 7.4681, 30.8877 7.59081 L 30.2979 7.02079, 35.7844 7.02079 C 36.1802 6.43493, 36.5286 5.82136, 36.8294 5.18404 L 38.0724 6.00741 C 37.6369 6.18159, 37.2253 6.51806, 36.8294 7.02079 L 40.9462 7.02079 C 40.7285 6.43493, 40.2931 5.92824, 39.6399 5.50072 L 39.7706 5.31072 C 40.5979 5.52448, 41.1204 5.71844, 41.3381 5.8847, 41.5559 6.05491, 41.6627 6.20138, 41.6627 6.32409, 41.6627 6.53785, 41.5559 6.7714, 41.3381 7.02079 L 42.6444 7.02079, 43.5589 6.13408, 44.8652 7.4008, 38.9868 7.4008 C 39.727 8.08166, 40.586 8.65169, 41.5677 9.11483, 42.5494 9.58193, 43.7568 9.83132, 45.1898 9.8709 L 45.1898 10.1242 C 44.4931 10.2113, 44.0814 10.5082, 43.9507 11.011 L 42.969 10.6943 Z M 33.2391 10.6943 L 33.2391 13.3544, 35.7844 13.3544, 35.7844 10.6943 Z M 39.0501 10.6943 L 39.0501 13.3544, 41.9913 13.3544, 41.9913 10.6943 Z M 39.442 2.08058 L 39.442 4.55069, 41.9913 4.55069, 41.9913 2.08058 Z M 38.5276 5.69073 C 38.5751 4.93466, 38.5949 4.16671, 38.5949 3.38293, 38.5949 2.60311, 38.5751 1.85099, 38.5276 1.13055 L 39.442 1.70057, 41.924 1.70057, 42.3832 1.13055, 43.3609 1.89058, 42.8384 2.33393 C 42.8384 3.73128, 42.8622 4.70111, 42.9057 5.24738 L 41.9913 5.56406, 41.9913 4.9307, 39.442 4.9307, 39.442 5.37405 Z" stroke="none" fill="#000000" />
			<rect />
		</svg>
	</g>
	<path d="M 47.3401 -23.7809 C 51.047 -16.4017, 52.9775 -8.25803, 52.9775 -1.7948e-005" fill="none" stroke="#000000" stroke-width="1.3499999" stroke-linecap="round" stroke-linejoin="round" transform="matrix(0.555556 0 -0 0.555556 288.307 156.211)" />
	<path d="M 0 0 L 240.183 -120.654" fill="none" stroke="#000000" stroke-width="0.899999976" stroke-linecap="round" stroke-linejoin="round" stroke-dasharray="4.9545, 2.2455, 0.009, 2.691" transform="matrix(0.555556 0 -0 0.555556 288.307 156.211)" />
	<path d="M 0 0 L 111.253 0" fill="none" stroke="#000000" stroke-width="0.899999976" stroke-linecap="round" stroke-linejoin="round" stroke-dasharray="4.9545, 2.2455, 0.009, 2.691" transform="matrix(0.555556 0 -0 0.555556 288.307 156.211)" />
	<g transform="matrix(1 0 -0 1 323.558 134.979)">
		<svg width="30.027689" height="36.0270882">
			<defs />
			<path d="M 8.64167 9.60604 C 8.50852 10.1296, 8.28541 10.6204, 7.97142 11.0783, 7.65744 11.5367, 7.28319 11.9384, 6.8482 12.2839, 6.41322 12.6293, 5.9364 12.9019, 5.4173 13.1008, 4.89819 13.2996, 4.36964 13.399, 3.83075 13.399 L 3.57884 13.399 C 3.49473 13.399, 3.4331 13.3968, 3.39351 13.3918 L 2.91894 15.8749 C 2.88476 16.0719, 2.79434 16.2158, 2.6486 16.3067, 2.50285 16.398, 2.35081 16.4434, 2.19247 16.4434, 2.03953 16.4434, 1.91583 16.3931, 1.82181 16.2923, 1.75794 16.2446, 1.72555 16.1628, 1.72555 16.0476, 1.72555 15.9855, 1.73544 15.9158, 1.75524 15.8389 L 2.60002 13.2551 C 2.18977 13.1687, 1.79842 13.0193, 1.42506 12.8057, 1.05215 12.5925, 0.74717 12.3262, 0.50966 12.0068, 0.2726 11.6879, 0.116959 11.3217, 0.0427376 10.9087, 0.0130489 10.7558, -0.00179553 10.5925, -0.00179553 10.4193, -0.00179553 10.1607, 0.0328413 9.87999, 0.102115 9.57725, 0.225818 9.10268, 0.386407 8.62901, 0.583882 8.15624, 0.781807 7.68392, 1.08049 7.24579, 1.48084 6.84229, 1.52043 6.77572, 1.58745 6.73973, 1.68102 6.73433 L 1.75524 6.73433 C 1.80472 6.73478, 1.8488 6.75413, 1.88839 6.79191, 1.91807 6.83555, 1.93292 6.88098, 1.93292 6.92866 L 1.93292 6.95745 C 1.93292 7.00603, 1.91088 7.05146, 1.86634 7.0942, 1.52043 7.44956, 1.25863 7.84316, 1.08049 8.275, 0.902811 8.70684, 0.752118 9.15082, 0.628415 9.60604, 0.578934 9.80802, 0.554193 9.99515, 0.554193 10.1674, 0.554193 10.3213, 0.573986 10.463, 0.613571 10.5921, 0.687793 10.8998, 0.832188 11.1674, 1.04721 11.395, 1.26222 11.6231, 1.53437 11.8152, 1.86275 11.9708, 2.19112 12.1269, 2.53839 12.2357, 2.9041 12.2978 L 3.31929 11.0167 C 3.48753 10.5277, 3.67781 10.023, 3.89013 9.50213, 4.10244 8.98168, 4.3557 8.50441, 4.64989 8.06988, 4.94408 7.63579, 5.2855 7.27818, 5.67325 6.99749, 6.061 6.71679, 6.50948 6.57645, 7.01824 6.57599, 7.39879 6.57645, 7.71772 6.66281, 7.97457 6.83555, 8.23188 7.00828, 8.42575 7.24129, 8.55665 7.53368, 8.688 7.82652, 8.75817 8.15489, 8.76807 8.51926 L 8.76807 8.62002 C 8.76807 8.95154, 8.72624 9.28037, 8.64167 9.60604 Z M 8.11537 9.57725 C 8.16485 9.39058, 8.18959 9.2057, 8.18959 9.02307, 8.18959 8.95154, 8.18464 8.87462, 8.17475 8.79275, 8.14506 8.55794, 8.07129 8.34967, 7.95253 8.16704, 7.83378 7.98486, 7.67589 7.84091, 7.47796 7.7352, 7.28049 7.62994, 7.05332 7.57686, 6.79602 7.57642, 6.43526 7.57686, 6.09564 7.67178, 5.77671 7.86116, 5.45823 8.05098, 5.16899 8.30739, 4.90944 8.63126, 4.65034 8.95514, 4.43172 9.3285, 4.25359 9.75044, 4.07546 10.1728, 3.93961 10.6069, 3.84559 11.0527 L 3.58604 12.3914 C 3.62068 12.3968, 3.6823 12.399, 3.77137 12.3986 L 4.06061 12.3986 C 4.50549 12.399, 4.94767 12.3284, 5.38761 12.1867, 5.82754 12.0455, 6.23149 11.8498, 6.59945 11.6001, 6.96786 11.3509, 7.28678 11.0522, 7.55578 10.7041, 7.82523 10.3564, 8.01191 9.98075, 8.11537 9.57725 Z" stroke="none" fill="#000000" />
			<rect />
		</svg>
	</g>
	<g transform="matrix(1 0 -0 1 114.562 138.545)">
		<svg width="41.9907646" height="44.9458008">
			<defs />
			<path d="M 7.65429 13.1831 C 7.6246 13.327, 7.54049 13.399, 7.40194 13.399 L 6.69031 13.399 C 6.64083 13.399, 6.60394 13.3873, 6.5792 13.363, 6.3273 13.229, 6.14916 13.018, 6.04525 12.7297 L 4.66653 9.00147, 1.03416 13.1543 C 0.886165 13.3176, 0.737721 13.404, 0.589277 13.4134, 0.564987 13.4233, 0.537547 13.4278, 0.507858 13.4278, 0.364813 13.4278, 0.251006 13.3846, 0.166888 13.2982, 0.0634272 13.2218, 0.011247 13.1309, 0.011247 13.0247, 0.00135076 13.0252, -0.00359738 12.9964, -0.00359738 12.9384, -0.00359738 12.7998, 0.0733235 12.6559, 0.226265 12.5065 L 4.45916 8.44009, 2.96168 4.36643 C 2.84832 4.07899, 2.72956 3.83429, 2.60586 3.63276, 2.48261 3.43124, 2.29953 3.33048, 2.05707 3.33003, 1.9779 3.33048, 1.92122 3.29674, 1.88658 3.22927, 1.87219 3.20093, 1.86454 3.16989, 1.86454 3.1357 L 1.86454 3.08532 C 1.87939 3.02819, 1.91043 2.97691, 1.95721 2.93103, 2.00399 2.8856, 2.06697 2.86266, 2.14614 2.86221, 2.56133 2.86266, 2.95673 2.92878, 3.33233 3.06058, 3.70794 3.19283, 3.96255 3.44339, 4.09569 3.81225 L 7.16488 12.1683 C 7.23415 12.3509, 7.30343 12.5205, 7.3727 12.6761, 7.44197 12.8322, 7.52069 12.9438, 7.60976 13.0104, 7.63945 13.0589, 7.65429 13.1044, 7.65429 13.1471 L 7.65429 13.1831 Z" stroke="none" fill="#000000" />
			<path d="M 2.24096 -0.293176 C 2.24096 0.0940011, 2.214 0.478911, 2.1601 0.861805, 2.10619 1.2447, 1.97268 1.60417, 1.75957 1.9397, 1.60742 2.18455, 1.40388 2.37248, 1.14946 2.50397, 0.895033 2.63572, 0.618191 2.70146, 0.31918 2.70146, 0.0315055 2.70146, -0.240299 2.63572, -0.496234 2.50397, -0.752169 2.37248, -0.956463 2.18455, -1.10861 1.9397, -1.32147 1.60417, -1.45498 1.2447, -1.50889 0.861805, -1.5628 0.478911, -1.59 0.0940011, -1.59 -0.293176, -1.59 -0.685139, -1.5628 -1.07685, -1.50889 -1.46781, -1.45498 -1.85876, -1.32147 -2.22478, -1.10861 -2.56636, -0.956463 -2.81323, -0.752924 -3.00543, -0.498501 -3.14247, -0.243826 -3.2795, 0.0287346 -3.34802, 0.31918 -3.34827, 0.61542 -3.34802, 0.891255 -3.2795, 1.14719 -3.14247, 1.40312 -3.00543, 1.60742 -2.81323, 1.75957 -2.56636, 1.97268 -2.22478, 2.10619 -1.85876, 2.1601 -1.46781, 2.214 -1.07685, 2.24096 -0.685139, 2.24096 -0.293176 Z M 1.41899 -0.434242 C 1.41899 -0.60327, 1.41773 -0.78187, 1.41496 -0.970043, 1.41244 -1.15796, 1.40539 -1.34211, 1.39431 -1.52222, 1.38322 -1.70208, 1.36332 -1.87211, 1.3341 -2.03207, 1.30513 -2.19178, 1.26987 -2.32831, 1.2283 -2.44142, 1.14517 -2.62379, 1.0235 -2.77368, 0.863042 -2.89056, 0.702579 -3.00744, 0.521207 -3.06589, 0.31918 -3.06614, 0.122695 -3.06589, -0.0548977 -3.00669, -0.214101 -2.88855, -0.373053 -2.77015, -0.494219 -2.62128, -0.577347 -2.44142, -0.618659 -2.32831, -0.653926 -2.19178, -0.683147 -2.03207, -0.712116 -1.87211, -0.732268 -1.70208, -0.743352 -1.52222, -0.754436 -1.34211, -0.761237 -1.15796, -0.764008 -0.970043, -0.766779 -0.78187, -0.768291 -0.60327, -0.768291 -0.434242, -0.768291 -0.245818, -0.766779 -0.047569, -0.764008 0.160504, -0.761237 0.368829, -0.754436 0.570352, -0.743352 0.765074, -0.732268 0.960048, -0.712116 1.14469, -0.683147 1.31926, -0.653926 1.49409, -0.618659 1.64044, -0.577347 1.75833, -0.499761 1.95482, -0.379854 2.11604, -0.218132 2.24224, -0.0564091 2.3687, 0.122695 2.43167, 0.31918 2.43142, 0.523978 2.43167, 0.707365 2.3687, 0.869087 2.24224, 1.03106 2.11604, 1.15072 1.95482, 1.2283 1.75833, 1.26987 1.64044, 1.30513 1.49409, 1.3341 1.31926, 1.36332 1.14469, 1.38322 0.960048, 1.39431 0.765074, 1.40539 0.570352, 1.41244 0.368829, 1.41496 0.160504, 1.41773 -0.047569, 1.41899 -0.245818, 1.41899 -0.434242 Z" stroke="none" fill="#000000" transform="matrix(1.12 0 0 1 10.0166 12.8121)" />
			<rect />
		</svg>
	</g>
	<g transform="matrix(1 0 -0 1 353.312 98.5596)">
		<svg width="27.073843" height="38.9535408">
			<defs />
			<path d="M 7.65429 13.1831 C 7.6246 13.327, 7.54049 13.399, 7.40194 13.399 L 6.69031 13.399 C 6.64083 13.399, 6.60394 13.3873, 6.5792 13.363, 6.3273 13.229, 6.14916 13.018, 6.04525 12.7297 L 4.66653 9.00147, 1.03416 13.1543 C 0.886165 13.3176, 0.737721 13.404, 0.589277 13.4134, 0.564987 13.4233, 0.537547 13.4278, 0.507858 13.4278, 0.364813 13.4278, 0.251006 13.3846, 0.166888 13.2982, 0.0634272 13.2218, 0.011247 13.1309, 0.011247 13.0247, 0.00135076 13.0252, -0.00359738 12.9964, -0.00359738 12.9384, -0.00359738 12.7998, 0.0733235 12.6559, 0.226265 12.5065 L 4.45916 8.44009, 2.96168 4.36643 C 2.84832 4.07899, 2.72956 3.83429, 2.60586 3.63276, 2.48261 3.43124, 2.29953 3.33048, 2.05707 3.33003, 1.9779 3.33048, 1.92122 3.29674, 1.88658 3.22927, 1.87219 3.20093, 1.86454 3.16989, 1.86454 3.1357 L 1.86454 3.08532 C 1.87939 3.02819, 1.91043 2.97691, 1.95721 2.93103, 2.00399 2.8856, 2.06697 2.86266, 2.14614 2.86221, 2.56133 2.86266, 2.95673 2.92878, 3.33233 3.06058, 3.70794 3.19283, 3.96255 3.44339, 4.09569 3.81225 L 7.16488 12.1683 C 7.23415 12.3509, 7.30343 12.5205, 7.3727 12.6761, 7.44197 12.8322, 7.52069 12.9438, 7.60976 13.0104, 7.63945 13.0589, 7.65429 13.1044, 7.65429 13.1471 L 7.65429 13.1831 Z" stroke="none" fill="#000000" />
			<rect />
		</svg>
	</g>
</svg>
