<?xml version="1.0"?>
<svg xmlns="http://www.w3.org/2000/svg" xmlns:xlink="http://www.w3.org/1999/xlink" width="620.210449" height="338.630402">
	<defs />
	<rect x="-0" y="-0" width="620.210449" height="338.630402" stroke="none" fill="#FFFFFF" />
	<path d="M 147.268 -0 C 147.268 81.3341, 81.3341 147.268, -0 147.268, -81.3341 147.268, -147.268 81.3341, -147.268 -0, -147.268 -81.3341, -81.3341 -147.268, -0 -147.268, 81.3341 -147.268, 147.268 -81.3341, 147.268 -0 Z" stroke="none" fill="#FF2A00" fill-opacity="0.262745082" transform="matrix(0.555556 0 0 0.555556 530.27 154.532)" />
	<path d="M 147.268 -0 C 147.268 81.3341, 81.3341 147.268, -0 147.268, -81.3341 147.268, -147.268 81.3341, -147.268 -0, -147.268 -81.3341, -81.3341 -147.268, -0 -147.268, 81.3341 -147.268, 147.268 -81.3341, 147.268 -0 Z" fill="none" stroke="#FF2A00" stroke-width="1.79999995" stroke-linecap="round" stroke-linejoin="round" transform="matrix(0.555556 0 0 0.555556 530.27 154.532)" />
	<path d="M 256.762 -0 C 256.762 81.3315, 141.806 147.264, -0 147.264, -141.806 147.264, -256.762 81.3315, -256.762 -0, -256.762 -81.3315, -141.806 -147.264, -0 -147.264, 141.806 -147.264, 256.762 -81.3315, 256.762 -0 Z" stroke="none" fill="#0006BF" fill-opacity="0.235294104" transform="matrix(0.555556 0 0 0.555556 150.77 154.532)" />
	<path d="M 256.762 -0 C 256.762 81.3315, 141.806 147.264, -0 147.264, -141.806 147.264, -256.762 81.3315, -256.762 -0, -256.762 -81.3315, -141.806 -147.264, -0 -147.264, 141.806 -147.264, 256.762 -81.3315, 256.762 -0 Z" fill="none" stroke="#0006BF" stroke-width="1.79999995" stroke-linecap="round" stroke-linejoin="round" transform="matrix(0.555556 0 0 0.555556 150.77 154.532)" />
	<path d="M 2.49463 -262.857 L -2.49451 262.857" fill="none" stroke="#000000" stroke-width="0.899999976" stroke-linecap="round" stroke-linejoin="round" stroke-dasharray="3.1545, 2.2455" transform="matrix(0.555556 0 0 0.555556 150.77 154.532)" />
	<path d="M 147.268 -0 C 147.268 81.3341, 81.3341 147.268, -0 147.268, -81.3341 147.268, -147.268 81.3341, -147.268 -0, -147.268 -81.3341, -81.3341 -147.268, -0 -147.268, 81.3341 -147.268, 147.268 -81.3341, 147.268 -0 Z" stroke="none" fill="#FF2A00" fill-opacity="0.262745082" transform="matrix(0.555556 0 0 0.555556 150.895 154.532)" />
	<path d="M 147.268 -0 C 147.268 81.3341, 81.3341 147.268, -0 147.268, -81.3341 147.268, -147.268 81.3341, -147.268 -0, -147.268 -81.3341, -81.3341 -147.268, -0 -147.268, 81.3341 -147.268, 147.268 -81.3341, 147.268 -0 Z" fill="none" stroke="#FF2A00" stroke-width="1.79999995" stroke-linecap="round" stroke-linejoin="round" transform="matrix(0.555556 0 0 0.555556 150.895 154.532)" />
	<g transform="matrix(1 0 -0 1 126.918 312.769)">
		<svg width="140.944595" height="50.9380569">
			<defs />
			<path d="M 3.54242 12.0877 C 3.58597 10.908, 3.60576 9.69673, 3.60576 8.4498, 3.60576 7.20684, 3.58597 6.03116, 3.54242 4.9307, 2.75864 5.69469, 1.73735 6.45472, 0.474589 7.21079 L 0.343958 7.02079 C 1.73735 5.96783, 2.88135 4.80799, 3.77201 3.54127, 4.66268 2.27455, 5.26041 1.26118, 5.56521 0.497187 L 6.86756 1.38389, 6.21441 1.63723, 5.62855 2.39726, 9.41287 2.39726, 10.066 1.70057, 11.1744 2.77728 C 10.7865 2.86437, 10.4144 3.07813, 10.066 3.4146, 9.71767 3.75503, 9.06452 4.42797, 8.10657 5.43739 L 11.305 5.43739, 11.9582 4.80403, 12.8686 5.69073, 12.2828 6.07075 C 12.2828 8.65169, 12.3065 10.3182, 12.3501 11.0743 L 11.3684 11.5176, 11.3684 5.8174, 4.52017 5.8174, 4.52017 11.6443 Z M 7.71468 5.43739 L 9.47621 2.77728, 5.49792 2.77728 C 4.80122 3.58481, 4.12828 4.32109, 3.47513 4.99404 L 4.45288 5.43739 Z M 8.36783 8.16083 C 8.28074 10.7418, 7.57613 12.4716, 6.25003 13.3583, 4.92394 14.245, 2.97636 14.9378, 0.411253 15.4445 L 0.411253 15.1911 C 3.19407 14.3915, 4.99915 13.5721, 5.82647 12.725, 6.6538 11.8818, 7.1209 10.8882, 7.22778 9.74819, 7.33862 8.60814, 7.39008 7.6581, 7.39008 6.89412 L 8.89035 7.65415 Z M 8.62909 12.0877 L 8.69638 11.8343 C 10.0027 12.1352, 11.0794 12.4202, 11.9265 12.6933, 12.7736 12.9704, 13.3397 13.2633, 13.6208 13.58, 13.9058 13.8967, 14.0443 14.158, 14.0443 14.3678, 14.0443 14.4548, 14.0126 14.5815, 13.9493 14.7478, 13.886 14.918, 13.8068 15.0011, 13.7197 15.0011, 13.5455 15.0011, 13.1774 14.7478, 12.6074 14.2411, 11.8711 13.5286, 10.545 12.8081, 8.62909 12.0877 Z" stroke="none" fill="#000000" />
			<path d="M 16.2037 15.1911 C 16.2472 13.9244, 16.267 12.6616, 16.267 11.3949, 16.267 10.1282, 16.2472 8.88128, 16.2037 7.65415 L 17.1815 8.22417, 20.3799 8.22417, 20.9658 7.65415, 21.9435 8.47751, 21.3577 8.85753 C 21.3577 12.0283, 21.3814 13.9046, 21.421 14.4944 L 20.5105 15.0011, 20.5105 13.9877, 17.1181 13.9877, 17.1181 14.7478 Z M 17.1181 8.60419 L 17.1181 10.8843, 20.5105 10.8843, 20.5105 8.60419 Z M 17.1181 11.2643 L 17.1181 13.6077, 20.5105 13.6077, 20.5105 11.2643 Z M 19.9207 3.98066 L 19.9207 5.8174, 25.7951 5.8174, 25.7951 3.98066 Z M 26.6423 2.08058 C 26.6423 4.66152, 26.666 6.15784, 26.7056 6.57744 L 25.7951 7.02079, 25.7951 6.19742, 19.9207 6.19742, 19.9207 6.83078, 19.0103 7.21079 C 19.0538 6.20138, 19.0736 5.14842, 19.0736 4.04796, 19.0736 2.95145, 19.0538 1.91433, 19.0103 0.940538 L 19.988 1.44723, 25.6645 1.44723, 26.2504 0.813867, 27.2954 1.63723 Z M 19.9207 1.82724 L 19.9207 3.60065, 25.7951 3.60065, 25.7951 1.82724 Z M 28.859 8.85753 C 28.859 11.9452, 28.8828 13.8611, 28.9263 14.6211 L 28.0119 15.0644, 28.0119 13.9877, 24.3582 13.9877, 24.3582 14.7478, 23.4438 15.1911 C 23.4913 13.8413, 23.5111 12.5904, 23.5111 11.4266, 23.5111 10.2668, 23.4913 9.00795, 23.4438 7.65415 L 24.4215 8.22417, 27.8813 8.22417, 28.4671 7.65415, 29.4449 8.47751 Z M 24.3582 8.60419 L 24.3582 10.8843, 28.0119 10.8843, 28.0119 8.60419 Z M 24.3582 11.2643 L 24.3582 13.6077, 28.0119 13.6077, 28.0119 11.2643 Z" stroke="none" fill="#000000" />
			<path d="M 32.5147 15.3178 C 32.5622 13.9679, 32.5819 12.915, 32.5819 12.151 L 32.5819 5.6274 C 31.8853 6.72786, 31.0381 7.76498, 30.0366 8.73086 L 29.8387 8.54085 C 30.8402 7.32163, 31.6992 5.85303, 32.4157 4.14296, 33.1361 2.43289, 33.5597 1.24138, 33.6903 0.560522 L 35.06 1.44723, 34.5374 1.70057 C 33.8407 3.09792, 33.2984 4.19442, 32.9065 4.99404 L 33.9516 5.56406, 33.4291 6.00741, 33.4291 14.8111 Z M 39.8854 12.341 C 39.8854 13.1485, 39.9091 13.9679, 39.9527 14.8111 L 38.9076 15.2545 C 38.9551 13.9046, 38.9749 12.9981, 38.9749 12.531 L 38.9749 11.7076, 37.9299 11.7076 C 37.3678 11.7116, 36.8452 11.7749, 36.3623 11.8977 L 35.7765 11.3276, 38.9749 11.3276, 38.9749 5.24738 C 38.3218 6.81495, 37.5617 8.16479, 36.6909 9.30484, 35.82 10.4449, 34.8858 11.3949, 33.8843 12.151 L 33.6903 11.961 C 34.5177 11.2049, 35.3569 10.1282, 36.204 8.73482, 37.0511 7.34143, 37.6924 6.01137, 38.1238 4.74069 L 36.6909 4.74069 C 36.1288 4.74465, 35.6062 4.80799, 35.1233 4.9307 L 34.5374 4.36068, 38.9749 4.36068, 38.9749 2.4606 C 38.9749 2.041, 38.9551 1.43139, 38.9076 0.623858 L 40.4752 1.32055, 39.8854 1.76391, 39.8854 4.36068, 42.8226 4.36068, 43.6697 3.53731, 44.9087 4.74069, 40.4752 4.74069 C 41.0848 6.51806, 41.833 7.94312, 42.7236 9.01983, 43.6182 10.0965, 44.4337 10.7616, 45.17 11.011 L 45.17 11.2643 C 44.4772 11.2683, 44.022 11.4583, 43.8003 11.8343, 43.1907 11.3751, 42.5296 10.4686, 41.8132 9.11483, 41.0967 7.76498, 40.5425 6.30826, 40.1466 4.74069 L 39.8854 4.74069, 39.8854 11.3276, 41.1917 11.3276, 41.9755 10.5676, 43.1472 11.7076, 39.8854 11.7076 Z" stroke="none" fill="#000000" />
			<rect />
		</svg>
	</g>
	<path d="M 66.3547 -0 C 66.3547 81.3315, 36.6467 147.264, -0 147.264, -36.6467 147.264, -66.3547 81.3315, -66.3547 -0, -66.3547 -81.3315, -36.6467 -147.264, -0 -147.264, 36.6467 -147.264, 66.3547 -81.3315, 66.3547 -0 Z" stroke="none" fill="#0006BF" fill-opacity="0.235294104" transform="matrix(0.555556 0 0 0.555556 530.146 154.532)" />
	<path d="M 66.3547 -0 C 66.3547 81.3315, 36.6467 147.264, -0 147.264, -36.6467 147.264, -66.3547 81.3315, -66.3547 -0, -66.3547 -81.3315, -36.6467 -147.264, -0 -147.264, 36.6467 -147.264, 66.3547 -81.3315, 66.3547 -0 Z" fill="none" stroke="#0006BF" stroke-width="1.79999995" stroke-linecap="round" stroke-linejoin="round" transform="matrix(0.555556 0 0 0.555556 530.146 154.532)" />
	<path d="M 2.49463 -262.857 L -2.49463 262.857" fill="none" stroke="#000000" stroke-width="0.899999976" stroke-linecap="round" stroke-linejoin="round" stroke-dasharray="3.1545, 2.2455" transform="matrix(0.555556 0 0 0.555556 530.146 154.532)" />
	<g transform="matrix(1 0 -0 1 506.293 312.769)">
		<svg width="140.944595" height="50.9380569">
			<defs />
			<path d="M 3.22178 6.89412 C 3.22178 6.60119, 3.20199 6.0945, 3.15449 5.37405 L 4.78935 6.13408, 4.1362 6.57744, 4.1362 13.7344, 7.40196 13.7344, 7.40196 2.39726, 3.41575 2.39726 C 2.85364 2.40122, 2.33112 2.46456, 1.84819 2.58727 L 1.26233 2.01725, 12.2986 2.01725, 13.2803 1.06721, 14.65 2.39726, 8.31637 2.39726, 8.31637 7.4008, 11.5148 7.4008, 12.4292 6.5141, 13.7355 7.78082, 8.31637 7.78082, 8.31637 13.7344, 12.2986 13.7344, 13.3437 12.721, 14.7806 14.1144, 2.17674 14.1144 C 1.61068 14.1144, 1.08816 14.1777, 0.609177 14.3044 L 0.0193616 13.7344, 3.22178 13.7344 Z" stroke="none" fill="#000000" />
			<path d="M 16.2037 15.1911 C 16.2472 13.9244, 16.267 12.6616, 16.267 11.3949, 16.267 10.1282, 16.2472 8.88128, 16.2037 7.65415 L 17.1815 8.22417, 20.3799 8.22417, 20.9658 7.65415, 21.9435 8.47751, 21.3577 8.85753 C 21.3577 12.0283, 21.3814 13.9046, 21.421 14.4944 L 20.5105 15.0011, 20.5105 13.9877, 17.1181 13.9877, 17.1181 14.7478 Z M 17.1181 8.60419 L 17.1181 10.8843, 20.5105 10.8843, 20.5105 8.60419 Z M 17.1181 11.2643 L 17.1181 13.6077, 20.5105 13.6077, 20.5105 11.2643 Z M 19.9207 3.98066 L 19.9207 5.8174, 25.7951 5.8174, 25.7951 3.98066 Z M 26.6423 2.08058 C 26.6423 4.66152, 26.666 6.15784, 26.7056 6.57744 L 25.7951 7.02079, 25.7951 6.19742, 19.9207 6.19742, 19.9207 6.83078, 19.0103 7.21079 C 19.0538 6.20138, 19.0736 5.14842, 19.0736 4.04796, 19.0736 2.95145, 19.0538 1.91433, 19.0103 0.940538 L 19.988 1.44723, 25.6645 1.44723, 26.2504 0.813867, 27.2954 1.63723 Z M 19.9207 1.82724 L 19.9207 3.60065, 25.7951 3.60065, 25.7951 1.82724 Z M 28.859 8.85753 C 28.859 11.9452, 28.8828 13.8611, 28.9263 14.6211 L 28.0119 15.0644, 28.0119 13.9877, 24.3582 13.9877, 24.3582 14.7478, 23.4438 15.1911 C 23.4913 13.8413, 23.5111 12.5904, 23.5111 11.4266, 23.5111 10.2668, 23.4913 9.00795, 23.4438 7.65415 L 24.4215 8.22417, 27.8813 8.22417, 28.4671 7.65415, 29.4449 8.47751 Z M 24.3582 8.60419 L 24.3582 10.8843, 28.0119 10.8843, 28.0119 8.60419 Z M 24.3582 11.2643 L 24.3582 13.6077, 28.0119 13.6077, 28.0119 11.2643 Z" stroke="none" fill="#000000" />
			<path d="M 32.5147 15.3178 C 32.5622 13.9679, 32.5819 12.915, 32.5819 12.151 L 32.5819 5.6274 C 31.8853 6.72786, 31.0381 7.76498, 30.0366 8.73086 L 29.8387 8.54085 C 30.8402 7.32163, 31.6992 5.85303, 32.4157 4.14296, 33.1361 2.43289, 33.5597 1.24138, 33.6903 0.560522 L 35.06 1.44723, 34.5374 1.70057 C 33.8407 3.09792, 33.2984 4.19442, 32.9065 4.99404 L 33.9516 5.56406, 33.4291 6.00741, 33.4291 14.8111 Z M 39.8854 12.341 C 39.8854 13.1485, 39.9091 13.9679, 39.9527 14.8111 L 38.9076 15.2545 C 38.9551 13.9046, 38.9749 12.9981, 38.9749 12.531 L 38.9749 11.7076, 37.9299 11.7076 C 37.3678 11.7116, 36.8452 11.7749, 36.3623 11.8977 L 35.7765 11.3276, 38.9749 11.3276, 38.9749 5.24738 C 38.3218 6.81495, 37.5617 8.16479, 36.6909 9.30484, 35.82 10.4449, 34.8858 11.3949, 33.8843 12.151 L 33.6903 11.961 C 34.5177 11.2049, 35.3569 10.1282, 36.204 8.73482, 37.0511 7.34143, 37.6924 6.01137, 38.1238 4.74069 L 36.6909 4.74069 C 36.1288 4.74465, 35.6062 4.80799, 35.1233 4.9307 L 34.5374 4.36068, 38.9749 4.36068, 38.9749 2.4606 C 38.9749 2.041, 38.9551 1.43139, 38.9076 0.623858 L 40.4752 1.32055, 39.8854 1.76391, 39.8854 4.36068, 42.8226 4.36068, 43.6697 3.53731, 44.9087 4.74069, 40.4752 4.74069 C 41.0848 6.51806, 41.833 7.94312, 42.7236 9.01983, 43.6182 10.0965, 44.4337 10.7616, 45.17 11.011 L 45.17 11.2643 C 44.4772 11.2683, 44.022 11.4583, 43.8003 11.8343, 43.1907 11.3751, 42.5296 10.4686, 41.8132 9.11483, 41.0967 7.76498, 40.5425 6.30826, 40.1466 4.74069 L 39.8854 4.74069, 39.8854 11.3276, 41.1917 11.3276, 41.9755 10.5676, 43.1472 11.7076, 39.8854 11.7076 Z" stroke="none" fill="#000000" />
			<rect />
		</svg>
	</g>
</svg>
