<?xml version="1.0"?>
<svg xmlns="http://www.w3.org/2000/svg" xmlns:xlink="http://www.w3.org/1999/xlink" width="471.078064" height="265.134979">
	<defs>
		<marker id="CustomMarker-01" markerUnits="strokeWidth" markerWidth="15.000001" markerHeight="9" viewBox="-15 -4.5 15 9" orient="auto-start-reverse">
			<path d="M 0 -0 L -10 -3, -8 -0.5, -8 0.5, -10 3 Z" fill="#FF2A00" stroke="#FF2A00" stroke-linejoin="round" />
		</marker>
		<marker id="CustomMarker-02" markerUnits="strokeWidth" markerWidth="15.000001" markerHeight="9" viewBox="-15 -4.5 15 9" orient="auto-start-reverse">
			<path d="M 0 -0 L -10 -3, -8 -0.5, -8 0.5, -10 3 Z" fill="#FF2A00" stroke="#FF2A00" stroke-linejoin="round" />
		</marker>
		<marker id="CustomMarker-03" markerUnits="strokeWidth" markerWidth="15.000001" markerHeight="9" viewBox="-15 -4.5 15 9" orient="auto-start-reverse">
			<path d="M 0 -0 L -10 -3, -8 -0.5, -8 0.5, -10 3 Z" fill="#000000" stroke="#000000" stroke-linejoin="round" />
		</marker>
		<marker id="CustomMarker-04" markerUnits="strokeWidth" markerWidth="15.000001" markerHeight="9" viewBox="-15 -4.5 15 9" orient="auto-start-reverse">
			<path d="M 0 -0 L -10 -3, -8 -0.5, -8 0.5, -10 3 Z" fill="#000000" stroke="#000000" stroke-linejoin="round" />
		</marker>
		<marker id="CustomMarker-05" markerUnits="strokeWidth" markerWidth="15.000001" markerHeight="9" viewBox="-15 -4.5 15 9" orient="auto-start-reverse">
			<path d="M 0 -0 L -10 -3, -8 -0.5, -8 0.5, -10 3 Z" fill="#000000" stroke="#000000" stroke-linejoin="round" />
		</marker>
		<marker id="CustomMarker-06" markerUnits="strokeWidth" markerWidth="15.000001" markerHeight="9" viewBox="-15 -4.5 15 9" orient="auto-start-reverse">
			<path d="M 0 -0 L -10 -3, -8 -0.5, -8 0.5, -10 3 Z" fill="#000000" stroke="#000000" stroke-linejoin="round" />
		</marker>
		<marker id="CustomMarker-07" markerUnits="strokeWidth" markerWidth="15.000001" markerHeight="9" viewBox="-15 -4.5 15 9" orient="auto-start-reverse">
			<path d="M 0 -0 L -10 -3, -8 -0.5, -8 0.5, -10 3 Z" fill="#000000" stroke="#000000" stroke-linejoin="round" />
		</marker>
	</defs>
	<rect x="-0" y="-0" width="471.078064" height="265.134979" stroke="none" fill="#FFFFFF" />
	<path d="M -465.12 274.56 L -465.12 22.08, -215.52 -274.56, 465.12 -274.56, 465.12 -22.08, 215.52 274.56 Z" fill="none" stroke="#000000" stroke-width="2.4000001" stroke-linecap="round" stroke-linejoin="round" transform="matrix(0.416667 0 -0 0.416667 268.779 122.9)" />
	<path d="M -465.12 22.08 L 215.52 22.08" fill="none" stroke="#000000" stroke-width="2.4000001" stroke-linecap="round" stroke-linejoin="round" transform="matrix(0.416667 0 -0 0.416667 268.779 122.9)" />
	<path d="M 465.12 -274.56 L 215.52 22.08" fill="none" stroke="#000000" stroke-width="2.4000001" stroke-linecap="round" stroke-linejoin="round" transform="matrix(0.416667 0 -0 0.416667 268.779 122.9)" />
	<path d="M 215.52 274.56 L 215.52 22.08" fill="none" stroke="#000000" stroke-width="2.4000001" stroke-linecap="round" stroke-linejoin="round" transform="matrix(0.416667 0 -0 0.416667 268.779 122.9)" />
	<path d="M -465.12 274.56 L -215.52 -22.08" fill="none" stroke="#000000" stroke-width="1.20000005" stroke-linecap="round" stroke-linejoin="round" stroke-dasharray="1.806, 2.994" transform="matrix(0.416667 0 -0 0.416667 268.779 122.9)" />
	<path d="M -215.52 -274.56 L -215.52 -22.08" fill="none" stroke="#000000" stroke-width="1.20000005" stroke-linecap="round" stroke-linejoin="round" stroke-dasharray="1.806, 2.994" transform="matrix(0.416667 0 -0 0.416667 268.779 122.9)" />
	<path d="M 465.12 -22.08 L -215.52 -22.08" fill="none" stroke="#000000" stroke-width="1.20000005" stroke-linecap="round" stroke-linejoin="round" stroke-dasharray="1.806, 2.994" transform="matrix(0.416667 0 -0 0.416667 268.779 122.9)" />
	<path d="M 465.119 -274.56 L 215.52 22.0799, -465.119 274.56, -215.52 -22.0799 Z" stroke="none" fill="#0006BF" fill-opacity="0.199999988" transform="matrix(0.416667 0 0 0.416667 268.779 122.9)" />
	<path d="M 465.119 -274.56 L 215.52 22.0799, -465.119 274.56, -215.52 -22.0799 Z" fill="none" stroke="#000000" stroke-width="2.4000001" stroke-linecap="round" stroke-linejoin="round" transform="matrix(0.416667 0 0 0.416667 268.779 122.9)" />
	<path d="M -418.535 155.253 L 418.535 -155.254" fill="none" stroke="#44E500" stroke-width="4" stroke-linecap="round" stroke-linejoin="round" stroke-dasharray="14.02, 9.98" transform="matrix(0.416667 0 0 0.416667 220.922 183.163)" />
	<g transform="matrix(1 0 -0 1 8.24996 239.046)">
		<svg width="95.8984451" height="50.9380569">
			<defs />
			<path d="M 2.43404 2.4606 L 2.56467 2.27059 C 3.99765 3.24438, 4.8131 3.92128, 5.01102 4.3013, 5.20895 4.68132, 5.30395 4.9782, 5.30395 5.18404, 5.30395 5.44135, 5.22874 5.6749, 5.07436 5.8847, 4.92394 6.09846, 4.80122 6.20138, 4.71414 6.19742, 4.53996 6.20138, 4.38954 5.92824, 4.25891 5.37405, 3.99765 4.61798, 3.392 3.64815, 2.43404 2.4606 Z M 6.93485 6.95745 L 6.93485 3.28397 C 6.93485 2.61102, 6.91506 1.76786, 6.86756 0.75053 L 8.43512 1.38389, 7.84531 1.95391, 7.84531 6.95745, 8.95764 6.95745 C 9.82851 5.56802, 10.545 4.04796, 11.1071 2.39726 L 12.4807 3.3473, 11.8909 3.66398 C 10.9369 4.9782, 10.0898 6.07471, 9.34558 6.95745 L 12.4807 6.95745, 13.3912 6.07075, 14.6302 7.33747, 9.28224 7.33747, 9.28224 12.9744 C 9.28224 13.6948, 9.6108 14.0511, 10.26 14.0511 L 12.8686 14.0511 C 13.1774 14.0511, 13.3714 13.8531, 13.4585 13.4533, 13.5455 13.0535, 13.6326 12.0916, 13.7197 10.5676 L 14.0443 10.5676 C 14.0443 11.6681, 14.0879 12.4202, 14.1749 12.82, 14.262 13.2237, 14.5233 13.5483, 14.9587 13.7977, 14.6539 14.4311, 14.1116 14.7715, 13.3278 14.8111 L 10.066 14.8111 C 8.98139 14.8111, 8.43512 14.3044, 8.43512 13.291 L 8.43512 7.33747, 5.88981 7.33747 C 5.76314 9.70465, 5.30395 11.4503, 4.52017 12.5666, 3.73639 13.6869, 2.19258 14.6448, -0.111269 15.4445 L -0.178563 15.1911 C 1.91152 14.2648, 3.26929 13.2119, 3.89869 12.0283, 4.53205 10.8487, 4.86852 9.28505, 4.91206 7.33747 L 2.17278 7.33747 C 1.60672 7.34143, 1.0842 7.40476, 0.605219 7.52747 L 0.0193616 6.95745 Z" stroke="none" fill="#000000" />
			<path d="M 25.9217 9.11087 L 25.9217 13.0377, 28.2691 13.0377, 28.2691 9.11087 Z M 29.0529 13.0377 C 29.0529 13.5483, 29.0767 14.0313, 29.1162 14.4944 L 28.2691 14.8744, 28.2691 13.4177, 22.8539 13.4177, 22.8539 14.6211, 22.0068 14.9378 C 22.0503 13.5919, 22.0701 11.7551, 22.0701 9.43151, 22.0701 7.11183, 22.0503 5.33447, 22.0068 4.10733 L 22.8539 4.61402, 25.138 4.61402 C 25.138 2.7179, 25.1182 1.38785, 25.0707 0.623858 L 26.4403 1.25722, 25.9217 1.70057, 25.9217 4.61402, 28.2018 4.61402, 28.5937 4.044, 29.5715 4.74069, 29.0529 5.12071 Z M 22.8539 4.99404 L 22.8539 8.73086, 25.138 8.73086, 25.138 4.99404 Z M 25.9217 4.99404 L 25.9217 8.73086, 28.2691 8.73086, 28.2691 4.99404 Z M 22.8539 9.11087 L 22.8539 13.0377, 25.138 13.0377, 25.138 9.11087 Z M 19.1369 10.9476 C 19.1369 12.9783, 19.1606 14.348, 19.2002 15.0644 L 18.2858 15.5078 C 18.3333 13.8611, 18.3531 12.4281, 18.3531 11.201, 17.0468 11.6681, 16.2234 11.9847, 15.8751 12.151 L 15.4832 12.5943, 14.7627 11.5176 C 15.9384 11.3118, 17.1339 11.0149, 18.3531 10.6309 L 18.3531 7.97083, 16.4609 7.97083, 15.9384 8.28751, 15.2853 7.46414 C 15.6336 7.29788, 15.9305 6.89807, 16.168 6.26471, 16.4055 5.63136, 16.6984 4.7882, 17.0468 3.72732, 16.5718 3.73128, 16.0928 3.79461, 15.6138 3.91733 L 15.024 3.3473, 17.1774 3.3473 C 17.3516 2.7179, 17.4822 2.19142, 17.5693 1.76786, 17.6564 1.34826, 17.7237 0.924705, 17.7672 0.497187 L 19.0696 1.25722 C 18.7687 1.26118, 18.4204 1.93808, 18.0245 3.28397 L 19.8534 3.28397, 20.6371 2.52394, 21.7455 3.66398, 17.8939 3.66398, 16.4609 7.59081, 18.3531 7.59081 C 18.3531 6.41118, 18.3333 5.37801, 18.2858 4.48735 L 19.6554 5.18404, 19.1369 5.56406, 19.1369 7.59081, 19.984 7.59081, 20.7678 6.83078, 21.7455 7.97083, 19.1369 7.97083, 19.1369 10.4409, 21.4843 9.80757, 21.5476 9.99758 Z" stroke="none" fill="#000000" />
			<rect />
		</svg>
	</g>
	<path d="M -68.7385 81.6927 L 68.7385 -81.6929" fill="none" stroke="#FF2A00" stroke-width="2.4000001" stroke-linecap="round" stroke-linejoin="round" marker-end="url(#CustomMarker-01)" transform="matrix(0.416667 0 0 0.416667 177.738 222.596)" />
	<path d="M -124.8 148.32 L 124.8 -148.32" fill="none" stroke="#FF2A00" stroke-width="2.4000001" stroke-linecap="round" stroke-linejoin="round" stroke-dasharray="8.412, 5.988" marker-end="url(#CustomMarker-02)" transform="matrix(0.416667 0 0 0.416667 258.379 126.757)" />
	<path d="M -124.8 148.318 L 124.799 -148.318" fill="none" stroke="#000000" stroke-width="2.4000001" stroke-linecap="round" stroke-linejoin="round" marker-start="url(#CustomMarker-03)" marker-end="url(#CustomMarker-04)" transform="matrix(0.416667 0 0 0.416667 410.579 126.758)" />
	<g transform="matrix(1 0 -0 1 415.444 123.294)">
		<svg width="27.073843" height="38.9535408">
			<defs />
			<path d="M 4.82532 11.5925 C 4.7367 11.9002, 4.69217 12.1687, 4.69217 12.3986, 4.69217 12.4616, 4.69712 12.5214, 4.70701 12.5785, 4.73175 12.8093, 4.84781 12.9244, 5.05518 12.924, 5.15909 12.9244, 5.2567 12.8812, 5.34802 12.7949, 5.43979 12.7085, 5.5239 12.5803, 5.60037 12.4098, 5.67685 12.2398, 5.74972 12.0356, 5.81899 11.7981, 5.88827 11.5606, 5.95979 11.3028, 6.03356 11.0239, 6.06325 10.8998, 6.14737 10.8372, 6.28591 10.8368 L 6.4564 10.8368 C 6.58505 10.8372, 6.64893 10.8899, 6.64893 10.9951 L 6.64893 11.0455 C 6.59 11.2812, 6.52342 11.5331, 6.4492 11.8017, 6.37498 12.0707, 6.27602 12.3199, 6.15231 12.5502, 6.02906 12.7805, 5.87342 12.9798, 5.68539 13.1475, 5.49781 13.3153, 5.263 13.399, 4.98096 13.399, 4.6058 13.399, 4.30532 13.2951, 4.0804 13.0864, 3.85549 12.8777, 3.72594 12.6653, 3.6913 12.449, 3.52306 12.6415, 3.27251 12.848, 2.93874 13.0684, 2.60541 13.2888, 2.2532 13.399, 1.88254 13.399, 1.49209 13.399, 1.16461 13.3009, 0.900111 13.1044, 0.635611 12.9078, 0.429589 12.6604, 0.281146 12.3626, 0.103463 12.0081, 0.00944906 11.6267, -0.000447214 11.2182 L -0.000447214 11.1103 C -0.000447214 10.7315, 0.051733 10.3528, 0.155194 9.9731, 0.273949 9.55611, 0.439486 9.14362, 0.651805 8.73562, 0.864574 8.32808, 1.14617 7.94887, 1.49703 7.59801, 1.78402 7.31057, 2.1115 7.06856, 2.47946 6.87153, 2.84742 6.67496, 3.22168 6.57645, 3.60223 6.57599, 3.93331 6.57645, 4.20276 6.66416, 4.41013 6.83915, 4.61795 7.01458, 4.74885 7.16167, 4.80328 7.28133 L 5.60397 4.1865 C 5.64356 4.02861, 5.66785 3.90851, 5.67774 3.82664 L 5.67774 3.81944 C 5.67774 3.77176, 5.66065 3.73577, 5.62601 3.71148, 5.58193 3.6737, 5.47802 3.64716, 5.31473 3.63276, 5.15189 3.61837, 4.96387 3.61117, 4.7511 3.61072, 4.613 3.61117, 4.54373 3.5464, 4.54373 3.4164 L 4.54373 3.35882, 4.58826 3.23646 C 4.61795 3.12671, 4.70701 3.05473, 4.85501 3.02055 L 6.26342 2.90539, 6.80457 2.86221, 6.83426 2.86221 C 6.89363 2.86266, 6.94581 2.88425, 6.9899 2.92698, 7.00519 2.97061, 7.01239 3.01155, 7.01239 3.04933 L 7.01239 3.09972 Z M 4.52888 8.3969 C 4.50909 8.31099, 4.492 8.22102, 4.47715 8.12746, 4.46231 8.03389, 4.43982 7.94168, 4.41013 7.84991, 4.33141 7.625, 4.21895 7.43652, 4.0732 7.28538, 3.92746 7.13423, 3.74303 7.05866, 3.52081 7.05821, 3.31344 7.05866, 3.10832 7.13333, 2.90545 7.28178, 2.70303 7.43067, 2.5177 7.6223, 2.34946 7.85711, 2.1124 8.18863, 1.93472 8.5332, 1.81596 8.89037, 1.69721 9.24798, 1.58835 9.62089, 1.48939 10.0091, 1.39087 10.3932, 1.30945 10.7653, 1.24468 11.1247, 1.20554 11.3073, 1.18575 11.48, 1.18575 11.6429, 1.18575 11.8161, 1.20554 11.9838, 1.24468 12.1467, 1.28966 12.3725, 1.36973 12.5587, 1.48579 12.7049, 1.60184 12.8516, 1.76378 12.9244, 1.97115 12.924, 2.19877 12.9244, 2.42728 12.8453, 2.65714 12.6869, 2.88701 12.5286, 3.10067 12.3343, 3.29815 12.1035, 3.37732 12.0081, 3.45289 11.9159, 3.52441 11.8268, 3.59639 11.7382, 3.65936 11.6433, 3.71334 11.5421 L 4.52888 8.3969 Z" stroke="none" fill="#000000" />
			<rect />
		</svg>
	</g>
	<path d="M -17.4503 84.0996 L 17.4507 -84.0996" fill="none" stroke="#000000" stroke-width="2.4000001" stroke-linecap="round" stroke-linejoin="round" marker-end="url(#CustomMarker-05)" transform="matrix(0.416667 0 0 0.416667 213.65 153.516)" />
	<g transform="matrix(1 0 -0 1 222.557 112.699)">
		<svg width="32.9815331" height="38.9535408">
			<defs />
			<path d="M 9.7415 13.0175 C 9.68752 13.1615, 9.5935 13.2335, 9.45991 13.2335, 8.96599 13.2047, 8.47388 13.1903, 7.98447 13.1903 L 7.73976 13.1903 C 7.16173 13.2002, 6.581 13.2146, 5.99802 13.2335, 5.86487 13.2335, 5.7929 13.1714, 5.783 13.0463 L 5.783 12.9888, 5.81269 12.8664 C 5.85228 12.7085, 5.94854 12.6316, 6.10148 12.6361, 6.28456 12.6365, 6.44785 12.6307, 6.5909 12.6185, 6.73439 12.6069, 6.87294 12.5646, 7.00609 12.4921, 7.05557 12.4688, 7.09785 12.435, 7.13204 12.3914, 7.15183 12.3536, 7.16443 12.3149, 7.16893 12.2762 L 7.16893 12.233, 6.99124 9.84355, 3.64047 9.84355, 2.46192 11.8588 C 2.39759 11.9744, 2.3652 12.0801, 2.3652 12.1755, 2.3652 12.2573, 2.38994 12.332, 2.43942 12.3986, 2.54828 12.5574, 2.75116 12.6365, 3.04714 12.6361, 3.18074 12.6365, 3.25226 12.6941, 3.26216 12.8088, 3.26216 12.8381, 3.25721 12.8691, 3.24732 12.9024 L 3.21808 13.0175 C 3.16365 13.1615, 3.06738 13.2335, 2.92884 13.2335, 2.47451 13.2146, 2.02468 13.2002, 1.57935 13.1903 L 1.37963 13.1903 C 0.994123 13.1903, 0.603671 13.2047, 0.208272 13.2335, 0.13405 13.2335, 0.0796205 13.2096, 0.0449836 13.1615, 0.0152949 13.1332, 0.000450552 13.0994, 0.000450552 13.0607, 0.000450552 13.0324, 0.00539869 13.0036, 0.0152949 12.9744 L 0.0449836 12.8664 C 0.0845686 12.7085, 0.181282 12.6316, 0.334224 12.6361, 0.492564 12.6365, 0.648204 12.6199, 0.801146 12.5862, 0.954538 12.5529, 1.09803 12.4926, 1.23118 12.4062, 1.36478 12.3199, 1.48848 12.2155, 1.60184 12.0931, 1.71565 11.9708, 1.81686 11.8327, 1.90593 11.6789 L 7.13924 2.71826 C 7.2283 2.58421, 7.34211 2.51944, 7.48066 2.52393 L 7.62145 2.52393 C 7.77979 2.52438, 7.86841 2.59861, 7.8882 2.74705 L 8.54045 12.1251 C 8.55035 12.2501, 8.5652 12.3451, 8.58499 12.4098, 8.60478 12.4746, 8.63942 12.5214, 8.6889 12.5497, 8.75817 12.5934, 8.87288 12.6185, 9.03347 12.6257, 9.19451 12.6329, 9.37579 12.6365, 9.57821 12.6361, 9.71676 12.6365, 9.78603 12.6941, 9.78603 12.8088, 9.78603 12.8381, 9.78108 12.8691, 9.77119 12.9024 Z M 6.63543 4.74069 L 3.99628 9.26058, 6.94671 9.26058 Z" stroke="none" fill="#000000" />
			<rect />
		</svg>
	</g>
	<path d="M 25.1309 67.7484 L -25.1308 -67.7476" fill="none" stroke="#000000" stroke-width="2.4000001" stroke-linecap="round" stroke-linejoin="round" marker-end="url(#CustomMarker-06)" transform="matrix(0.416667 0 0 0.416667 195.908 160.329)" />
	<g transform="matrix(1 0 -0 1 173.398 131.068)">
		<svg width="48.0461464" height="44.9458008">
			<defs />
			<path d="M 9.7415 13.0175 C 9.68752 13.1615, 9.5935 13.2335, 9.45991 13.2335, 8.96599 13.2047, 8.47388 13.1903, 7.98447 13.1903 L 7.73976 13.1903 C 7.16173 13.2002, 6.581 13.2146, 5.99802 13.2335, 5.86487 13.2335, 5.7929 13.1714, 5.783 13.0463 L 5.783 12.9888, 5.81269 12.8664 C 5.85228 12.7085, 5.94854 12.6316, 6.10148 12.6361, 6.28456 12.6365, 6.44785 12.6307, 6.5909 12.6185, 6.73439 12.6069, 6.87294 12.5646, 7.00609 12.4921, 7.05557 12.4688, 7.09785 12.435, 7.13204 12.3914, 7.15183 12.3536, 7.16443 12.3149, 7.16893 12.2762 L 7.16893 12.233, 6.99124 9.84355, 3.64047 9.84355, 2.46192 11.8588 C 2.39759 11.9744, 2.3652 12.0801, 2.3652 12.1755, 2.3652 12.2573, 2.38994 12.332, 2.43942 12.3986, 2.54828 12.5574, 2.75116 12.6365, 3.04714 12.6361, 3.18074 12.6365, 3.25226 12.6941, 3.26216 12.8088, 3.26216 12.8381, 3.25721 12.8691, 3.24732 12.9024 L 3.21808 13.0175 C 3.16365 13.1615, 3.06738 13.2335, 2.92884 13.2335, 2.47451 13.2146, 2.02468 13.2002, 1.57935 13.1903 L 1.37963 13.1903 C 0.994123 13.1903, 0.603671 13.2047, 0.208272 13.2335, 0.13405 13.2335, 0.0796205 13.2096, 0.0449836 13.1615, 0.0152949 13.1332, 0.000450552 13.0994, 0.000450552 13.0607, 0.000450552 13.0324, 0.00539869 13.0036, 0.0152949 12.9744 L 0.0449836 12.8664 C 0.0845686 12.7085, 0.181282 12.6316, 0.334224 12.6361, 0.492564 12.6365, 0.648204 12.6199, 0.801146 12.5862, 0.954538 12.5529, 1.09803 12.4926, 1.23118 12.4062, 1.36478 12.3199, 1.48848 12.2155, 1.60184 12.0931, 1.71565 11.9708, 1.81686 11.8327, 1.90593 11.6789 L 7.13924 2.71826 C 7.2283 2.58421, 7.34211 2.51944, 7.48066 2.52393 L 7.62145 2.52393 C 7.77979 2.52438, 7.86841 2.59861, 7.8882 2.74705 L 8.54045 12.1251 C 8.55035 12.2501, 8.5652 12.3451, 8.58499 12.4098, 8.60478 12.4746, 8.63942 12.5214, 8.6889 12.5497, 8.75817 12.5934, 8.87288 12.6185, 9.03347 12.6257, 9.19451 12.6329, 9.37579 12.6365, 9.57821 12.6361, 9.71676 12.6365, 9.78603 12.6941, 9.78603 12.8088, 9.78603 12.8381, 9.78108 12.8691, 9.77119 12.9024 Z M 6.63543 4.74069 L 3.99628 9.26058, 6.94671 9.26058 Z" stroke="none" fill="#000000" />
			<path d="M 1.97761 0.714441 C 1.91413 0.956522, 1.81362 1.1918, 1.67658 1.42003, 1.53955 1.6485, 1.36472 1.85658, 1.15161 2.0445, 0.96067 2.21126, 0.750581 2.34779, 0.520845 2.45384, 0.291108 2.55989, 0.0601118 2.61279, -0.172396 2.61279, -0.413216 2.61279, -0.622045 2.55989, -0.799134 2.45384, -0.976223 2.34779, -1.11603 2.20874, -1.2183 2.03644, -1.33443 1.84322, -1.40093 1.63238, -1.41756 1.40365, -1.4231 1.34748, -1.42587 1.29105, -1.42587 1.23437, -1.42587 1.06257, -1.4037 0.883973, -1.35962 0.69832, -1.29312 0.451453, -1.19135 0.213656, -1.05431 -0.0148215, -0.917277 -0.243047, -0.745226 -0.452883, -0.537657 -0.643827, -0.346714 -0.810083, -0.135618 -0.94586, 0.0953784 -1.05065, 0.326375 -1.15544, 0.558127 -1.20784, 0.790382 -1.20809, 1.02566 -1.20784, 1.23273 -1.15469, 1.41107 -1.04864, 1.58942 -0.942333, 1.73276 -0.804793, 1.84057 -0.635766, 1.95695 -0.442051, 2.02597 -0.228436, 2.04814 0.00507879 L 2.04814 0.170328 C 2.04814 0.350692, 2.02471 0.532063, 1.97761 0.714441 Z M 1.31334 -0.494699 C 1.26925 -0.626193, 1.19796 -0.732749, 1.09972 -0.81487, 1.00148 -0.896739, 0.881823 -0.937799, 0.740757 -0.938051, 0.602462 -0.937799, 0.46064 -0.895479, 0.315291 -0.810839, 0.170194 -0.726199, 0.0422266 -0.616621, -0.0686114 -0.482608, -0.217991 -0.307786, -0.332103 -0.118858, -0.410949 0.083925, -0.489795 0.28696, -0.557054 0.497048, -0.612473 0.714441, -0.66764 0.929568, -0.710464 1.13789, -0.741196 1.33916, -0.75228 1.4039, -0.757822 1.46436, -0.757822 1.52054, -0.757822 1.65253, -0.735654 1.77874, -0.691319 1.8994, -0.649755 2.03392, -0.579977 2.14224, -0.481734 2.2241, -0.383492 2.30622, -0.265097 2.34703, -0.126801 2.34678, 0.017288 2.34703, 0.161881 2.30471, 0.306978 2.22007, 0.452327 2.13543, 0.578783 2.0246, 0.686598 1.88731, 0.836229 1.71299, 0.950342 1.52431, 1.02919 1.32128, 1.10803 1.1185, 1.17655 0.910927, 1.23449 0.69832, 1.28991 0.478155, 1.33147 0.26454, 1.35918 0.0574749, 1.37027 -0.0039897, 1.37556 -0.0631871, 1.37556 -0.119866, 1.37556 -0.25136, 1.3549 -0.376304, 1.31334 -0.494699 Z" stroke="none" fill="#000000" transform="matrix(1.12 0 0 1 11.9767 12.8121)" />
			<rect />
		</svg>
	</g>
	<path d="M -43.4789 16.1279 L 43.4783 -16.1281" fill="none" stroke="#000000" stroke-width="2.4000001" stroke-linecap="round" stroke-linejoin="round" marker-end="url(#CustomMarker-07)" transform="matrix(0.416667 0 0 0.416667 224.496 181.838)" />
	<g transform="matrix(1 0 -0 1 237.621 175.151)">
		<svg width="44.9446106" height="44.9458008">
			<defs />
			<path d="M 9.7415 13.0175 C 9.68752 13.1615, 9.5935 13.2335, 9.45991 13.2335, 8.96599 13.2047, 8.47388 13.1903, 7.98447 13.1903 L 7.73976 13.1903 C 7.16173 13.2002, 6.581 13.2146, 5.99802 13.2335, 5.86487 13.2335, 5.7929 13.1714, 5.783 13.0463 L 5.783 12.9888, 5.81269 12.8664 C 5.85228 12.7085, 5.94854 12.6316, 6.10148 12.6361, 6.28456 12.6365, 6.44785 12.6307, 6.5909 12.6185, 6.73439 12.6069, 6.87294 12.5646, 7.00609 12.4921, 7.05557 12.4688, 7.09785 12.435, 7.13204 12.3914, 7.15183 12.3536, 7.16443 12.3149, 7.16893 12.2762 L 7.16893 12.233, 6.99124 9.84355, 3.64047 9.84355, 2.46192 11.8588 C 2.39759 11.9744, 2.3652 12.0801, 2.3652 12.1755, 2.3652 12.2573, 2.38994 12.332, 2.43942 12.3986, 2.54828 12.5574, 2.75116 12.6365, 3.04714 12.6361, 3.18074 12.6365, 3.25226 12.6941, 3.26216 12.8088, 3.26216 12.8381, 3.25721 12.8691, 3.24732 12.9024 L 3.21808 13.0175 C 3.16365 13.1615, 3.06738 13.2335, 2.92884 13.2335, 2.47451 13.2146, 2.02468 13.2002, 1.57935 13.1903 L 1.37963 13.1903 C 0.994123 13.1903, 0.603671 13.2047, 0.208272 13.2335, 0.13405 13.2335, 0.0796205 13.2096, 0.0449836 13.1615, 0.0152949 13.1332, 0.000450552 13.0994, 0.000450552 13.0607, 0.000450552 13.0324, 0.00539869 13.0036, 0.0152949 12.9744 L 0.0449836 12.8664 C 0.0845686 12.7085, 0.181282 12.6316, 0.334224 12.6361, 0.492564 12.6365, 0.648204 12.6199, 0.801146 12.5862, 0.954538 12.5529, 1.09803 12.4926, 1.23118 12.4062, 1.36478 12.3199, 1.48848 12.2155, 1.60184 12.0931, 1.71565 11.9708, 1.81686 11.8327, 1.90593 11.6789 L 7.13924 2.71826 C 7.2283 2.58421, 7.34211 2.51944, 7.48066 2.52393 L 7.62145 2.52393 C 7.77979 2.52438, 7.86841 2.59861, 7.8882 2.74705 L 8.54045 12.1251 C 8.55035 12.2501, 8.5652 12.3451, 8.58499 12.4098, 8.60478 12.4746, 8.63942 12.5214, 8.6889 12.5497, 8.75817 12.5934, 8.87288 12.6185, 9.03347 12.6257, 9.19451 12.6329, 9.37579 12.6365, 9.57821 12.6361, 9.71676 12.6365, 9.78603 12.6941, 9.78603 12.8088, 9.78603 12.8381, 9.78108 12.8691, 9.77119 12.9024 Z M 6.63543 4.74069 L 3.99628 9.26058, 6.94671 9.26058 Z" stroke="none" fill="#000000" />
			<path d="M 1.90556 1.53666 C 1.92521 1.5558, 1.93478 1.57595, 1.93478 1.59711, 1.93478 1.62155, 1.9237 1.6485, 1.90153 1.67772, 1.68288 1.98152, 1.40427 2.21352, 1.06521 2.37323, 0.726147 2.53294, 0.38658 2.61279, 0.0462569 2.61279, -0.200105 2.61279, -0.40969 2.55108, -0.582496 2.42764, -0.755303 2.30421, -0.891583 2.15231, -0.991337 1.97195, -1.10217 1.75455, -1.16011 1.51802, -1.16565 1.26259, -1.1712 1.23588, -1.17397 1.20641, -1.17397 1.17391, -1.17397 0.94569, -1.14349 0.711922, -1.08278 0.472613, -1.02459 0.252449, -0.929116 0.0403454, -0.796363 -0.163949, -0.663357 -0.367991, -0.494582 -0.550874, -0.290035 -0.712345, -0.0990919 -0.868021, 0.109989 -0.989439, 0.336703 -1.07685, 0.563668 -1.16401, 0.787863 -1.20784, 1.00904 -1.20809, 1.14481 -1.20784, 1.27228 -1.18416, 1.39117 -1.13731, 1.51007 -1.0902, 1.60832 -1.02647, 1.68565 -0.94586, 1.76324 -0.865251, 1.81714 -0.768519, 1.84762 -0.655918, 1.85871 -0.60453, 1.864 -0.549614, 1.864 -0.490669, 1.864 -0.425929, 1.85594 -0.357411, 1.83931 -0.285115, 1.78692 -0.0644467, 1.67834 0.106848, 1.5136 0.229022, 1.34885 0.351447, 1.15993 0.440621, 0.946815 0.497048, 0.733704 0.553475, 0.508249 0.58723, 0.2702 0.59781, 0.0324022 0.608642, -0.180709 0.613932, -0.368881 0.61368, -0.426819 0.823516, -0.467124 1.03436, -0.489292 1.24646, -0.500375 1.31926, -0.505917 1.38904, -0.505917 1.45605, -0.505917 1.59056, -0.489292 1.71828, -0.45604 1.83894, -0.414476 1.98706, -0.348729 2.10873, -0.258799 2.20395, -0.168869 2.29942, -0.0519857 2.34703, 0.0918516 2.34678, 0.385068 2.34703, 0.671483 2.27197, 0.951097 2.12133, 1.23071 1.97094, 1.46297 1.76665, 1.64837 1.50844, 1.67054 1.47116, 1.70228 1.44824, 1.74384 1.43993 L 1.7645 1.43993 C 1.79775 1.44018, 1.8242 1.4495, 1.84334 1.46814 L 1.90556 1.53666 Z M 1.44483 -0.301237 C 1.46146 -0.365472, 1.46977 -0.423158, 1.46977 -0.474547, 1.46977 -0.581858, 1.43803 -0.675818, 1.3743 -0.75668, 1.28034 -0.877342, 1.14204 -0.937799, 0.95941 -0.938051, 0.818344 -0.937799, 0.676522 -0.902029, 0.533944 -0.830992, 0.391366 -0.759703, 0.26491 -0.662467, 0.154072 -0.539034, 0.0296313 -0.407037, -0.0678557 -0.261184, -0.138389 -0.101477, -0.208922 0.0584826, -0.265097 0.209625, -0.306661 0.351699, -0.126801 0.351951, 0.0648979 0.34389, 0.268185 0.327768, 0.471723 0.311646, 0.653598 0.280914, 0.814061 0.235068, 0.974524 0.189473, 1.11005 0.12297, 1.22089 0.0355592, 1.33172 -0.0515995, 1.40629 -0.163949, 1.44483 -0.301237 Z" stroke="none" fill="#000000" transform="matrix(1.12 0 0 1 11.7261 12.8121)" />
			<rect />
		</svg>
	</g>
	<path d="M 4.50979 -21.7344 C 11.9944 -20.1813, 18.1533 -14.8866, 20.8118 -7.71979" fill="none" stroke="#000000" stroke-width="1.80000007" stroke-linecap="round" stroke-linejoin="round" transform="matrix(0.416667 0 -0 0.416667 206.379 188.557)" />
	<path d="M 0 0 L 10.6304 -51.2316" fill="none" stroke="#000000" stroke-width="1.20000005" stroke-linecap="round" stroke-linejoin="round" stroke-dasharray="6.606, 2.994, 0.012, 3.588" transform="matrix(0.416667 0 -0 0.416667 206.379 188.557)" />
	<path d="M 0 0 L 26.4863 -9.82458" fill="none" stroke="#000000" stroke-width="1.20000005" stroke-linecap="round" stroke-linejoin="round" stroke-dasharray="6.606, 2.994, 0.012, 3.588" transform="matrix(0.416667 0 -0 0.416667 206.379 188.557)" />
	<g transform="matrix(1 0 -0 1 213.082 166.312)">
		<svg width="30.027689" height="26.9690266">
			<defs />
			<path d="M 8.66169 7.52603 C 8.484 8.19808, 8.2321 8.84628, 7.90552 9.46975, 7.5794 10.0937, 7.19389 10.6595, 6.74901 11.1679, 6.74901 11.4036, 6.75396 11.6316, 6.76386 11.852, 6.77375 12.0729, 6.79625 12.2659, 6.83088 12.4314, 6.86552 12.597, 6.91005 12.7207, 6.96403 12.8021, 7.01846 12.8839, 7.08998 12.9244, 7.17905 12.924, 7.34234 12.9244, 7.49798 12.8597, 7.64642 12.7301, 7.79487 12.6006, 7.89113 12.4445, 7.93521 12.2618, 7.9649 12.1278, 8.05172 12.0608, 8.19476 12.0603 L 8.28383 12.0603 C 8.39764 12.0608, 8.45926 12.1183, 8.46916 12.233 L 8.46916 12.2834 C 8.43452 12.4373, 8.3729 12.5817, 8.28383 12.7157, 8.19476 12.8502, 8.08726 12.969, 7.9613 13.072, 7.83535 13.175, 7.69815 13.2551, 7.54971 13.3126, 7.40172 13.3702, 7.24608 13.399, 7.08279 13.399, 6.65275 13.399, 6.32662 13.2699, 6.10441 13.0108, 5.88219 12.7517, 5.7387 12.4805, 5.67437 12.1971, 5.24434 12.5479, 4.75267 12.8358, 4.19893 13.0612, 3.64564 13.2865, 3.06986 13.399, 2.47159 13.399, 2.03705 13.399, 1.64165 13.3104, 1.28584 13.1332, 0.930025 12.9559, 0.648432 12.7013, 0.440611 12.3698, 0.218396 12.0486, 0.0798484 11.6771, 0.0254191 11.2542, 0.00562662 11.1346, -0.00426966 11.005, -0.00426966 10.8656, -0.00426966 10.5781, 0.0380143 10.2808, 0.121683 9.9731, 0.240437 9.52732, 0.429815 9.09909, 0.688917 8.68884, 0.948468 8.2786, 1.271 7.90794, 1.65605 7.57642, 2.03211 7.26963, 2.43875 7.02627, 2.87599 6.84634, 3.31322 6.66641, 3.74955 6.57645, 4.18409 6.57599, 4.59928 6.57645, 4.96634 6.65472, 5.28482 6.81036, 5.60375 6.96645, 5.8732 7.17652, 6.09316 7.44012, 6.31313 7.70417, 6.47732 8.0123, 6.58618 8.36497, 6.69503 8.71763, 6.74901 9.08829, 6.74901 9.47649 L 6.74901 10.4265 C 7.01126 10.0865, 7.27306 9.65238, 7.53487 9.12428, 7.79667 8.59663, 7.99684 8.05683, 8.13539 7.50444, 8.16508 7.37039, 8.25189 7.30112, 8.39494 7.29572 L 8.46916 7.29572 C 8.59781 7.29617, 8.66169 7.35375, 8.66169 7.46846 L 8.66169 7.52603 Z M 5.57766 11.6861 C 5.57316 11.6528, 5.56821 11.6028, 5.56326 11.5354, 5.55832 11.4683, 5.55562 11.4009, 5.55562 11.3334 L 5.55562 9.714 C 5.55562 9.36404, 5.53223 9.02981, 5.48544 8.71043, 5.43866 8.39151, 5.36174 8.10721, 5.25558 7.85756, 5.14942 7.60835, 5.00323 7.41268, 4.8179 7.27098, 4.63257 7.12973, 4.39191 7.05866, 4.09502 7.05821, 3.81838 7.05866, 3.53903 7.13198, 3.25744 7.27818, 2.97585 7.42482, 2.72394 7.625, 2.50128 7.8787, 2.22463 8.18638, 2.01321 8.52106, 1.86747 8.88317, 1.72172 9.24573, 1.59937 9.62089, 1.50041 10.0091, 1.4019 10.3932, 1.33037 10.763, 1.28539 11.1175, 1.27549 11.2092, 1.27055 11.3001, 1.27055 11.391, 1.27055 11.6456, 1.31283 11.8903, 1.39695 12.1251, 1.49096 12.3653, 1.63671 12.5587, 1.83418 12.7049, 2.03211 12.8516, 2.26917 12.9244, 2.54581 12.924, 3.1045 12.9244, 3.64204 12.8142, 4.15845 12.5934, 4.67485 12.3729, 5.14807 12.0702, 5.57766 11.6861 Z" stroke="none" fill="#000000" />
			<rect />
		</svg>
	</g>
</svg>
