<?xml version="1.0"?>
<svg xmlns="http://www.w3.org/2000/svg" xmlns:xlink="http://www.w3.org/1999/xlink" width="643.444275" height="253.19603">
	<defs>
		<marker id="CustomMarker-01" markerUnits="strokeWidth" markerWidth="15.000001" markerHeight="9" viewBox="-15 -4.5 15 9" orient="auto-start-reverse">
			<path d="M 0 -0 L -10 -3, -8 -0.5, -8 0.5, -10 3 Z" fill="#FF2A00" stroke="#FF2A00" stroke-linejoin="round" />
		</marker>
		<marker id="CustomMarker-02" markerUnits="strokeWidth" markerWidth="15.000001" markerHeight="9" viewBox="-15 -4.5 15 9" orient="auto-start-reverse">
			<path d="M 0 -0 L -10 -3, -8 -0.5, -8 0.5, -10 3 Z" fill="#000000" stroke="#000000" stroke-linejoin="round" />
		</marker>
		<marker id="CustomMarker-03" markerUnits="strokeWidth" markerWidth="15.000001" markerHeight="9" viewBox="-15 -4.5 15 9" orient="auto-start-reverse">
			<path d="M 0 -0 L -10 -3, -8 -0.5, -8 0.5, -10 3 Z" fill="#000000" stroke="#000000" stroke-linejoin="round" />
		</marker>
		<marker id="CustomMarker-04" markerUnits="strokeWidth" markerWidth="15.000001" markerHeight="9" viewBox="-15 -4.5 15 9" orient="auto-start-reverse">
			<path d="M 0 -0 L -10 -3, -8 -0.5, -8 0.5, -10 3 Z" fill="#0006BF" stroke="#0006BF" stroke-linejoin="round" />
		</marker>
	</defs>
	<rect x="-0" y="-0" width="643.444275" height="253.19603" stroke="none" fill="#FFFFFF" />
	<path d="M 127.456 -0 C 127.456 70.3919, 70.3919 127.456, -0 127.456, -70.3919 127.456, -127.456 70.3919, -127.456 -0, -127.456 -70.3919, -70.3919 -127.456, -0 -127.456, 70.3919 -127.456, 127.456 -70.3919, 127.456 -0 Z" stroke="none" fill="#0006BF" fill-opacity="0.199999988" transform="matrix(0.5 0 0 0.5 229.473 131.911)" />
	<path d="M 127.456 -0 C 127.456 70.3919, 70.3919 127.456, -0 127.456, -70.3919 127.456, -127.456 70.3919, -127.456 -0, -127.456 -70.3919, -70.3919 -127.456, -0 -127.456, 70.3919 -127.456, 127.456 -70.3919, 127.456 -0 Z" fill="none" stroke="#000000" stroke-width="2" stroke-linecap="round" stroke-linejoin="round" transform="matrix(0.5 0 0 0.5 229.473 131.911)" />
	<path d="M -624.445 0 L 624.444 0" fill="none" stroke="#000000" stroke-width="4" stroke-linecap="round" stroke-linejoin="round" transform="matrix(0.5 0 0 0.5 321.722 131.911)" />
	<path d="M 93.4562 -0 C 93.4562 51.6144, 51.6144 93.4562, -0 93.4562, -51.6145 93.4562, -93.4562 51.6144, -93.4562 -0, -93.4562 -51.6145, -51.6145 -93.4562, -0 -93.4562, 51.6144 -93.4562, 93.4562 -51.6145, 93.4562 -0 Z" stroke="none" fill="#FF2A00" fill-opacity="0.188235283" transform="matrix(0.5 0 0 0.5 229.473 131.911)" />
	<path d="M 93.4562 -0 C 93.4562 51.6144, 51.6144 93.4562, -0 93.4562, -51.6145 93.4562, -93.4562 51.6144, -93.4562 -0, -93.4562 -51.6145, -51.6145 -93.4562, -0 -93.4562, 51.6144 -93.4562, 93.4562 -51.6145, 93.4562 -0 Z" fill="none" stroke="#000000" stroke-width="2" stroke-linecap="round" stroke-linejoin="round" transform="matrix(0.5 0 0 0.5 229.473 131.911)" />
	<path d="M -22.0026 -112.785 L 22.0026 112.786" fill="none" stroke="#FF2A00" stroke-width="2" stroke-linecap="round" stroke-linejoin="round" marker-end="url(#CustomMarker-01)" transform="matrix(0.5 0 0 0.5 240.474 188.303)" />
	<path d="M -86.5009 -123.411 L 86.5009 123.411" fill="none" stroke="#000000" stroke-width="2" stroke-linecap="round" stroke-linejoin="round" marker-end="url(#CustomMarker-02)" transform="matrix(0.5 0 0 0.5 186.223 70.2054)" />
	<path d="M -86.7797 -123.809 L 86.7798 123.809" fill="none" stroke="#000000" stroke-width="2" stroke-linecap="round" stroke-linejoin="round" marker-end="url(#CustomMarker-03)" transform="matrix(0.5 0 0 0.5 428.083 70.4047)" />
	<path d="M -287.157 56.0198 L 287.156 -56.0192" fill="none" stroke="#FF2A00" stroke-width="2" stroke-linecap="round" stroke-linejoin="round" transform="matrix(0.5 0 0 0.5 327.895 160.319)" />
	<ellipse cx="682.50006103515625" cy="612.03985595703125" rx="5.25" ry="5.25" stroke="none" fill="#44E500" transform="matrix(0.5 0 0 0.5 -242.778 -141.402)" />
	<path d="M -274.88 74.5483 L 274.88 -74.5488" fill="none" stroke="#0006BF" stroke-width="2" stroke-linecap="round" stroke-linejoin="round" transform="matrix(0.5 0 0 0.5 334.033 169.584)" />
	<path d="M -30.588 -112.785 L 30.5876 112.786" fill="none" stroke="#0006BF" stroke-width="2" stroke-linecap="round" stroke-linejoin="round" marker-end="url(#CustomMarker-04)" transform="matrix(0.5 0 0 0.5 244.767 188.303)" />
	<ellipse cx="854.1893310546875" cy="417.77676391601562" rx="5.25" ry="5.25" stroke="none" fill="#000000" transform="matrix(0.5 0 0 0.5 -242.778 -141.402)" />
	<path d="M -8.87579 6.22122 L 8.87585 -6.22122" fill="none" stroke="#000000" stroke-width="2" stroke-linecap="round" stroke-linejoin="round" transform="matrix(0.5 0 0 0.5 175.441 54.3846)" />
	<ellipse cx="1341.722412109375" cy="423.61325073242187" rx="5.25" ry="5.25" stroke="none" fill="#000000" transform="matrix(0.5 0 0 0.5 -242.778 -141.402)" />
	<path d="M -8.87573 6.22119 L 8.87598 -6.22128" fill="none" stroke="#000000" stroke-width="2" stroke-linecap="round" stroke-linejoin="round" transform="matrix(0.5 0 0 0.5 419.207 57.3028)" />
	<path d="M -10.5701 2.06207 L 10.57 -2.06207" fill="none" stroke="#FF2A00" stroke-width="2" stroke-linecap="round" stroke-linejoin="round" transform="matrix(0.5 0 0 0.5 245.759 215.394)" />
	<path d="M -10.5701 2.06238 L 10.57 -2.06177" fill="none" stroke="#FF2A00" stroke-width="2" stroke-linecap="round" stroke-linejoin="round" transform="matrix(0.5 0 0 0.5 242.992 201.21)" />
	<ellipse cx="984.70458984375" cy="694.86383056640625" rx="5.25" ry="5.25" stroke="none" fill="#0006BF" transform="matrix(0.5 0 0 0.5 -242.778 -141.402)" />
	<ellipse cx="994.6728515625" cy="731.61932373046875" rx="5.25" ry="5.25" stroke="none" fill="#0006BF" transform="matrix(0.5 0 0 0.5 -242.778 -141.402)" />
</svg>
