<?xml version="1.0"?>
<svg xmlns="http://www.w3.org/2000/svg" xmlns:xlink="http://www.w3.org/1999/xlink" width="329.20694" height="118.346695">
	<defs>
		<marker id="CustomMarker-01" markerUnits="strokeWidth" markerWidth="15.000001" markerHeight="9" viewBox="-15 -4.5 15 9" orient="auto-start-reverse">
			<path d="M 0 -0 L -10 -3, -8 -0.5, -8 0.5, -10 3 Z" fill="#000000" stroke="#000000" stroke-linejoin="round" />
		</marker>
		<marker id="CustomMarker-02" markerUnits="strokeWidth" markerWidth="15.000001" markerHeight="9" viewBox="-15 -4.5 15 9" orient="auto-start-reverse">
			<path d="M 0 -0 L -10 -3, -8 -0.5, -8 0.5, -10 3 Z" fill="#FF2A00" stroke="#FF2A00" stroke-linejoin="round" />
		</marker>
		<marker id="CustomMarker-03" markerUnits="strokeWidth" markerWidth="15.000001" markerHeight="9" viewBox="-15 -4.5 15 9" orient="auto-start-reverse">
			<path d="M 0 -0 L -10 -3, -8 -0.5, -8 0.5, -10 3 Z" fill="#0006BF" stroke="#0006BF" stroke-linejoin="round" />
		</marker>
		<marker id="CustomMarker-04" markerUnits="strokeWidth" markerWidth="15.000001" markerHeight="9" viewBox="-15 -4.5 15 9" orient="auto-start-reverse">
			<path d="M 0 -0 L -10 -3, -8 -0.5, -8 0.5, -10 3 Z" fill="#0006BF" stroke="#0006BF" stroke-linejoin="round" />
		</marker>
	</defs>
	<rect x="-0" y="-0" width="329.20694" height="118.346695" stroke="none" fill="#FFFFFF" />
	<path d="M -283.696 0 L 283.695 0" fill="none" stroke="#000000" stroke-width="4.19999981" stroke-linecap="round" stroke-linejoin="round" marker-end="url(#CustomMarker-01)" transform="matrix(0.238095 0 0 0.238095 76.0467 64.403)" />
	<ellipse cx="1047.7156734466553" cy="557.96433067321777" rx="11.024999618530273" ry="11.024999618530273" stroke="none" fill="#000000" transform="matrix(0.238095 0 0 0.238095 -104.206 -68.4457)" />
	<path d="M -272.474 0 L 272.474 0" fill="none" stroke="#FF2A00" stroke-width="4.19999981" stroke-linecap="round" stroke-linejoin="round" marker-end="url(#CustomMarker-02)" transform="matrix(0.238095 0 0 0.238095 210.125 64.403)" />
	<path d="M -192.675 95.4324 L 192.675 -95.4321" fill="none" stroke="#0006BF" stroke-width="4.19999981" stroke-linecap="round" stroke-linejoin="round" marker-end="url(#CustomMarker-03)" transform="matrix(0.238095 0 0 0.238095 191.125 41.681)" />
	<path d="M -79.7996 -95.4319 L 79.7999 95.4319" fill="none" stroke="#0006BF" stroke-width="4.19999981" stroke-linecap="round" stroke-linejoin="round" marker-end="url(#CustomMarker-04)" transform="matrix(0.238095 0 0 0.238095 164.25 87.1248)" />
	<path d="M -79.7998 -95.4316 L 79.7997 95.4317" fill="none" stroke="#0006BF" stroke-width="2.0999999" stroke-linecap="round" stroke-linejoin="round" stroke-dasharray="7.3605, 5.2395" transform="matrix(0.238095 0 0 0.238095 256 41.6809)" />
	<path d="M -192.675 95.4319 L 192.675 -95.4318" fill="none" stroke="#0006BF" stroke-width="2.0999999" stroke-linecap="round" stroke-linejoin="round" stroke-dasharray="7.3605, 5.2395" transform="matrix(0.238095 0 0 0.238095 229.125 87.1248)" />
	<path d="M 83.1542 -41.1865 C 89.4958 -28.383, 92.7952 -14.288, 92.7952 -3.216e-005" fill="none" stroke="#000000" stroke-width="3.14999986" stroke-linecap="round" stroke-linejoin="round" transform="matrix(0.238095 0 -0 0.238095 145.25 64.403)" />
	<g transform="matrix(1 0 -0 1 172.576 45.6362)">
		<svg width="30.027689" height="36.0270882">
			<defs />
			<path d="M 8.64167 9.60604 C 8.50852 10.1296, 8.28541 10.6204, 7.97142 11.0783, 7.65744 11.5367, 7.28319 11.9384, 6.8482 12.2839, 6.41322 12.6293, 5.9364 12.9019, 5.4173 13.1008, 4.89819 13.2996, 4.36964 13.399, 3.83075 13.399 L 3.57884 13.399 C 3.49473 13.399, 3.4331 13.3968, 3.39351 13.3918 L 2.91894 15.8749 C 2.88476 16.0719, 2.79434 16.2158, 2.6486 16.3067, 2.50285 16.398, 2.35081 16.4434, 2.19247 16.4434, 2.03953 16.4434, 1.91583 16.3931, 1.82181 16.2923, 1.75794 16.2446, 1.72555 16.1628, 1.72555 16.0476, 1.72555 15.9855, 1.73544 15.9158, 1.75524 15.8389 L 2.60002 13.2551 C 2.18977 13.1687, 1.79842 13.0193, 1.42506 12.8057, 1.05215 12.5925, 0.74717 12.3262, 0.50966 12.0068, 0.2726 11.6879, 0.116959 11.3217, 0.0427376 10.9087, 0.0130489 10.7558, -0.00179553 10.5925, -0.00179553 10.4193, -0.00179553 10.1607, 0.0328413 9.87999, 0.102115 9.57725, 0.225818 9.10268, 0.386407 8.62901, 0.583882 8.15624, 0.781807 7.68392, 1.08049 7.24579, 1.48084 6.84229, 1.52043 6.77572, 1.58745 6.73973, 1.68102 6.73433 L 1.75524 6.73433 C 1.80472 6.73478, 1.8488 6.75413, 1.88839 6.79191, 1.91807 6.83555, 1.93292 6.88098, 1.93292 6.92866 L 1.93292 6.95745 C 1.93292 7.00603, 1.91088 7.05146, 1.86634 7.0942, 1.52043 7.44956, 1.25863 7.84316, 1.08049 8.275, 0.902811 8.70684, 0.752118 9.15082, 0.628415 9.60604, 0.578934 9.80802, 0.554193 9.99515, 0.554193 10.1674, 0.554193 10.3213, 0.573986 10.463, 0.613571 10.5921, 0.687793 10.8998, 0.832188 11.1674, 1.04721 11.395, 1.26222 11.6231, 1.53437 11.8152, 1.86275 11.9708, 2.19112 12.1269, 2.53839 12.2357, 2.9041 12.2978 L 3.31929 11.0167 C 3.48753 10.5277, 3.67781 10.023, 3.89013 9.50213, 4.10244 8.98168, 4.3557 8.50441, 4.64989 8.06988, 4.94408 7.63579, 5.2855 7.27818, 5.67325 6.99749, 6.061 6.71679, 6.50948 6.57645, 7.01824 6.57599, 7.39879 6.57645, 7.71772 6.66281, 7.97457 6.83555, 8.23188 7.00828, 8.42575 7.24129, 8.55665 7.53368, 8.688 7.82652, 8.75817 8.15489, 8.76807 8.51926 L 8.76807 8.62002 C 8.76807 8.95154, 8.72624 9.28037, 8.64167 9.60604 Z M 8.11537 9.57725 C 8.16485 9.39058, 8.18959 9.2057, 8.18959 9.02307, 8.18959 8.95154, 8.18464 8.87462, 8.17475 8.79275, 8.14506 8.55794, 8.07129 8.34967, 7.95253 8.16704, 7.83378 7.98486, 7.67589 7.84091, 7.47796 7.7352, 7.28049 7.62994, 7.05332 7.57686, 6.79602 7.57642, 6.43526 7.57686, 6.09564 7.67178, 5.77671 7.86116, 5.45823 8.05098, 5.16899 8.30739, 4.90944 8.63126, 4.65034 8.95514, 4.43172 9.3285, 4.25359 9.75044, 4.07546 10.1728, 3.93961 10.6069, 3.84559 11.0527 L 3.58604 12.3914 C 3.62068 12.3968, 3.6823 12.399, 3.77137 12.3986 L 4.06061 12.3986 C 4.50549 12.399, 4.94767 12.3284, 5.38761 12.1867, 5.82754 12.0455, 6.23149 11.8498, 6.59945 11.6001, 6.96786 11.3509, 7.28678 11.0522, 7.55578 10.7041, 7.82523 10.3564, 8.01191 9.98075, 8.11537 9.57725 Z" stroke="none" fill="#000000" />
			<rect />
		</svg>
	</g>
	<path d="M 67.3146 0.000224445 C 67.3145 19.9382, 58.476 38.8504, 43.1808 51.6402" fill="none" stroke="#000000" stroke-width="3.14999986" stroke-linecap="round" stroke-linejoin="round" transform="matrix(0.238095 0 -0 0.238095 145.25 64.5321)" />
	<g transform="matrix(1 0 -0 1 164.12 65.9303)">
		<svg width="23.9723053" height="38.9535408">
			<defs />
			<path d="M 6.26725 4.32325 C 6.386 4.77938, 6.44493 5.24495, 6.44493 5.71952, 6.44493 5.86886, 6.43998 6.01281, 6.43008 6.15136, 6.38105 6.78517, 6.27489 7.42077, 6.1116 8.05863, 5.93392 8.70189, 5.70901 9.3393, 5.43731 9.96996, 5.16561 10.6011, 4.8044 11.2065, 4.35457 11.7868, 4.20163 11.9838, 4.03204 12.1786, 3.84671 12.3702, 3.66139 12.5623, 3.46256 12.7337, 3.25024 12.8848, 3.03792 13.036, 2.81661 13.1597, 2.58674 13.2551, 2.35688 13.3513, 2.11577 13.399, 1.86387 13.399, 1.60702 13.399, 1.3857 13.35, 1.20037 13.2515, 1.01504 13.1534, 0.855802 13.0265, 0.722203 12.8705, 0.589053 12.7148, 0.478845 12.5407, 0.392478 12.3487, 0.306111 12.157, 0.235488 11.96, 0.181058 11.758, 0.0578051 11.3122, -0.00427139 10.8516, -0.00427139 10.3762, -0.00427139 10.2232, 0.00562489 10.0721, 0.0254173 9.92272, 0.0650023 9.29926, 0.171162 8.6686, 0.343896 8.02984, 0.507184 7.38749, 0.727151 6.75188, 1.0038 6.12302, 1.28089 5.49461, 1.64885 4.88734, 2.10858 4.30166, 2.26197 4.10553, 2.4302 3.90986, 2.61283 3.71553, 2.79546 3.52121, 2.99069 3.34847, 3.19806 3.19733, 3.40588 3.04619, 3.6245 2.92293, 3.85436 2.82667, 4.08422 2.73086, 4.32758 2.68272, 4.58443 2.68227, 4.84174 2.68272, 5.0617 2.73221, 5.24433 2.83027, 5.42696 2.92878, 5.5889 3.05473, 5.7297 3.20812, 5.87095 3.36197, 5.98205 3.53695, 6.06347 3.73353, 6.14534 3.93055, 6.21327 4.12713, 6.26725 4.32325 Z M 5.26638 4.48879 C 5.24658 4.30211, 5.22184 4.12713, 5.19215 3.96384, 5.16247 3.801, 5.11928 3.6593, 5.0626 3.5392, 5.00592 3.41954, 4.93305 3.32688, 4.84399 3.2621, 4.75492 3.19733, 4.64156 3.16494, 4.50302 3.16449, 4.21647 3.16494, 3.95198 3.29809, 3.70997 3.56439, 3.46796 3.83069, 3.23315 4.14872, 3.00553 4.51758, 2.67941 5.04568, 2.4275 5.58817, 2.24937 6.14461, 2.07124 6.7015, 1.9183 7.23859, 1.78965 7.75635 L 4.80665 7.75635 C 4.94025 7.21475, 5.06395 6.66281, 5.17731 6.10098, 5.25648 5.72222, 5.29606 5.34796, 5.29606 4.9782, 5.29606 4.81536, 5.28617 4.65253, 5.26638 4.48879 Z M 1.63401 8.33932 C 1.50086 8.88182, 1.38435 9.42881, 1.28539 9.9803, 1.20667 10.3788, 1.16708 10.7774, 1.16708 11.175, 1.16708 11.3244, 1.17203 11.4683, 1.18193 11.6069, 1.19182 11.7945, 1.21432 11.9699, 1.2485 12.1327, 1.28314 12.296, 1.32902 12.4364, 1.3857 12.5538, 1.44238 12.6716, 1.51795 12.7625, 1.61196 12.8273, 1.70598 12.892, 1.81979 12.9244, 1.95293 12.924, 2.23453 12.9244, 2.49768 12.7926, 2.74238 12.5286, 2.98709 12.265, 3.21785 11.9479, 3.43557 11.5781, 3.7617 11.041, 4.0136 10.4967, 4.19173 9.94477, 4.36987 9.39327, 4.52281 8.85798, 4.65101 8.33932 Z" stroke="none" fill="#000000" />
			<rect />
		</svg>
	</g>
	<g transform="matrix(1 0 -0 1 281.596 47.973)">
		<svg width="162.064575" height="93.0232086">
			<defs />
			<polyline points="0.2948 18.0713 23.9543 18.0713" fill="none" stroke="#FF2A00" stroke-width="0.589599967" stroke-linecap="round" stroke-linejoin="round" />
			<path d="M 8.98975 11.0455 C 8.92048 11.31, 8.82917 11.5799, 8.71536 11.8556, 8.602 12.1318, 8.45851 12.3824, 8.28577 12.6078, 8.11304 12.8336, 7.91511 13.0216, 7.69245 13.1723, 7.47023 13.3234, 7.21563 13.399, 6.92909 13.399, 6.68213 13.399, 6.47071 13.3464, 6.29528 13.2407, 6.11984 13.1354, 5.984 12.9964, 5.88773 12.8237, 5.79147 12.6509, 5.74289 12.4589, 5.74289 12.2474, 5.73299 12.2384, 5.72804 12.2142, 5.72804 12.1755, 5.72804 11.9694, 5.77258 11.7535, 5.86164 11.5277, 6.02448 11.1107, 6.17787 10.6933, 6.32092 10.2758, 6.46441 9.8584, 6.59037 9.44096, 6.69922 9.02307, 6.7685 8.74057, 6.82023 8.46708, 6.85487 8.20258, 6.86476 8.12611, 6.86971 8.04469, 6.86971 7.95787, 6.86971 7.79503, 6.84992 7.64659, 6.81033 7.51164, 6.72127 7.2098, 6.53369 7.05866, 6.2467 7.05821, 5.74289 7.05866, 5.3106 7.2305, 4.94984 7.57327, 4.58908 7.91649, 4.26745 8.37576, 3.98586 8.95109 L 2.97779 12.8664 C 2.93371 13.0445, 2.84329 13.1772, 2.70744 13.2659, 2.57159 13.3549, 2.4344 13.399, 2.29585 13.399, 2.1528 13.399, 2.03405 13.3513, 1.94003 13.2551, 1.87571 13.193, 1.84332 13.1066, 1.84332 12.996, 1.84332 12.9438, 1.84827 12.8907, 1.85816 12.8376 L 4.08977 4.1865 C 4.12935 4.02861, 4.15409 3.90851, 4.16399 3.82664 L 4.16399 3.80505 C 4.16399 3.76231, 4.15409 3.73128, 4.1343 3.71148, 4.07492 3.6737, 3.96381 3.64716, 3.80053 3.63276, 3.63769 3.61837, 3.44966 3.61117, 3.23734 3.61072, 3.16312 3.61117, 3.10869 3.58733, 3.07405 3.53875, 3.04436 3.51041, 3.02952 3.47442, 3.02952 3.43079, 3.02952 3.40245, 3.03717 3.37591, 3.05201 3.35162 L 3.07405 3.23646 C 3.11364 3.12176, 3.20765 3.04978, 3.35565 3.02055 L 5.29081 2.86221, 5.32005 2.86221 C 5.37943 2.86266, 5.42891 2.882, 5.46849 2.91978, 5.49818 2.96342, 5.51303 3.00165, 5.51303 3.03494, 5.51303 3.06418, 5.50583 3.09072, 5.49098 3.11411 L 4.3862 7.40368 C 4.52475 7.24084, 4.76946 7.06226, 5.12032 6.86793, 5.47119 6.67361, 5.87649 6.57645, 6.33576 6.57599, 6.6277 6.57645, 6.89985 6.63042, 7.15175 6.73838, 7.40366 6.84634, 7.59888 7.02043, 7.73698 7.25974, 7.88542 7.50489, 7.9592 7.78064, 7.9592 8.08742 L 7.9592 8.12341 C 7.9493 8.43109, 7.90522 8.74057, 7.82605 9.05185, 7.71269 9.48909, 7.57909 9.91867, 7.4257 10.3406, 7.27276 10.763, 7.11442 11.1921, 6.95113 11.6285, 6.80314 12.0032, 6.72891 12.3176, 6.72891 12.5713, 6.72891 12.5335, 6.73386 12.5142, 6.74376 12.5137, 6.74376 12.7877, 6.83507 12.9244, 7.0177 12.924, 7.18594 12.9244, 7.33573 12.8741, 7.46663 12.7733, 7.59753 12.6725, 7.71989 12.5371, 7.83324 12.3666, 7.94705 12.1966, 8.04736 11.9951, 8.13373 11.7621, 8.2201 11.5295, 8.30062 11.2835, 8.37439 11.0239, 8.40408 10.8998, 8.48819 10.8372, 8.62674 10.8368 L 8.79723 10.8368 C 8.92588 10.8372, 8.98975 10.8899, 8.98975 10.9951 L 8.98975 11.0455 Z" stroke="none" fill="#FF2A00" />
			<path d="M 17.1596 7.15897 C 16.972 7.89849, 16.6643 8.59888, 16.237 9.26102, 15.8096 9.92317, 15.3004 10.5232, 14.7098 11.0603, 14.1192 11.5979, 13.4606 12.0536, 12.7341 12.4278, 12.0077 12.8021, 11.2492 13.0706, 10.4584 13.2335, 10.3842 13.2335, 10.337 13.2263, 10.3172 13.2119 L 10.1098 13.2335, 10.0729 13.2335 C 10.0037 13.2335, 9.95914 13.2146, 9.93934 13.1759, 9.90966 13.1475, 9.89481 13.1093, 9.89481 13.0607 L 9.89481 13.0104 C 9.99377 12.171, 10.1805 11.3244, 10.4548 10.4702, 10.7292 9.61639, 10.9776 8.75947, 11.1998 7.90029, 11.2394 7.75185, 11.2636 7.63669, 11.2735 7.55482 L 11.2735 7.54763 C 11.2735 7.49994, 11.2564 7.45676, 11.2218 7.41808, 11.1777 7.38479, 11.0738 7.36365, 10.9105 7.35375, 10.7477 7.3443, 10.5597 7.33935, 10.3469 7.33891, 10.2137 7.33935, 10.1418 7.27458, 10.1319 7.14458 L 10.1319 7.087, 10.1841 6.96465 C 10.1989 6.90752, 10.2286 6.85849, 10.2731 6.81755, 10.3177 6.77707, 10.3743 6.74918, 10.4436 6.73433 L 12.4229 6.57599, 12.4525 6.57599 C 12.5119 6.57645, 12.5609 6.59309, 12.6005 6.62638, 12.6356 6.67496, 12.6527 6.71544, 12.6527 6.74873, 12.6527 6.77797, 12.6455 6.80451, 12.6302 6.8279 L 11.1624 12.5785 C 11.6815 12.4206, 12.2083 12.1606, 12.7418 11.7981, 13.2753 11.4359, 13.7584 11.01, 14.1907 10.5205, 14.6234 10.0311, 14.9954 9.49629, 15.3067 8.91556, 15.618 8.33528, 15.8528 7.74015, 16.0107 7.13018, 16.0552 6.94351, 16.1479 6.80451, 16.2887 6.71319, 16.4299 6.62233, 16.5694 6.57645, 16.7075 6.57599, 16.8609 6.57645, 16.9846 6.62188, 17.0781 6.71274, 17.1425 6.78517, 17.1744 6.88098, 17.1744 7.00063, 17.1744 7.04427, 17.1694 7.0969, 17.1596 7.15897 Z" stroke="none" fill="#FF2A00" />
			<path d="M 2.24044 -0.293176 C 2.24044 0.0940011, 2.21349 0.478911, 2.15958 0.861805, 2.10567 1.2447, 1.97217 1.60417, 1.75905 1.9397, 1.6069 2.18455, 1.40337 2.37248, 1.14869 2.50397, 0.894267 2.63572, 0.617424 2.70146, 0.318414 2.70146, 0.0307391 2.70146, -0.241318 2.63572, -0.497252 2.50397, -0.753187 2.37248, -0.957482 2.18455, -1.10963 1.9397, -1.32274 1.60417, -1.45625 1.2447, -1.51016 0.861805, -1.56407 0.478911, -1.59127 0.0940011, -1.59127 -0.293176, -1.59127 -0.685139, -1.56407 -1.07685, -1.51016 -1.46781, -1.45625 -1.85876, -1.32274 -2.22478, -1.10963 -2.56636, -0.957482 -2.81323, -0.753943 -3.00543, -0.499268 -3.14247, -0.244592 -3.2795, 0.027968 -3.34802, 0.318414 -3.34827, 0.614653 -3.34802, 0.89074 -3.2795, 1.14668 -3.14247, 1.40261 -3.00543, 1.6069 -2.81323, 1.75905 -2.56636, 1.97217 -2.22478, 2.10567 -1.85876, 2.15958 -1.46781, 2.21349 -1.07685, 2.24044 -0.685139, 2.24044 -0.293176 Z M 1.41848 -0.434242 C 1.41848 -0.60327, 1.41722 -0.78187, 1.41445 -0.970043, 1.41168 -1.15796, 1.40462 -1.34211, 1.39354 -1.52222, 1.38246 -1.70208, 1.36256 -1.87211, 1.33334 -2.03207, 1.30437 -2.19178, 1.2691 -2.32831, 1.22754 -2.44142, 1.14466 -2.62379, 1.02299 -2.77368, 0.862275 -2.89056, 0.701812 -3.00744, 0.520441 -3.06589, 0.318414 -3.06614, 0.121928 -3.06589, -0.0556642 -3.00669, -0.214868 -2.88855, -0.374071 -2.77015, -0.495237 -2.62128, -0.578366 -2.44142, -0.619678 -2.32831, -0.654945 -2.19178, -0.684165 -2.03207, -0.713134 -1.87211, -0.733287 -1.70208, -0.744371 -1.52222, -0.755454 -1.34211, -0.762256 -1.15796, -0.765027 -0.970043, -0.767798 -0.78187, -0.769309 -0.60327, -0.769309 -0.434242, -0.769309 -0.245818, -0.767798 -0.047569, -0.765027 0.160504, -0.762256 0.368829, -0.755454 0.570352, -0.744371 0.765074, -0.733287 0.960048, -0.713134 1.14469, -0.684165 1.31926, -0.654945 1.49409, -0.619678 1.64044, -0.578366 1.75833, -0.500779 1.95482, -0.380873 2.11604, -0.21915 2.24224, -0.0571756 2.3687, 0.121928 2.43167, 0.318414 2.43142, 0.523464 2.43167, 0.70685 2.3687, 0.868573 2.24224, 1.03055 2.11604, 1.1502 1.95482, 1.22754 1.75833, 1.2691 1.64044, 1.30437 1.49409, 1.33334 1.31926, 1.36256 1.14469, 1.38246 0.960048, 1.39354 0.765074, 1.40462 0.570352, 1.41168 0.368829, 1.41445 0.160504, 1.41722 -0.047569, 1.41848 -0.245818, 1.41848 -0.434242 Z" stroke="none" fill="#FF2A00" transform="matrix(1.12 0 0 1 20.0315 12.8121)" />
			<path d="M 14.8748 29.9171 C 14.9094 29.9513, 14.9265 29.9873, 14.9265 30.025, 14.9265 30.0687, 14.9072 30.1168, 14.8676 30.169, 14.4771 30.7115, 13.9792 31.1258, 13.3737 31.411, 12.7682 31.6962, 12.1619 31.8388, 11.5537 31.8388, 11.1237 31.8388, 10.7508 31.7443, 10.4345 31.5549, 10.1183 31.3655, 9.86864 31.1172, 9.68556 30.8095, 9.47819 30.4645, 9.35944 30.088, 9.32975 29.6796, 9.31985 29.5793, 9.3149 29.4785, 9.3149 29.3773, 9.3149 29.0705, 9.35449 28.7516, 9.43366 28.4201, 9.55241 27.9792, 9.7337 27.5546, 9.9784 27.1466, 10.2231 26.739, 10.5308 26.3643, 10.9015 26.0234, 11.2424 25.7265, 11.6194 25.484, 12.0319 25.2969, 12.4448 25.1098, 12.8587 25.0162, 13.2734 25.0157, 13.5258 25.0162, 13.7619 25.0549, 13.9819 25.1314, 14.2018 25.2083, 14.3894 25.3198, 14.5451 25.466, 14.7007 25.6127, 14.8132 25.7841, 14.8824 25.9802, 14.9022 26.0863, 14.9117 26.1916, 14.9117 26.2969, 14.9117 26.4125, 14.8973 26.5348, 14.8676 26.6639, 14.8132 26.8803, 14.7021 27.0449, 14.5338 27.1574, 14.366 27.2703, 14.1978 27.3265, 14.0296 27.3261, 13.8519 27.3265, 13.7088 27.264, 13.6 27.1389, 13.5159 27.058, 13.4736 26.9523, 13.4736 26.8223, 13.4736 26.7701, 13.4835 26.7053, 13.5033 26.6279, 13.5581 26.4174, 13.6657 26.2604, 13.8262 26.157, 13.9868 26.054, 14.1114 26, 14.2 25.9946, 14.151 25.8749, 14.0336 25.7625, 13.8483 25.6568, 13.663 25.5515, 13.4421 25.4984, 13.1848 25.498, 12.9378 25.4984, 12.6846 25.574, 12.425 25.7251, 12.1655 25.8763, 11.937 26.0719, 11.739 26.3113, 11.4723 26.6234, 11.2685 26.9608, 11.1277 27.3229, 10.9869 27.6855, 10.8668 28.0606, 10.7679 28.4488, 10.6693 28.833, 10.5929 29.205, 10.538 29.5644, 10.5182 29.68, 10.5083 29.788, 10.5083 29.8883, 10.5083 30.124, 10.5479 30.3494, 10.6271 30.5648, 10.7013 30.805, 10.8259 30.9985, 11.0013 31.1447, 11.1767 31.2913, 11.3882 31.3642, 11.6351 31.3637, 12.1592 31.3642, 12.6706 31.2301, 13.1699 30.9611, 13.6692 30.6926, 14.0817 30.3278, 14.4079 29.8667, 14.4376 29.8145, 14.4947 29.7736, 14.5784 29.7443 L 14.6377 29.7443 C 14.6872 29.7448, 14.7295 29.7614, 14.7637 29.7947 L 14.8748 29.9171 Z" stroke="none" fill="#FF2A00" />
			<path d="M 34.6265 20.3109 C 34.5577 20.5754, 34.4664 20.8453, 34.3526 21.121, 34.2392 21.3972, 34.0957 21.6478, 33.9225 21.8732, 33.7498 22.099, 33.5519 22.287, 33.3297 22.4377, 33.1074 22.5888, 32.8528 22.6644, 32.5658 22.6644, 32.3189 22.6644, 32.1052 22.6118, 31.9248 22.5061, 31.7445 22.4008, 31.61 22.2618, 31.5209 22.0891, 31.4318 21.9163, 31.3801 21.7148, 31.3648 21.4841 L 31.3648 21.4265 C 31.3648 21.2205, 31.4093 21.0095, 31.4984 20.7931, 31.6617 20.3761, 31.8151 19.9587, 31.9581 19.5412, 32.1012 19.1238, 32.2298 18.7064, 32.3432 18.2885, 32.4125 18.006, 32.4619 17.7325, 32.4916 17.468, 32.5015 17.3915, 32.5065 17.3101, 32.5065 17.2233, 32.5065 17.0604, 32.4867 16.912, 32.4471 16.777, 32.3585 16.4752, 32.1709 16.3241, 31.8839 16.3236, 31.3801 16.3241, 30.9474 16.4959, 30.5866 16.8387, 30.2258 17.1819, 29.9074 17.6412, 29.6303 18.2165 L 28.6145 22.1318 C 28.5705 22.3099, 28.48 22.4426, 28.3442 22.5313, 28.2084 22.6203, 28.0712 22.6644, 27.9326 22.6644, 27.7846 22.6644, 27.6708 22.6167, 27.5916 22.5205, 27.5278 22.4584, 27.4954 22.372, 27.4954 22.2614, 27.4954 22.2186, 27.5003 22.166, 27.5102 22.103 L 28.6514 17.6479 C 28.7306 17.3366, 28.7702 17.0676, 28.7702 16.8418 L 28.7702 16.6691 C 28.7459 16.4392, 28.6298 16.3241, 28.422 16.3236, 28.2043 16.3241, 28.0226 16.4995, 27.8768 16.8495, 27.7311 17.1999, 27.5894 17.6556, 27.4508 18.2165, 27.3964 18.3465, 27.3051 18.4135, 27.1764 18.418 L 27.006 18.418 C 26.8872 18.4185, 26.8278 18.3586, 26.8278 18.2381 L 26.8278 18.1877 C 26.8872 17.9628, 26.9542 17.7167, 27.0285 17.4504, 27.1027 17.1841, 27.2016 16.9322, 27.3249 16.6947, 27.4486 16.4572, 27.6042 16.2557, 27.7918 16.0901, 27.9798 15.9246, 28.2142 15.8418, 28.4958 15.8414, 28.9015 15.8418, 29.2205 15.9619, 29.4526 16.2017, 29.6847 16.4419, 29.8057 16.6767, 29.8156 16.9066, 30.0234 16.6385, 30.3122 16.3938, 30.6829 16.1729, 31.0535 15.9525, 31.4836 15.8418, 31.9725 15.8414, 32.2645 15.8418, 32.5366 15.8958, 32.7885 16.0038, 33.0404 16.1117, 33.2356 16.2858, 33.3737 16.5251, 33.5222 16.7703, 33.5964 17.046, 33.5964 17.3528 L 33.5964 17.3888 C 33.5865 17.6965, 33.542 18.006, 33.4628 18.3173, 33.3494 18.7545, 33.2185 19.1841, 33.0701 19.606, 32.9217 20.0284, 32.766 20.4553, 32.6027 20.8867, 32.4547 21.2758, 32.3805 21.6019, 32.3805 21.8655, 32.3805 22.0819, 32.4723 22.1898, 32.6549 22.1894, 32.8231 22.1898, 32.9761 22.1395, 33.1146 22.0387, 33.2532 21.9379, 33.3778 21.8025, 33.4889 21.632, 33.6 21.462, 33.6999 21.2605, 33.7889 21.0275, 33.878 20.7949, 33.9522 20.5466, 34.0111 20.2821, 34.0705 20.1625, 34.1546 20.1026, 34.2635 20.1022 L 34.4488 20.1022 C 34.5676 20.1026, 34.6265 20.1553, 34.6265 20.2605 L 34.6265 20.3109 Z" stroke="none" fill="#FF2A00" />
			<polygon points="-3.71448 0 -1.35608 -1.474 -0.80333 -1.474 -2.05623 -0.276375 3.71448 -0.276375 3.71448 0.276375 -2.05623 0.276375 -0.80333 1.474 -1.35608 1.474" stroke="none" fill="#FF2A00" transform="matrix(-1 8.74228e-008 -8.74228e-008 -1 31.1432 12.8934)" />
			<path d="M 2.24044 -0.293176 C 2.24044 0.0940011, 2.21349 0.478911, 2.15958 0.861805, 2.10567 1.2447, 1.97217 1.60417, 1.75905 1.9397, 1.6069 2.18455, 1.40337 2.37248, 1.14869 2.50397, 0.894267 2.63572, 0.617424 2.70146, 0.318414 2.70146, 0.0307391 2.70146, -0.241318 2.63572, -0.497252 2.50397, -0.753187 2.37248, -0.957482 2.18455, -1.10963 1.9397, -1.32274 1.60417, -1.45625 1.2447, -1.51016 0.861805, -1.56407 0.478911, -1.59127 0.0940011, -1.59127 -0.293176, -1.59127 -0.685139, -1.56407 -1.07685, -1.51016 -1.46781, -1.45625 -1.85876, -1.32274 -2.22478, -1.10963 -2.56636, -0.957482 -2.81323, -0.753943 -3.00543, -0.499268 -3.14247, -0.244592 -3.2795, 0.027968 -3.34802, 0.318414 -3.34827, 0.614653 -3.34802, 0.89074 -3.2795, 1.14668 -3.14247, 1.40261 -3.00543, 1.6069 -2.81323, 1.75905 -2.56636, 1.97217 -2.22478, 2.10567 -1.85876, 2.15958 -1.46781, 2.21349 -1.07685, 2.24044 -0.685139, 2.24044 -0.293176 Z M 1.41848 -0.434242 C 1.41848 -0.60327, 1.41722 -0.78187, 1.41445 -0.970043, 1.41168 -1.15796, 1.40462 -1.34211, 1.39354 -1.52222, 1.38246 -1.70208, 1.36256 -1.87211, 1.33334 -2.03207, 1.30437 -2.19178, 1.2691 -2.32831, 1.22754 -2.44142, 1.14466 -2.62379, 1.02299 -2.77368, 0.862275 -2.89056, 0.701812 -3.00744, 0.520441 -3.06589, 0.318414 -3.06614, 0.121928 -3.06589, -0.0556642 -3.00669, -0.214868 -2.88855, -0.374071 -2.77015, -0.495237 -2.62128, -0.578366 -2.44142, -0.619678 -2.32831, -0.654945 -2.19178, -0.684165 -2.03207, -0.713134 -1.87211, -0.733287 -1.70208, -0.744371 -1.52222, -0.755454 -1.34211, -0.762256 -1.15796, -0.765027 -0.970043, -0.767798 -0.78187, -0.769309 -0.60327, -0.769309 -0.434242, -0.769309 -0.245818, -0.767798 -0.047569, -0.765027 0.160504, -0.762256 0.368829, -0.755454 0.570352, -0.744371 0.765074, -0.733287 0.960048, -0.713134 1.14469, -0.684165 1.31926, -0.654945 1.49409, -0.619678 1.64044, -0.578366 1.75833, -0.500779 1.95482, -0.380873 2.11604, -0.21915 2.24224, -0.0571756 2.3687, 0.121928 2.43167, 0.318414 2.43142, 0.523464 2.43167, 0.70685 2.3687, 0.868573 2.24224, 1.03055 2.11604, 1.1502 1.95482, 1.22754 1.75833, 1.2691 1.64044, 1.30437 1.49409, 1.33334 1.31926, 1.36256 1.14469, 1.38246 0.960048, 1.39354 0.765074, 1.40462 0.570352, 1.41168 0.368829, 1.41445 0.160504, 1.41722 -0.047569, 1.41848 -0.245818, 1.41848 -0.434242 Z" stroke="none" fill="#FF2A00" transform="matrix(1.12 0 0 1 36.9859 22.0775)" />
			<rect />
		</svg>
	</g>
	<g transform="matrix(1 0 -0 1 162.61 8.24999)">
		<svg width="135.036896" height="93.0232086">
			<defs />
			<polyline points="0.2948 17.9802 18.0293 17.9802" fill="none" stroke="#0006BF" stroke-width="0.589599967" stroke-linecap="round" stroke-linejoin="round" />
			<path d="M 8.98975 11.0455 C 8.92048 11.31, 8.82916 11.5799, 8.71536 11.8556, 8.602 12.1318, 8.45851 12.3824, 8.28577 12.6078, 8.11304 12.8336, 7.91511 13.0216, 7.69245 13.1723, 7.47023 13.3234, 7.21563 13.399, 6.92909 13.399, 6.68213 13.399, 6.47071 13.3464, 6.29528 13.2407, 6.11984 13.1354, 5.984 12.9964, 5.88773 12.8237, 5.79147 12.6509, 5.74289 12.4589, 5.74289 12.2474, 5.73299 12.2384, 5.72804 12.2142, 5.72804 12.1755, 5.72804 11.9694, 5.77258 11.7535, 5.86164 11.5277, 6.02448 11.1107, 6.17787 10.6933, 6.32092 10.2758, 6.46441 9.8584, 6.59037 9.44096, 6.69922 9.02307, 6.7685 8.74057, 6.82023 8.46708, 6.85487 8.20258, 6.86476 8.12611, 6.86971 8.04469, 6.86971 7.95787, 6.86971 7.79503, 6.84992 7.64659, 6.81033 7.51164, 6.72127 7.2098, 6.53369 7.05866, 6.2467 7.05821, 5.74289 7.05866, 5.3106 7.2305, 4.94984 7.57327, 4.58908 7.91649, 4.26745 8.37576, 3.98586 8.95109 L 2.97779 12.8664 C 2.93371 13.0445, 2.84329 13.1772, 2.70744 13.2659, 2.57159 13.3549, 2.4344 13.399, 2.29585 13.399, 2.1528 13.399, 2.03405 13.3513, 1.94003 13.2551, 1.87571 13.193, 1.84332 13.1066, 1.84332 12.996, 1.84332 12.9438, 1.84827 12.8907, 1.85816 12.8376 L 4.08977 4.1865 C 4.12935 4.02861, 4.15409 3.90851, 4.16399 3.82664 L 4.16399 3.80505 C 4.16399 3.76231, 4.15409 3.73128, 4.1343 3.71148, 4.07492 3.6737, 3.96381 3.64716, 3.80053 3.63276, 3.63769 3.61837, 3.44966 3.61117, 3.23734 3.61072, 3.16312 3.61117, 3.10869 3.58733, 3.07405 3.53875, 3.04436 3.51041, 3.02952 3.47442, 3.02952 3.43079, 3.02952 3.40245, 3.03717 3.37591, 3.05201 3.35162 L 3.07405 3.23646 C 3.11364 3.12176, 3.20765 3.04978, 3.35564 3.02055 L 5.29081 2.86221, 5.32005 2.86221 C 5.37943 2.86266, 5.42891 2.882, 5.46849 2.91978, 5.49818 2.96342, 5.51302 3.00165, 5.51302 3.03494, 5.51302 3.06418, 5.50583 3.09072, 5.49098 3.11411 L 4.3862 7.40368 C 4.52475 7.24084, 4.76946 7.06226, 5.12032 6.86793, 5.47119 6.67361, 5.87649 6.57645, 6.33576 6.57599, 6.6277 6.57645, 6.89985 6.63042, 7.15175 6.73838, 7.40366 6.84634, 7.59888 7.02043, 7.73698 7.25974, 7.88542 7.50489, 7.9592 7.78064, 7.9592 8.08742 L 7.9592 8.12341 C 7.9493 8.43109, 7.90522 8.74057, 7.82605 9.05185, 7.71269 9.48909, 7.57909 9.91867, 7.4257 10.3406, 7.27276 10.763, 7.11442 11.1921, 6.95113 11.6285, 6.80313 12.0032, 6.72891 12.3176, 6.72891 12.5713, 6.72891 12.5335, 6.73386 12.5142, 6.74376 12.5137, 6.74376 12.7877, 6.83507 12.9244, 7.0177 12.924, 7.18594 12.9244, 7.33573 12.8741, 7.46663 12.7733, 7.59753 12.6725, 7.71989 12.5371, 7.83324 12.3666, 7.94705 12.1966, 8.04736 11.9951, 8.13373 11.7621, 8.2201 11.5295, 8.30062 11.2835, 8.37439 11.0239, 8.40408 10.8998, 8.48819 10.8372, 8.62674 10.8368 L 8.79723 10.8368 C 8.92588 10.8372, 8.98975 10.8899, 8.98975 10.9951 L 8.98975 11.0455 Z" stroke="none" fill="#0006BF" />
			<path d="M 17.2152 7.15897 C 17.0276 7.89849, 16.72 8.59888, 16.2926 9.26102, 15.8653 9.92317, 15.3561 10.5232, 14.7655 11.0603, 14.1748 11.5979, 13.5163 12.0536, 12.7898 12.4278, 12.0633 12.8021, 11.3049 13.0706, 10.5141 13.2335, 10.4399 13.2335, 10.3927 13.2263, 10.3729 13.2119 L 10.1655 13.2335, 10.1286 13.2335 C 10.0593 13.2335, 10.0148 13.2146, 9.99502 13.1759, 9.96533 13.1475, 9.95049 13.1093, 9.95049 13.0607 L 9.95049 13.0104 C 10.0495 12.171, 10.2361 11.3244, 10.5105 10.4702, 10.7849 9.61639, 11.0332 8.75947, 11.2554 7.90029, 11.295 7.75185, 11.3193 7.63669, 11.3292 7.55482 L 11.3292 7.54763 C 11.3292 7.49994, 11.3121 7.45676, 11.2775 7.41808, 11.2334 7.38479, 11.1295 7.36365, 10.9662 7.35375, 10.8034 7.3443, 10.6153 7.33935, 10.4026 7.33891, 10.2694 7.33935, 10.1974 7.27458, 10.1875 7.14458 L 10.1875 7.087, 10.2397 6.96465 C 10.2546 6.90752, 10.2843 6.85849, 10.3288 6.81755, 10.3733 6.77707, 10.43 6.74918, 10.4993 6.73433 L 12.4785 6.57599, 12.5082 6.57599 C 12.5676 6.57645, 12.6166 6.59309, 12.6562 6.62638, 12.6913 6.67496, 12.7084 6.71544, 12.7084 6.74873, 12.7084 6.77797, 12.7012 6.80451, 12.6859 6.8279 L 11.2181 12.5785 C 11.7372 12.4206, 12.264 12.1606, 12.7975 11.7981, 13.331 11.4359, 13.8141 11.01, 14.2464 10.5205, 14.6791 10.0311, 15.0511 9.49629, 15.3624 8.91556, 15.6737 8.33528, 15.9085 7.74015, 16.0664 7.13018, 16.1109 6.94351, 16.2036 6.80451, 16.3444 6.71319, 16.4856 6.62233, 16.6251 6.57645, 16.7631 6.57599, 16.9165 6.57645, 17.0402 6.62188, 17.1338 6.71274, 17.1981 6.78517, 17.2301 6.88098, 17.2301 7.00063, 17.2301 7.04427, 17.2251 7.0969, 17.2152 7.15897 Z" stroke="none" fill="#0006BF" />
			<path d="M 11.9123 29.826 C 11.9469 29.8602, 11.964 29.8962, 11.964 29.934, 11.964 29.9776, 11.9447 30.0258, 11.9051 30.0779, 11.5146 30.6204, 11.0167 31.0347, 10.4112 31.3199, 9.80574 31.6051, 9.19937 31.7477, 8.5912 31.7477, 8.16117 31.7477, 7.78826 31.6532, 7.47203 31.4639, 7.1558 31.2745, 6.90615 31.0262, 6.72306 30.7185, 6.51569 30.3735, 6.39694 29.997, 6.36725 29.5885, 6.35735 29.4882, 6.35241 29.3875, 6.35241 29.2862, 6.35241 28.9795, 6.39199 28.6605, 6.47116 28.329, 6.58992 27.8882, 6.7712 27.4635, 7.0159 27.0555, 7.26061 26.648, 7.56829 26.2733, 7.93895 25.9323, 8.27992 25.6354, 8.65688 25.393, 9.06937 25.2058, 9.48232 25.0187, 9.89616 24.9251, 10.3109 24.9247, 10.5633 24.9251, 10.7994 24.9638, 11.0194 25.0403, 11.2393 25.1172, 11.4269 25.2288, 11.5826 25.375, 11.7382 25.5216, 11.8507 25.693, 11.9199 25.8891, 11.9397 25.9953, 11.9492 26.1005, 11.9492 26.2058, 11.9492 26.3214, 11.9348 26.4438, 11.9051 26.5729, 11.8507 26.7892, 11.7396 26.9539, 11.5713 27.0663, 11.4035 27.1792, 11.2353 27.2355, 11.0671 27.235, 10.8894 27.2355, 10.7463 27.1729, 10.6375 27.0479, 10.5534 26.9669, 10.5111 26.8612, 10.5111 26.7312, 10.5111 26.679, 10.521 26.6143, 10.5408 26.5369, 10.5956 26.3264, 10.7032 26.1694, 10.8637 26.0659, 11.0243 25.9629, 11.1489 25.9089, 11.2375 25.9035, 11.1885 25.7839, 11.0711 25.6714, 10.8858 25.5657, 10.7005 25.4604, 10.4796 25.4074, 10.2223 25.4069, 9.97533 25.4074, 9.72208 25.4829, 9.46252 25.6341, 9.20297 25.7852, 8.97446 25.9809, 8.77653 26.2202, 8.50979 26.5324, 8.30601 26.8698, 8.16522 27.2319, 8.02442 27.5944, 7.90432 27.9696, 7.80535 28.3578, 7.70684 28.7419, 7.63037 29.114, 7.57549 29.4734, 7.5557 29.589, 7.5458 29.6969, 7.5458 29.7972, 7.5458 30.033, 7.58539 30.2583, 7.66456 30.4738, 7.73878 30.714, 7.86338 30.9074, 8.03881 31.0536, 8.21425 31.2003, 8.42567 31.2731, 8.67262 31.2727, 9.19668 31.2731, 9.70813 31.1391, 10.2074 30.8701, 10.7068 30.6015, 11.1192 30.2367, 11.4454 29.7757, 11.4751 29.7235, 11.5322 29.6825, 11.6159 29.6533 L 11.6752 29.6533 C 11.7247 29.6537, 11.767 29.6704, 11.8012 29.7037 L 11.9123 29.826 Z" stroke="none" fill="#0006BF" />
			<path d="M 28.7015 20.2198 C 28.6327 20.4843, 28.5414 20.7542, 28.4276 21.03, 28.3142 21.3062, 28.1707 21.5567, 27.9975 21.7821, 27.8248 22.0079, 27.6269 22.1959, 27.4047 22.3466, 27.1824 22.4978, 26.9278 22.5734, 26.6408 22.5734, 26.3939 22.5734, 26.1802 22.5207, 25.9998 22.415, 25.8195 22.3098, 25.685 22.1708, 25.5959 21.998, 25.5068 21.8253, 25.4551 21.6238, 25.4398 21.393 L 25.4398 21.3354 C 25.4398 21.1294, 25.4843 20.9184, 25.5734 20.7021, 25.7367 20.2851, 25.8901 19.8676, 26.0331 19.4502, 26.1762 19.0327, 26.3048 18.6153, 26.4182 18.1974, 26.4875 17.9149, 26.5369 17.6414, 26.5666 17.3769, 26.5765 17.3005, 26.5815 17.219, 26.5815 17.1322, 26.5815 16.9694, 26.5617 16.8209, 26.5221 16.686, 26.4335 16.3842, 26.2459 16.233, 25.9589 16.2326, 25.4551 16.233, 25.0224 16.4048, 24.6616 16.7476, 24.3008 17.0908, 23.9824 17.5501, 23.7053 18.1254 L 22.6895 22.0408 C 22.6455 22.2189, 22.555 22.3516, 22.4192 22.4402, 22.2834 22.5293, 22.1462 22.5734, 22.0076 22.5734, 21.8596 22.5734, 21.7458 22.5257, 21.6666 22.4294, 21.6028 22.3673, 21.5704 22.281, 21.5704 22.1703, 21.5704 22.1276, 21.5753 22.0749, 21.5852 22.012 L 22.7264 17.5569 C 22.8056 17.2456, 22.8452 16.9766, 22.8452 16.7508 L 22.8452 16.578 C 22.8209 16.3482, 22.7048 16.233, 22.497 16.2326, 22.2793 16.233, 22.0976 16.4084, 21.9518 16.7584, 21.8061 17.1088, 21.6644 17.5645, 21.5258 18.1254, 21.4714 18.2554, 21.3801 18.3225, 21.2514 18.327 L 21.081 18.327 C 20.9622 18.3274, 20.9028 18.2676, 20.9028 18.147 L 20.9028 18.0967 C 20.9622 17.8717, 21.0292 17.6257, 21.1035 17.3594, 21.1777 17.0931, 21.2766 16.8412, 21.3999 16.6037, 21.5236 16.3662, 21.6792 16.1646, 21.8668 15.9991, 22.0548 15.8336, 22.2892 15.7508, 22.5708 15.7503, 22.9765 15.7508, 23.2955 15.8709, 23.5276 16.1107, 23.7597 16.3509, 23.8807 16.5857, 23.8906 16.8155, 24.0984 16.5474, 24.3872 16.3027, 24.7579 16.0819, 25.1285 15.8615, 25.5586 15.7508, 26.0475 15.7503, 26.3395 15.7508, 26.6116 15.8048, 26.8635 15.9127, 27.1154 16.0207, 27.3106 16.1948, 27.4487 16.4341, 27.5972 16.6792, 27.6714 16.955, 27.6714 17.2618 L 27.6714 17.2978 C 27.6615 17.6054, 27.617 17.9149, 27.5378 18.2262, 27.4244 18.6634, 27.2935 19.093, 27.1451 19.515, 26.9967 19.9374, 26.841 20.3642, 26.6777 20.7956, 26.5297 21.1847, 26.4555 21.5109, 26.4555 21.7745, 26.4555 21.9908, 26.5473 22.0988, 26.7299 22.0983, 26.8981 22.0988, 27.0511 22.0484, 27.1896 21.9476, 27.3282 21.8469, 27.4528 21.7115, 27.5639 21.541, 27.675 21.371, 27.7749 21.1694, 27.8639 20.9364, 27.953 20.7039, 28.0272 20.4556, 28.0861 20.1911, 28.1455 20.0714, 28.2296 20.0116, 28.3385 20.0111 L 28.5238 20.0111 C 28.6426 20.0116, 28.7015 20.0642, 28.7015 20.1695 L 28.7015 20.2198 Z" stroke="none" fill="#0006BF" />
			<polygon points="-3.71448 0 -1.35608 -1.474 -0.803329 -1.474 -2.05623 -0.276375 3.71448 -0.276375 3.71448 0.276375 -2.05623 0.276375 -0.803329 1.474 -1.35608 1.474" stroke="none" fill="#0006BF" transform="matrix(-1 8.74228e-008 -8.74228e-008 -1 25.2182 12.8023)" />
			<rect />
		</svg>
	</g>
	<g transform="matrix(1 0 -0 1 134.422 82.7066)">
		<svg width="71.9722977" height="51.0774078">
			<defs />
			<path d="M 11.6667 15.1735 C 11.6078 15.4281, 11.5191 15.6935, 11.4004 15.9692, 11.2816 16.2454, 11.1395 16.496, 10.9739 16.7213, 10.8084 16.9471, 10.6145 17.1352, 10.3923 17.2859, 10.1701 17.437, 9.9128 17.5126, 9.62131 17.5126, 9.37436 17.5126, 9.16204 17.4599, 8.98391 17.3542, 8.80622 17.249, 8.67172 17.11, 8.57996 16.9372, 8.48864 16.7645, 8.43781 16.563, 8.42792 16.3322 L 8.42792 16.2746 C 8.42792 16.0686, 8.4702 15.8599, 8.55387 15.6485, 8.71716 15.2265, 8.86785 14.8068, 9.0064 14.3894, 9.14495 13.972, 9.2709 13.5523, 9.38425 13.1294, 9.46342 12.8514, 9.5174 12.5806, 9.54709 12.3161, 9.55699 12.2496, 9.56194 12.1776, 9.56194 12.1002, 9.56194 11.9329, 9.5372 11.7745, 9.48771 11.6252, 9.3991 11.3234, 9.21152 11.1722, 8.92453 11.1718, 8.42072 11.1722, 7.98573 11.3463, 7.62002 11.694, 7.25476 12.0422, 6.93583 12.5037, 6.66414 13.0791, 6.5112 13.7322, 6.34791 14.3836, 6.17517 15.0336, 6.00244 15.684, 5.8315 16.3327, 5.66327 16.98, 5.61918 17.1581, 5.52787 17.2908, 5.38932 17.3794, 5.25077 17.4685, 5.11493 17.5126, 4.98178 17.5126, 4.83873 17.5126, 4.71998 17.4649, 4.62596 17.3686, 4.56164 17.3065, 4.527 17.2202, 4.52205 17.1095, 4.52205 17.0573, 4.527 17.0043, 4.5369 16.9512 L 5.53012 13.1294 C 5.60929 12.8514, 5.66327 12.5806, 5.69296 12.3161 L 5.69296 12.1002 C 5.69296 11.9279, 5.67316 11.7696, 5.63358 11.6252, 5.54496 11.3234, 5.35738 11.1722, 5.07039 11.1718, 4.56658 11.1722, 4.13205 11.3463, 3.76634 11.694, 3.40063 12.0422, 3.07945 12.5037, 2.80235 13.0791 L 1.78709 16.98 C 1.74301 17.1581, 1.65259 17.2908, 1.51674 17.3794, 1.3809 17.4685, 1.2437 17.5126, 1.10515 17.5126, 0.957156 17.5126, 0.843349 17.4649, 0.764179 17.3686, 0.700304 17.3065, 0.667916 17.2202, 0.667916 17.1095, 0.667916 17.0668, 0.672864 17.0142, 0.68276 16.9512 L 1.82398 12.4961 C 1.90315 12.1848, 1.94273 11.9158, 1.94273 11.69 L 1.94273 11.5172 C 1.91844 11.2874, 1.80238 11.1722, 1.59456 11.1718, 1.3773 11.1722, 1.19557 11.3477, 1.04982 11.6976, 0.904076 12.048, 0.76193 12.5037, 0.623383 13.0647, 0.569403 13.1947, 0.478088 13.2617, 0.349437 13.2662 L 0.178952 13.2662 C 0.0601968 13.2666, 0.000819415 13.2068, 0.000819415 13.0862 L 0.000819415 13.0359 C 0.0601968 12.811, 0.127221 12.5649, 0.200993 12.2986, 0.275215 12.0323, 0.374178 11.7804, 0.497431 11.5429, 0.621134 11.3054, 0.776775 11.1039, 0.964353 10.9383, 1.15238 10.7728, 1.38674 10.69, 1.66834 10.6896, 2.07408 10.69, 2.39256 10.8124, 2.62467 11.0571, 2.85678 11.3018, 2.97779 11.5393, 2.98768 11.7691, 3.19551 11.4961, 3.4843 11.2478, 3.85495 11.0247, 4.22561 10.8016, 4.65565 10.69, 5.14461 10.6896, 5.446 10.69, 5.72309 10.744, 5.975 10.8519, 6.2269 10.9599, 6.42213 11.134, 6.56023 11.3733, 6.67898 11.5802, 6.74286 11.753, 6.75275 11.8915, 6.97047 11.5847, 7.27186 11.3081, 7.65736 11.0607, 8.04286 10.8137, 8.49494 10.69, 9.01359 10.6896, 9.30508 10.69, 9.57678 10.744, 9.82868 10.8519, 10.0806 10.9599, 10.2785 11.134, 10.4216 11.3733, 10.57 11.6185, 10.642 11.8942, 10.6366 12.201 L 10.6366 12.237 C 10.6267 12.5447, 10.5826 12.8541, 10.5034 13.1654, 10.3901 13.6027, 10.2592 14.0322, 10.1107 14.4542, 9.96228 14.8766, 9.80664 15.3035, 9.64336 15.7348, 9.49536 16.1239, 9.42114 16.4501, 9.42114 16.7137, 9.42114 16.93, 9.51515 17.038, 9.70273 17.0375, 9.87097 17.038, 10.0226 16.9876, 10.1584 16.8869, 10.2943 16.7861, 10.418 16.6507, 10.5291 16.4802, 10.6406 16.3102, 10.7405 16.1087, 10.8296 15.8756, 10.9186 15.6431, 10.9973 15.397, 11.0666 15.1375, 11.0963 15.0133, 11.1827 14.9508, 11.3257 14.9503 L 11.489 14.9503 C 11.5434 14.9508, 11.6001 14.9674, 11.6595 15.0007, 11.6793 15.0444, 11.6892 15.0803, 11.6892 15.1087, 11.6892 15.1285, 11.682 15.1501, 11.6667 15.1735 Z" stroke="none" fill="#0006BF" />
			<path d="M 22.8529 7.50837 C 22.8237 7.65276, 22.7346 7.72474, 22.5862 7.72429, 22.4283 7.72474, 22.2776 7.74273, 22.1341 7.77872, 21.9911 7.8147, 21.8512 7.87588, 21.7153 7.96225, 21.5795 8.04861, 21.4549 8.15297, 21.3411 8.27533, 21.2277 8.39768, 21.1238 8.53578, 21.0298 8.68872 L 15.6269 17.4766 C 15.5531 17.6111, 15.4393 17.6759, 15.2859 17.6709 L 15.1451 17.6709 C 14.9625 17.6709, 14.8734 17.5944, 14.8784 17.4406 L 13.9517 8.24969 C 13.9319 8.12553, 13.9121 8.02837, 13.8923 7.95865, 13.8725 7.88937, 13.8433 7.83989, 13.8037 7.81065, 13.7345 7.77287, 13.6247 7.74903, 13.474 7.73913, 13.3233 7.72968, 13.1515 7.72474, 12.9585 7.72429, 12.8847 7.72474, 12.8303 7.7009, 12.7957 7.65231, 12.766 7.62397, 12.7511 7.58799, 12.7511 7.54436, 12.7511 7.51602, 12.7588 7.48948, 12.7732 7.46519 L 12.7957 7.35723 C 12.8105 7.29515, 12.8438 7.24252, 12.8955 7.19934, 12.9477 7.15615, 13.0107 7.13456, 13.0844 7.13411, 13.559 7.16335, 14.0385 7.17774, 14.5226 7.17729, 14.5968 7.17774, 14.6759 7.1728, 14.7596 7.1629, 15.3327 7.16335, 15.9062 7.1539, 16.4793 7.13411, 16.5486 7.13456, 16.6102 7.1584, 16.6646 7.20608, 16.6844 7.24477, 16.6939 7.28076, 16.6939 7.31404, 16.6939 7.34328, 16.6867 7.36982, 16.6718 7.39321 L 16.6498 7.50117 C 16.6349 7.56865, 16.599 7.62308, 16.5423 7.66356, 16.4856 7.70449, 16.4249 7.72474, 16.3606 7.72429, 16.1878 7.72474, 16.0295 7.73193, 15.8864 7.74633, 15.7434 7.76072, 15.6021 7.79896, 15.4636 7.86104, 15.3799 7.90467, 15.3403 7.97664, 15.3453 8.07695 L 15.3453 8.12733 C 15.518 9.40395, 15.6566 10.6864, 15.76 11.9747, 15.8639 13.263, 15.975 14.483, 16.0938 15.6341 L 20.4666 8.51599 C 20.5309 8.41567, 20.5705 8.30996, 20.5853 8.19931 L 20.5853 8.16332 C 20.5853 8.0918, 20.5683 8.02702, 20.5332 7.96899, 20.4248 7.80616, 20.2223 7.72474, 19.9254 7.72429, 19.7972 7.72474, 19.7329 7.65996, 19.7329 7.52996 L 19.7329 7.47958, 19.7626 7.35003 C 19.817 7.20653, 19.9133 7.13456, 20.0514 7.13411, 20.4864 7.1539, 20.9236 7.16335, 21.3636 7.1629, 21.4229 7.1728, 21.4796 7.17774, 21.534 7.17729, 21.9096 7.17774, 22.2951 7.16335, 22.6901 7.13411, 22.8237 7.13456, 22.8952 7.19934, 22.9051 7.32844 L 22.9051 7.38602 Z" stroke="none" fill="#0006BF" />
			<polygon points="-3.71448 0 -1.35608 -1.474 -0.803329 -1.474 -2.05623 -0.276375 3.71448 -0.276375 3.71448 0.276375 -2.05623 0.276375 -0.803329 1.474 -1.35608 1.474" stroke="none" fill="#0006BF" transform="matrix(-1 8.74228e-008 -8.74228e-008 -1 18.1188 3.685)" />
			<rect />
		</svg>
	</g>
</svg>
